%FSLAX45Y45*%
G04 Gerber Fmt 4.5, Leading zero omitted, Abs format (unit mm)*
G04 Created by KiCad (PCBNEW (5.1.10)-1) date 2022-01-06 14:13:50*
%MOMM*%
%LPD*%
G01*
G04 APERTURE LIST*
%TA.AperFunction,Profile*%
%ADD10C,0.050000*%
%TD*%
%ADD11C,0.200000*%
%ADD12C,0.300000*%
G04 APERTURE END LIST*
D10*
X5207000Y-6604000D02*
X5207000Y-3175000D01*
X9334500Y-6858000D02*
X5461000Y-6858000D01*
X9588500Y-3175000D02*
X9588500Y-6604000D01*
X5461000Y-2921000D02*
X9334500Y-2921000D01*
X9588500Y-6604000D02*
G75*
G02*
X9334500Y-6858000I-254000J0D01*
G01*
X5207000Y-6604000D02*
G75*
G03*
X5461000Y-6858000I254000J0D01*
G01*
X5461000Y-2921000D02*
G75*
G03*
X5207000Y-3175000I0J-254000D01*
G01*
X9588500Y-3175000D02*
G75*
G03*
X9334500Y-2921000I-254000J0D01*
G01*
D11*
D12*
X5490928Y-7326214D02*
X5490928Y-7026214D01*
X5562357Y-7026214D01*
X5605214Y-7040500D01*
X5633786Y-7069071D01*
X5648071Y-7097643D01*
X5662357Y-7154786D01*
X5662357Y-7197643D01*
X5648071Y-7254786D01*
X5633786Y-7283357D01*
X5605214Y-7311929D01*
X5562357Y-7326214D01*
X5490928Y-7326214D01*
X5790928Y-7326214D02*
X5790928Y-7126214D01*
X5790928Y-7183357D02*
X5805214Y-7154786D01*
X5819500Y-7140500D01*
X5848071Y-7126214D01*
X5876643Y-7126214D01*
X5976643Y-7326214D02*
X5976643Y-7126214D01*
X5976643Y-7026214D02*
X5962357Y-7040500D01*
X5976643Y-7054786D01*
X5990928Y-7040500D01*
X5976643Y-7026214D01*
X5976643Y-7054786D01*
X6162357Y-7326214D02*
X6133786Y-7311929D01*
X6119500Y-7283357D01*
X6119500Y-7026214D01*
X6319500Y-7326214D02*
X6290928Y-7311929D01*
X6276643Y-7283357D01*
X6276643Y-7026214D01*
X6662357Y-7326214D02*
X6662357Y-7026214D01*
X6762357Y-7240500D01*
X6862357Y-7026214D01*
X6862357Y-7326214D01*
X7133786Y-7326214D02*
X7133786Y-7169071D01*
X7119500Y-7140500D01*
X7090928Y-7126214D01*
X7033786Y-7126214D01*
X7005214Y-7140500D01*
X7133786Y-7311929D02*
X7105214Y-7326214D01*
X7033786Y-7326214D01*
X7005214Y-7311929D01*
X6990928Y-7283357D01*
X6990928Y-7254786D01*
X7005214Y-7226214D01*
X7033786Y-7211929D01*
X7105214Y-7211929D01*
X7133786Y-7197643D01*
X7276643Y-7126214D02*
X7276643Y-7426214D01*
X7276643Y-7140500D02*
X7305214Y-7126214D01*
X7362357Y-7126214D01*
X7390928Y-7140500D01*
X7405214Y-7154786D01*
X7419500Y-7183357D01*
X7419500Y-7269071D01*
X7405214Y-7297643D01*
X7390928Y-7311929D01*
X7362357Y-7326214D01*
X7305214Y-7326214D01*
X7276643Y-7311929D01*
X7548071Y-7297643D02*
X7562357Y-7311929D01*
X7548071Y-7326214D01*
X7533786Y-7311929D01*
X7548071Y-7297643D01*
X7548071Y-7326214D01*
X7548071Y-7140500D02*
X7562357Y-7154786D01*
X7548071Y-7169071D01*
X7533786Y-7154786D01*
X7548071Y-7140500D01*
X7548071Y-7169071D01*
M02*
