M48
; DRILL file {KiCad (5.1.10)-1} date 01/06/22 14:13:49
; FORMAT={-:-/ absolute / metric / decimal}
; #@! TF.CreationDate,2022-01-06T14:13:49-06:00
; #@! TF.GenerationSoftware,Kicad,Pcbnew,(5.1.10)-1
; #@! TF.FileFunction,Plated,1,2,PTH
FMAT,2
METRIC
T1C0.400
T2C1.000
%
G90
G05
T1
X62.745Y-50.045
X62.817Y-46.942
X62.865Y-56.515
X63.205Y-53.045
X85.055Y-53.302
X85.09Y-50.165
X85.09Y-56.515
X85.09Y-56.515
X85.193Y-46.887
T2
X73.66Y-31.115
X73.66Y-33.655
X73.66Y-36.195
X73.66Y-38.735
X73.66Y-41.275
X73.66Y-43.815
X73.66Y-46.355
X73.66Y-48.895
X73.66Y-51.435
X73.66Y-53.975
X73.66Y-56.515
X73.66Y-59.055
X73.66Y-61.595
X73.66Y-64.135
X73.66Y-66.675
T0
M30
