G04 #@! TF.GenerationSoftware,KiCad,Pcbnew,(5.1.10)-1*
G04 #@! TF.CreationDate,2022-01-06T14:13:47-06:00*
G04 #@! TF.ProjectId,MIPI_SPY,4d495049-5f53-4505-992e-6b696361645f,rev?*
G04 #@! TF.SameCoordinates,Original*
G04 #@! TF.FileFunction,Soldermask,Top*
G04 #@! TF.FilePolarity,Negative*
%FSLAX46Y46*%
G04 Gerber Fmt 4.6, Leading zero omitted, Abs format (unit mm)*
G04 Created by KiCad (PCBNEW (5.1.10)-1) date 2022-01-06 14:13:47*
%MOMM*%
%LPD*%
G01*
G04 APERTURE LIST*
%ADD10R,3.600000X2.680000*%
%ADD11R,2.000000X0.610000*%
%ADD12R,1.700000X1.700000*%
%ADD13O,1.700000X1.700000*%
G04 APERTURE END LIST*
D10*
X58690000Y-59035001D03*
X58690000Y-39055001D03*
D11*
X61490000Y-56045001D03*
X61490000Y-55045001D03*
X61490000Y-54045001D03*
X61490000Y-53045001D03*
X61490000Y-52045001D03*
X61490000Y-51045001D03*
X61490000Y-50045001D03*
X61490000Y-49045001D03*
X61490000Y-48045001D03*
X61490000Y-47045001D03*
X61490000Y-46045001D03*
X61490000Y-45045001D03*
X61490000Y-44045001D03*
X61490000Y-43045001D03*
X61490000Y-42045001D03*
X86465000Y-56045001D03*
X86465000Y-55045001D03*
X86465000Y-54045001D03*
X86465000Y-53045001D03*
X86465000Y-52045001D03*
X86465000Y-51045001D03*
X86465000Y-50045001D03*
X86465000Y-49045001D03*
X86465000Y-48045001D03*
X86465000Y-47045001D03*
X86465000Y-46045001D03*
X86465000Y-45045001D03*
X86465000Y-44045001D03*
X86465000Y-43045001D03*
X86465000Y-42045001D03*
D10*
X89265000Y-59035001D03*
X89265000Y-39055001D03*
D12*
X73660000Y-31115000D03*
D13*
X73660000Y-33655000D03*
X73660000Y-36195000D03*
X73660000Y-38735000D03*
X73660000Y-41275000D03*
X73660000Y-43815000D03*
X73660000Y-46355000D03*
X73660000Y-48895000D03*
X73660000Y-51435000D03*
X73660000Y-53975000D03*
X73660000Y-56515000D03*
X73660000Y-59055000D03*
X73660000Y-61595000D03*
X73660000Y-64135000D03*
X73660000Y-66675000D03*
M02*
