G04 #@! TF.GenerationSoftware,KiCad,Pcbnew,(5.1.10)-1*
G04 #@! TF.CreationDate,2022-01-06T14:13:47-06:00*
G04 #@! TF.ProjectId,MIPI_SPY,4d495049-5f53-4505-992e-6b696361645f,rev?*
G04 #@! TF.SameCoordinates,Original*
G04 #@! TF.FileFunction,Copper,L1,Top*
G04 #@! TF.FilePolarity,Positive*
%FSLAX46Y46*%
G04 Gerber Fmt 4.6, Leading zero omitted, Abs format (unit mm)*
G04 Created by KiCad (PCBNEW (5.1.10)-1) date 2022-01-06 14:13:47*
%MOMM*%
%LPD*%
G01*
G04 APERTURE LIST*
G04 #@! TA.AperFunction,SMDPad,CuDef*
%ADD10R,3.600000X2.680000*%
G04 #@! TD*
G04 #@! TA.AperFunction,SMDPad,CuDef*
%ADD11R,2.000000X0.610000*%
G04 #@! TD*
G04 #@! TA.AperFunction,ComponentPad*
%ADD12R,1.700000X1.700000*%
G04 #@! TD*
G04 #@! TA.AperFunction,ComponentPad*
%ADD13O,1.700000X1.700000*%
G04 #@! TD*
G04 #@! TA.AperFunction,ViaPad*
%ADD14C,0.800000*%
G04 #@! TD*
G04 #@! TA.AperFunction,Conductor*
%ADD15C,0.250000*%
G04 #@! TD*
G04 #@! TA.AperFunction,Conductor*
%ADD16C,0.200000*%
G04 #@! TD*
G04 APERTURE END LIST*
D10*
X58690000Y-59035001D03*
X58690000Y-39055001D03*
D11*
X61490000Y-56045001D03*
X61490000Y-55045001D03*
X61490000Y-54045001D03*
X61490000Y-53045001D03*
X61490000Y-52045001D03*
X61490000Y-51045001D03*
X61490000Y-50045001D03*
X61490000Y-49045001D03*
X61490000Y-48045001D03*
X61490000Y-47045001D03*
X61490000Y-46045001D03*
X61490000Y-45045001D03*
X61490000Y-44045001D03*
X61490000Y-43045001D03*
X61490000Y-42045001D03*
X86465000Y-56045001D03*
X86465000Y-55045001D03*
X86465000Y-54045001D03*
X86465000Y-53045001D03*
X86465000Y-52045001D03*
X86465000Y-51045001D03*
X86465000Y-50045001D03*
X86465000Y-49045001D03*
X86465000Y-48045001D03*
X86465000Y-47045001D03*
X86465000Y-46045001D03*
X86465000Y-45045001D03*
X86465000Y-44045001D03*
X86465000Y-43045001D03*
X86465000Y-42045001D03*
D10*
X89265000Y-59035001D03*
X89265000Y-39055001D03*
D12*
X73660000Y-31115000D03*
D13*
X73660000Y-33655000D03*
X73660000Y-36195000D03*
X73660000Y-38735000D03*
X73660000Y-41275000D03*
X73660000Y-43815000D03*
X73660000Y-46355000D03*
X73660000Y-48895000D03*
X73660000Y-51435000D03*
X73660000Y-53975000D03*
X73660000Y-56515000D03*
X73660000Y-59055000D03*
X73660000Y-61595000D03*
X73660000Y-64135000D03*
X73660000Y-66675000D03*
D14*
X62817348Y-46942348D03*
X85090000Y-56515000D03*
X85090000Y-56515000D03*
X85054635Y-53302277D03*
X85090000Y-50165000D03*
X85192653Y-46887347D03*
X62745001Y-50045001D03*
X63205001Y-53045001D03*
X62865000Y-56515000D03*
D15*
X61490000Y-47045001D02*
X62809999Y-47045001D01*
X62817348Y-47037652D02*
X62817348Y-46942348D01*
X62809999Y-47045001D02*
X62817348Y-47037652D01*
X85559999Y-56045001D02*
X85090000Y-56515000D01*
X86465000Y-56045001D02*
X85559999Y-56045001D01*
X85311911Y-53045001D02*
X85054635Y-53302277D01*
X86465000Y-53045001D02*
X85311911Y-53045001D01*
X86465000Y-50045001D02*
X85209999Y-50045001D01*
X85209999Y-50045001D02*
X85090000Y-50165000D01*
X85350307Y-47045001D02*
X85192653Y-46887347D01*
X86465000Y-47045001D02*
X85350307Y-47045001D01*
X61490000Y-50045001D02*
X62745001Y-50045001D01*
X63205001Y-53045001D02*
X61490000Y-53045001D01*
X62395001Y-56045001D02*
X61490000Y-56045001D01*
X62865000Y-56515000D02*
X62395001Y-56045001D01*
D16*
X71607903Y-62082903D02*
X73660000Y-64135000D01*
X64415001Y-54890001D02*
X71607903Y-62082903D01*
X62990001Y-55045001D02*
X63145001Y-54890001D01*
X63145001Y-54890001D02*
X64415001Y-54890001D01*
X61490000Y-55045001D02*
X62990001Y-55045001D01*
X84964999Y-55045001D02*
X86465000Y-55045001D01*
X84809999Y-54890001D02*
X84964999Y-55045001D01*
X73660000Y-64135000D02*
X82904999Y-54890001D01*
X82904999Y-54890001D02*
X84809999Y-54890001D01*
X62990001Y-52045001D02*
X61490000Y-52045001D01*
X63145001Y-51890001D02*
X62990001Y-52045001D01*
X66647242Y-51890001D02*
X63145001Y-51890001D01*
X66831055Y-51869290D02*
X66647242Y-51890001D01*
X67005651Y-51808196D02*
X66831055Y-51869290D01*
X67293073Y-51578985D02*
X67162275Y-51709783D01*
X67391486Y-51422361D02*
X67293073Y-51578985D01*
X67452580Y-51247765D02*
X67391486Y-51422361D01*
X67473291Y-51063952D02*
X67452580Y-51247765D01*
X67473291Y-50668292D02*
X67473291Y-51063952D01*
X67477972Y-50626745D02*
X67473291Y-50668292D01*
X67491780Y-50587282D02*
X67477972Y-50626745D01*
X67514024Y-50551881D02*
X67491780Y-50587282D01*
X67543588Y-50522317D02*
X67514024Y-50551881D01*
X67878609Y-50626745D02*
X67864801Y-50587282D01*
X67965095Y-51422361D02*
X67904001Y-51247765D01*
X67162275Y-51709783D02*
X67005651Y-51808196D01*
X67578989Y-50500073D02*
X67543588Y-50522317D01*
X67738129Y-50486265D02*
X67696583Y-50481584D01*
X67696583Y-50481584D02*
X67659999Y-50481584D01*
X73660000Y-56515000D02*
X69035001Y-51890001D01*
X69035001Y-51890001D02*
X68709339Y-51890001D01*
X68709339Y-51890001D02*
X68525526Y-51869290D01*
X68525526Y-51869290D02*
X68350930Y-51808196D01*
X68350930Y-51808196D02*
X68194306Y-51709783D01*
X68194306Y-51709783D02*
X68063508Y-51578985D01*
X68063508Y-51578985D02*
X67965095Y-51422361D01*
X67904001Y-51247765D02*
X67883291Y-51063952D01*
X67883291Y-51063952D02*
X67883291Y-50668292D01*
X67883291Y-50668292D02*
X67878609Y-50626745D01*
X67618452Y-50486265D02*
X67578989Y-50500073D01*
X67864801Y-50587282D02*
X67842557Y-50551881D01*
X67842557Y-50551881D02*
X67812993Y-50522317D01*
X67812993Y-50522317D02*
X67777592Y-50500073D01*
X67777592Y-50500073D02*
X67738129Y-50486265D01*
X67659999Y-50481584D02*
X67618452Y-50486265D01*
X82909999Y-51890001D02*
X78284999Y-51890001D01*
X82909999Y-52265388D02*
X82909999Y-51890001D01*
X82959066Y-52480366D02*
X82922421Y-52375642D01*
X83018095Y-52574311D02*
X82959066Y-52480366D01*
X83190494Y-52711794D02*
X83096549Y-52652765D01*
X82922421Y-52375642D02*
X82909999Y-52265388D01*
X83295218Y-52748439D02*
X83190494Y-52711794D01*
X83405472Y-52760861D02*
X83295218Y-52748439D01*
X84194525Y-52760861D02*
X83405472Y-52760861D01*
X84304779Y-52748439D02*
X84194525Y-52760861D01*
X84409503Y-52711794D02*
X84304779Y-52748439D01*
X84503448Y-52652765D02*
X84409503Y-52711794D01*
X75712097Y-54462903D02*
X73660000Y-56515000D01*
X84581902Y-52574311D02*
X84503448Y-52652765D01*
X84640931Y-52480366D02*
X84581902Y-52574311D01*
X78284999Y-51890001D02*
X75712097Y-54462903D01*
X86465000Y-52045001D02*
X84964999Y-52045001D01*
X84809999Y-51890001D02*
X84689999Y-51890001D01*
X83096549Y-52652765D02*
X83018095Y-52574311D01*
X84689999Y-52265388D02*
X84677576Y-52375642D01*
X84964999Y-52045001D02*
X84809999Y-51890001D01*
X84689999Y-51890001D02*
X84689999Y-52265388D01*
X84677576Y-52375642D02*
X84640931Y-52480366D01*
X62541641Y-51045001D02*
X61490000Y-51045001D01*
X62990001Y-51045001D02*
X62541641Y-51045001D01*
X63145001Y-51200001D02*
X62990001Y-51045001D01*
X63970001Y-51200001D02*
X63145001Y-51200001D01*
X64100166Y-51170291D02*
X64036757Y-51192479D01*
X64157047Y-51134550D02*
X64100166Y-51170291D01*
X64240291Y-51030166D02*
X64204550Y-51087047D01*
X64270001Y-50900001D02*
X64262479Y-50966757D01*
X66783291Y-51013293D02*
X66778609Y-51054839D01*
X66783290Y-50617632D02*
X66783291Y-50668292D01*
X67094306Y-49971801D02*
X66963508Y-50102599D01*
X67250930Y-49873388D02*
X67094306Y-49971801D01*
X67425526Y-49812294D02*
X67250930Y-49873388D01*
X73660000Y-53975000D02*
X72095808Y-53975000D01*
X67931055Y-49812294D02*
X67747242Y-49791584D01*
X64036757Y-51192479D02*
X63970001Y-51200001D01*
X68718452Y-51195319D02*
X68678989Y-51181511D01*
X68105651Y-49873388D02*
X67931055Y-49812294D01*
X66804001Y-50433819D02*
X66783290Y-50617632D01*
X68262275Y-49971801D02*
X68105651Y-49873388D01*
X66783291Y-50668292D02*
X66783291Y-51013293D01*
X68491486Y-50259223D02*
X68393073Y-50102599D01*
X68573291Y-51013293D02*
X68573291Y-50617632D01*
X64262479Y-50966757D02*
X64240291Y-51030166D01*
X72095808Y-53975000D02*
X69320809Y-51200001D01*
X64382954Y-50622795D02*
X64335451Y-50670298D01*
X66963508Y-50102599D02*
X66865095Y-50259223D01*
X68552580Y-50433819D02*
X68491486Y-50259223D01*
X66865095Y-50259223D02*
X66804001Y-50433819D01*
X66596583Y-51200001D02*
X65170001Y-51200001D01*
X68393073Y-50102599D02*
X68262275Y-49971801D01*
X64840291Y-50727179D02*
X64804550Y-50670298D01*
X67609339Y-49791584D02*
X67425526Y-49812294D01*
X68614024Y-51129703D02*
X68591780Y-51094302D01*
X64570001Y-50557345D02*
X64503244Y-50564866D01*
X68573291Y-50617632D02*
X68552580Y-50433819D01*
X67747242Y-49791584D02*
X67609339Y-49791584D01*
X68643588Y-51159267D02*
X68614024Y-51129703D01*
X64899710Y-51030166D02*
X64877522Y-50966757D01*
X64204550Y-51087047D02*
X64157047Y-51134550D01*
X68591780Y-51094302D02*
X68577972Y-51054839D01*
X66778609Y-51054839D02*
X66764801Y-51094302D01*
X66764801Y-51094302D02*
X66742557Y-51129703D01*
X66742557Y-51129703D02*
X66712993Y-51159267D01*
X66712993Y-51159267D02*
X66677592Y-51181511D01*
X66677592Y-51181511D02*
X66638129Y-51195319D01*
X66638129Y-51195319D02*
X66596583Y-51200001D01*
X65170001Y-51200001D02*
X65103244Y-51192479D01*
X68577972Y-51054839D02*
X68573291Y-51013293D01*
X65103244Y-51192479D02*
X65039835Y-51170291D01*
X68759999Y-51200001D02*
X68718452Y-51195319D01*
X65039835Y-51170291D02*
X64982954Y-51134550D01*
X64982954Y-51134550D02*
X64935451Y-51087047D01*
X64935451Y-51087047D02*
X64899710Y-51030166D01*
X64877522Y-50966757D02*
X64870001Y-50900001D01*
X64870001Y-50900001D02*
X64870001Y-50857345D01*
X64870001Y-50857345D02*
X64862479Y-50790588D01*
X64862479Y-50790588D02*
X64840291Y-50727179D01*
X64804550Y-50670298D02*
X64757047Y-50622795D01*
X64757047Y-50622795D02*
X64700166Y-50587054D01*
X64700166Y-50587054D02*
X64636757Y-50564866D01*
X64636757Y-50564866D02*
X64570001Y-50557345D01*
X64503244Y-50564866D02*
X64439835Y-50587054D01*
X64439835Y-50587054D02*
X64382954Y-50622795D01*
X69320809Y-51200001D02*
X68759999Y-51200001D01*
X64335451Y-50670298D02*
X64299710Y-50727179D01*
X68678989Y-51181511D02*
X68643588Y-51159267D01*
X64299710Y-50727179D02*
X64277522Y-50790588D01*
X64277522Y-50790588D02*
X64270001Y-50857345D01*
X64270001Y-50857345D02*
X64270001Y-50900001D01*
X75224192Y-53975000D02*
X73660000Y-53975000D01*
X77999191Y-51200001D02*
X75224192Y-53975000D01*
X79975166Y-51170291D02*
X79911757Y-51192479D01*
X80032047Y-51134550D02*
X79975166Y-51170291D01*
X80115291Y-51030166D02*
X80079550Y-51087047D01*
X80137479Y-50966757D02*
X80115291Y-51030166D01*
X80145001Y-50900001D02*
X80137479Y-50966757D01*
X80152522Y-50790588D02*
X80145001Y-50857345D01*
X80174710Y-50727179D02*
X80152522Y-50790588D01*
X80210451Y-50670298D02*
X80174710Y-50727179D01*
X80257954Y-50622795D02*
X80210451Y-50670298D01*
X80314835Y-50587054D02*
X80257954Y-50622795D01*
X80378244Y-50564866D02*
X80314835Y-50587054D01*
X80575166Y-50587054D02*
X80511757Y-50564866D01*
X80632047Y-50622795D02*
X80575166Y-50587054D01*
X80679550Y-50670298D02*
X80632047Y-50622795D01*
X80715291Y-50727179D02*
X80679550Y-50670298D01*
X80737479Y-50790588D02*
X80715291Y-50727179D01*
X80745001Y-50857345D02*
X80737479Y-50790588D01*
X84164140Y-51695475D02*
X84164140Y-52070861D01*
X84176562Y-51585221D02*
X84164140Y-51695475D01*
X84213207Y-51480497D02*
X84176562Y-51585221D01*
X84350690Y-51308098D02*
X84272236Y-51386552D01*
X79845001Y-51200001D02*
X77999191Y-51200001D01*
X84549359Y-51212424D02*
X84444635Y-51249069D01*
X83435858Y-52070861D02*
X83435858Y-51695475D01*
X84659613Y-51200001D02*
X84549359Y-51212424D01*
X84164140Y-52070861D02*
X83435858Y-52070861D01*
X84444635Y-51249069D02*
X84350690Y-51308098D01*
X80445001Y-50557345D02*
X80378244Y-50564866D01*
X86465000Y-51045001D02*
X84964999Y-51045001D01*
X80145001Y-50857345D02*
X80145001Y-50900001D01*
X84809999Y-51200001D02*
X84659613Y-51200001D01*
X79911757Y-51192479D02*
X79845001Y-51200001D01*
X84964999Y-51045001D02*
X84809999Y-51200001D01*
X84272236Y-51386552D02*
X84213207Y-51480497D01*
X83435858Y-51695475D02*
X83423435Y-51585221D01*
X83386790Y-51480497D02*
X83327761Y-51386552D01*
X83327761Y-51386552D02*
X83249307Y-51308098D01*
X83249307Y-51308098D02*
X83155362Y-51249069D01*
X83423435Y-51585221D02*
X83386790Y-51480497D01*
X83155362Y-51249069D02*
X83050638Y-51212424D01*
X83050638Y-51212424D02*
X82940384Y-51200001D01*
X80079550Y-51087047D02*
X80032047Y-51134550D01*
X82940384Y-51200001D02*
X81045001Y-51200001D01*
X80810451Y-51087047D02*
X80774710Y-51030166D01*
X80511757Y-50564866D02*
X80445001Y-50557345D01*
X81045001Y-51200001D02*
X80978244Y-51192479D01*
X80978244Y-51192479D02*
X80914835Y-51170291D01*
X80857954Y-51134550D02*
X80810451Y-51087047D01*
X80914835Y-51170291D02*
X80857954Y-51134550D01*
X80774710Y-51030166D02*
X80752522Y-50966757D01*
X80752522Y-50966757D02*
X80745001Y-50900001D01*
X80745001Y-50900001D02*
X80745001Y-50857345D01*
X74585000Y-47970000D02*
X73660000Y-48895000D01*
X79390000Y-47970000D02*
X74585000Y-47970000D01*
X79434504Y-47975015D02*
X79390000Y-47970000D01*
X79476776Y-47989807D02*
X79434504Y-47975015D01*
X79514697Y-48013634D02*
X79476776Y-47989807D01*
X79546366Y-48045303D02*
X79514697Y-48013634D01*
X79570193Y-48083224D02*
X79546366Y-48045303D01*
X79584985Y-48125496D02*
X79570193Y-48083224D01*
X79590000Y-48170000D02*
X79584985Y-48125496D01*
X79590000Y-48613903D02*
X79590000Y-48170000D01*
X79611024Y-48800503D02*
X79590000Y-48613903D01*
X79673044Y-48977746D02*
X79611024Y-48800503D01*
X79772950Y-49136744D02*
X79673044Y-48977746D01*
X79905731Y-49269525D02*
X79772950Y-49136744D01*
X80064729Y-49369431D02*
X79905731Y-49269525D01*
X80241972Y-49431451D02*
X80064729Y-49369431D01*
X80428572Y-49452475D02*
X80241972Y-49431451D01*
X80895270Y-49369431D02*
X80718027Y-49431451D01*
X81772096Y-47970000D02*
X81570000Y-47970000D01*
X81483223Y-47989807D02*
X81445302Y-48013634D01*
X81375014Y-48125496D02*
X81370000Y-48170000D01*
X81370000Y-48170000D02*
X81370000Y-48613903D01*
X86465000Y-49045001D02*
X84964999Y-49045001D01*
X84964999Y-49045001D02*
X84809999Y-48890001D01*
X80531427Y-49452475D02*
X80428572Y-49452475D01*
X84809999Y-48890001D02*
X82692097Y-48890001D01*
X82692097Y-48890001D02*
X81772096Y-47970000D01*
X81570000Y-47970000D02*
X81525495Y-47975015D01*
X81389806Y-48083224D02*
X81375014Y-48125496D01*
X81525495Y-47975015D02*
X81483223Y-47989807D01*
X81187049Y-49136744D02*
X81054268Y-49269525D01*
X81445302Y-48013634D02*
X81413633Y-48045303D01*
X81413633Y-48045303D02*
X81389806Y-48083224D01*
X81370000Y-48613903D02*
X81348975Y-48800503D01*
X81348975Y-48800503D02*
X81286955Y-48977746D01*
X81286955Y-48977746D02*
X81187049Y-49136744D01*
X81054268Y-49269525D02*
X80895270Y-49369431D01*
X80718027Y-49431451D02*
X80531427Y-49452475D01*
X72735000Y-47970000D02*
X73660000Y-48895000D01*
X70735000Y-47970000D02*
X72735000Y-47970000D01*
X70672694Y-47977020D02*
X70735000Y-47970000D01*
X70613512Y-47997728D02*
X70672694Y-47977020D01*
X70560422Y-48031087D02*
X70613512Y-47997728D01*
X70516087Y-48075422D02*
X70560422Y-48031087D01*
X70482728Y-48128512D02*
X70516087Y-48075422D01*
X70462020Y-48187694D02*
X70482728Y-48128512D01*
X70455000Y-48250000D02*
X70462020Y-48187694D01*
X70455000Y-49103224D02*
X70455000Y-48250000D01*
X70432085Y-49306597D02*
X70455000Y-49103224D01*
X70364490Y-49499772D02*
X70432085Y-49306597D01*
X70255604Y-49673063D02*
X70364490Y-49499772D01*
X70110888Y-49817779D02*
X70255604Y-49673063D01*
X69937597Y-49926665D02*
X70110888Y-49817779D01*
X69744422Y-49994260D02*
X69937597Y-49926665D01*
X68714395Y-49673063D02*
X68859111Y-49817779D01*
X63992903Y-48890001D02*
X64912904Y-47970000D01*
X69225577Y-49994260D02*
X69428950Y-50017175D01*
X68515000Y-49103224D02*
X68537914Y-49306597D01*
X61490000Y-49045001D02*
X62990001Y-49045001D01*
X62990001Y-49045001D02*
X63145001Y-48890001D01*
X63145001Y-48890001D02*
X63992903Y-48890001D01*
X64912904Y-47970000D02*
X68235000Y-47970000D01*
X68235000Y-47970000D02*
X68297305Y-47977020D01*
X68297305Y-47977020D02*
X68356487Y-47997728D01*
X68356487Y-47997728D02*
X68409577Y-48031087D01*
X68409577Y-48031087D02*
X68453912Y-48075422D01*
X68453912Y-48075422D02*
X68487271Y-48128512D01*
X68487271Y-48128512D02*
X68507979Y-48187694D01*
X68507979Y-48187694D02*
X68515000Y-48250000D01*
X68515000Y-48250000D02*
X68515000Y-49103224D01*
X68537914Y-49306597D02*
X68605509Y-49499772D01*
X68605509Y-49499772D02*
X68714395Y-49673063D01*
X68859111Y-49817779D02*
X69032402Y-49926665D01*
X69032402Y-49926665D02*
X69225577Y-49994260D01*
X69428950Y-50017175D02*
X69541049Y-50017175D01*
X69541049Y-50017175D02*
X69744422Y-49994260D01*
X80280000Y-48118573D02*
X80258975Y-47931973D01*
X84809999Y-48200001D02*
X82977905Y-48200001D01*
X80299806Y-48649252D02*
X80285014Y-48606980D01*
X80323633Y-48687173D02*
X80299806Y-48649252D01*
X80355302Y-48718842D02*
X80323633Y-48687173D01*
X80524504Y-48757461D02*
X80480000Y-48762475D01*
X80604697Y-48718842D02*
X80566776Y-48742669D01*
X81154729Y-47363045D02*
X80995731Y-47462951D01*
X80636366Y-48687173D02*
X80604697Y-48718842D01*
X80660193Y-48649252D02*
X80636366Y-48687173D01*
X80674985Y-48606980D02*
X80660193Y-48649252D01*
X80680000Y-48562475D02*
X80674985Y-48606980D01*
X84964999Y-48045001D02*
X84809999Y-48200001D01*
X80393223Y-48742669D02*
X80355302Y-48718842D01*
X80285014Y-48606980D02*
X80280000Y-48562475D01*
X80435495Y-48757461D02*
X80393223Y-48742669D01*
X82057904Y-47280000D02*
X81518572Y-47280000D01*
X80280000Y-48562475D02*
X80280000Y-48118573D01*
X80763044Y-47754730D02*
X80701024Y-47931973D01*
X82977905Y-48200001D02*
X82057904Y-47280000D01*
X80480000Y-48762475D02*
X80435495Y-48757461D01*
X81518572Y-47280000D02*
X81331972Y-47301025D01*
X81331972Y-47301025D02*
X81154729Y-47363045D01*
X80701024Y-47931973D02*
X80680000Y-48118573D01*
X80680000Y-48118573D02*
X80680000Y-48562475D01*
X80566776Y-48742669D02*
X80524504Y-48757461D01*
X86465000Y-48045001D02*
X84964999Y-48045001D01*
X80196955Y-47754730D02*
X80097049Y-47595732D01*
X80862950Y-47595732D02*
X80763044Y-47754730D01*
X80258975Y-47931973D02*
X80196955Y-47754730D01*
X80097049Y-47595732D02*
X79964268Y-47462951D01*
X79964268Y-47462951D02*
X79805270Y-47363045D01*
X79805270Y-47363045D02*
X79628027Y-47301025D01*
X79628027Y-47301025D02*
X79441427Y-47280000D01*
X79441427Y-47280000D02*
X74585000Y-47280000D01*
X74585000Y-47280000D02*
X73660000Y-46355000D01*
X80995731Y-47462951D02*
X80862950Y-47595732D01*
X72735000Y-47280000D02*
X73660000Y-46355000D01*
X70678950Y-47280000D02*
X72735000Y-47280000D01*
X70475577Y-47302914D02*
X70678950Y-47280000D01*
X70282402Y-47370509D02*
X70475577Y-47302914D01*
X70109111Y-47479395D02*
X70282402Y-47370509D01*
X69964395Y-47624111D02*
X70109111Y-47479395D01*
X69855509Y-47797402D02*
X69964395Y-47624111D01*
X69787914Y-47990577D02*
X69855509Y-47797402D01*
X69205000Y-48193950D02*
X69205000Y-49047175D01*
X68494422Y-47302914D02*
X68687597Y-47370509D01*
X68860888Y-47479395D02*
X69005604Y-47624111D01*
X69232728Y-49168662D02*
X69266087Y-49221752D01*
X69005604Y-47624111D02*
X69114490Y-47797402D01*
X69765000Y-49047175D02*
X69765000Y-48193950D01*
X68687597Y-47370509D02*
X68860888Y-47479395D01*
X69114490Y-47797402D02*
X69182085Y-47990577D01*
X69182085Y-47990577D02*
X69205000Y-48193950D01*
X68291049Y-47280000D02*
X68494422Y-47302914D01*
X69757979Y-49109480D02*
X69765000Y-49047175D01*
X64627096Y-47280000D02*
X68291049Y-47280000D01*
X63707095Y-48200001D02*
X64627096Y-47280000D01*
X63145001Y-48200001D02*
X63707095Y-48200001D01*
X69703912Y-49221752D02*
X69737271Y-49168662D01*
X62990001Y-48045001D02*
X63145001Y-48200001D01*
X69659577Y-49266087D02*
X69703912Y-49221752D01*
X61490000Y-48045001D02*
X62990001Y-48045001D01*
X69205000Y-49047175D02*
X69212020Y-49109480D01*
X69212020Y-49109480D02*
X69232728Y-49168662D01*
X69266087Y-49221752D02*
X69310422Y-49266087D01*
X69310422Y-49266087D02*
X69363512Y-49299446D01*
X69363512Y-49299446D02*
X69422694Y-49320154D01*
X69737271Y-49168662D02*
X69757979Y-49109480D01*
X69422694Y-49320154D02*
X69485000Y-49327175D01*
X69485000Y-49327175D02*
X69547305Y-49320154D01*
X69547305Y-49320154D02*
X69606487Y-49299446D01*
X69606487Y-49299446D02*
X69659577Y-49266087D01*
X69765000Y-48193950D02*
X69787914Y-47990577D01*
D15*
X78430001Y-46045001D02*
X73660000Y-41275000D01*
X86465000Y-46045001D02*
X78430001Y-46045001D01*
X69439989Y-45495011D02*
X73660000Y-41275000D01*
X68889999Y-46045001D02*
X69439989Y-45495011D01*
X61490000Y-46045001D02*
X68889999Y-46045001D01*
X79970001Y-45045001D02*
X73660000Y-38735000D01*
X86465000Y-45045001D02*
X79970001Y-45045001D01*
X67349999Y-45045001D02*
X73660000Y-38735000D01*
X61490000Y-45045001D02*
X67349999Y-45045001D01*
X74469998Y-36195000D02*
X73660000Y-36195000D01*
X82319999Y-44045001D02*
X74469998Y-36195000D01*
X86465000Y-44045001D02*
X82319999Y-44045001D01*
X61490000Y-44045001D02*
X65174999Y-44045001D01*
X73025000Y-36195000D02*
X73660000Y-36195000D01*
X65174999Y-44045001D02*
X73025000Y-36195000D01*
X72130001Y-33655000D02*
X73660000Y-33655000D01*
X62740000Y-43045001D02*
X72130001Y-33655000D01*
X61490000Y-43045001D02*
X62740000Y-43045001D01*
X74930000Y-33655000D02*
X84455000Y-43180000D01*
X73660000Y-33655000D02*
X74930000Y-33655000D01*
X86330001Y-43180000D02*
X86465000Y-43045001D01*
X84455000Y-43180000D02*
X86330001Y-43180000D01*
X84590001Y-42045001D02*
X73660000Y-31115000D01*
X86465000Y-42045001D02*
X84590001Y-42045001D01*
X72420001Y-31115000D02*
X73660000Y-31115000D01*
X61490000Y-42045001D02*
X72420001Y-31115000D01*
D16*
X62990001Y-54045001D02*
X61490000Y-54045001D01*
X63145001Y-54200001D02*
X62990001Y-54045001D01*
X68906896Y-58395451D02*
X68854375Y-58353567D01*
X68967422Y-58424599D02*
X68906896Y-58395451D01*
X69032917Y-58439548D02*
X68967422Y-58424599D01*
X69804096Y-58436455D02*
X69774948Y-58375929D01*
X69702904Y-58777831D02*
X69733063Y-58747671D01*
X69774948Y-58375929D02*
X69733063Y-58323407D01*
X69631871Y-58890880D02*
X69661018Y-58830354D01*
X69733063Y-58747671D02*
X69774948Y-58695149D01*
X64700809Y-54200001D02*
X63145001Y-54200001D01*
X69774948Y-58695149D02*
X69804096Y-58634623D01*
X69616922Y-58956374D02*
X69631871Y-58890880D01*
X69616922Y-59023553D02*
X69616922Y-58956374D01*
X69661018Y-58830354D02*
X69702904Y-58777831D01*
X69804096Y-58634623D02*
X69819045Y-58569128D01*
X69631871Y-59089047D02*
X69616922Y-59023553D01*
X68854375Y-58353567D02*
X64700809Y-54200001D01*
X69165590Y-58424599D02*
X69100095Y-58439548D01*
X69661018Y-59149573D02*
X69631871Y-59089047D01*
X69421847Y-58252374D02*
X69361321Y-58281521D01*
X69702904Y-59202096D02*
X69661018Y-59149573D01*
X72095808Y-61595000D02*
X69702904Y-59202096D01*
X69100095Y-58439548D02*
X69032917Y-58439548D01*
X73660000Y-61595000D02*
X72095808Y-61595000D01*
X69819045Y-58569128D02*
X69819045Y-58501950D01*
X69819045Y-58501950D02*
X69804096Y-58436455D01*
X69733063Y-58323407D02*
X69680540Y-58281521D01*
X69680540Y-58281521D02*
X69620014Y-58252374D01*
X69620014Y-58252374D02*
X69554520Y-58237425D01*
X69554520Y-58237425D02*
X69487341Y-58237425D01*
X69487341Y-58237425D02*
X69421847Y-58252374D01*
X69361321Y-58281521D02*
X69308798Y-58323407D01*
X69308798Y-58323407D02*
X69278638Y-58353566D01*
X69278638Y-58353566D02*
X69226116Y-58395451D01*
X69226116Y-58395451D02*
X69165590Y-58424599D01*
X74384567Y-61595000D02*
X73660000Y-61595000D01*
X75224192Y-61595000D02*
X74384567Y-61595000D01*
X77127952Y-59680601D02*
X77086067Y-59733124D01*
X77157099Y-59620075D02*
X77127952Y-59680601D01*
X77172048Y-59487402D02*
X77172048Y-59554581D01*
X77480172Y-58854437D02*
X77427649Y-58812551D01*
X77562854Y-58926481D02*
X77510331Y-58884596D01*
X77756053Y-58970577D02*
X77688874Y-58970577D01*
X77055908Y-59278701D02*
X77086066Y-59308859D01*
X77821547Y-58955628D02*
X77756053Y-58970577D01*
X77623380Y-58955628D02*
X77562854Y-58926481D01*
X84964999Y-54045001D02*
X84809999Y-54200001D01*
X77127952Y-59361382D02*
X77157099Y-59421908D01*
X77934596Y-58884596D02*
X77882073Y-58926481D01*
X77086067Y-59733124D02*
X75224192Y-61595000D01*
X82619191Y-54200001D02*
X77934596Y-58884596D01*
X76984875Y-59165652D02*
X77014022Y-59226178D01*
X77108430Y-58812551D02*
X77055908Y-58854437D01*
X77882073Y-58926481D02*
X77821547Y-58955628D01*
X77014022Y-59226178D02*
X77055908Y-59278701D01*
X77172048Y-59554581D02*
X77157099Y-59620075D01*
X84809999Y-54200001D02*
X82619191Y-54200001D01*
X77688874Y-58970577D02*
X77623380Y-58955628D01*
X77427649Y-58812551D02*
X77367123Y-58783404D01*
X86465000Y-54045001D02*
X84964999Y-54045001D01*
X77234450Y-58768455D02*
X77168956Y-58783404D01*
X77014022Y-58906959D02*
X76984875Y-58967485D01*
X77301629Y-58768455D02*
X77234450Y-58768455D01*
X77168956Y-58783404D02*
X77108430Y-58812551D01*
X77157099Y-59421908D02*
X77172048Y-59487402D01*
X77055908Y-58854437D02*
X77014022Y-58906959D01*
X76984875Y-58967485D02*
X76969926Y-59032979D01*
X76969926Y-59032979D02*
X76969926Y-59100158D01*
X77367123Y-58783404D02*
X77301629Y-58768455D01*
X76969926Y-59100158D02*
X76984875Y-59165652D01*
X77510331Y-58884596D02*
X77480172Y-58854437D01*
X77086066Y-59308859D02*
X77127952Y-59361382D01*
M02*
