G04 #@! TF.GenerationSoftware,KiCad,Pcbnew,(5.1.10)-1*
G04 #@! TF.CreationDate,2022-01-06T14:13:47-06:00*
G04 #@! TF.ProjectId,MIPI_SPY,4d495049-5f53-4505-992e-6b696361645f,rev?*
G04 #@! TF.SameCoordinates,Original*
G04 #@! TF.FileFunction,Legend,Top*
G04 #@! TF.FilePolarity,Positive*
%FSLAX46Y46*%
G04 Gerber Fmt 4.6, Leading zero omitted, Abs format (unit mm)*
G04 Created by KiCad (PCBNEW (5.1.10)-1) date 2022-01-06 14:13:47*
%MOMM*%
%LPD*%
G01*
G04 APERTURE LIST*
%ADD10C,0.150000*%
%ADD11C,0.010000*%
%ADD12C,0.120000*%
%ADD13R,3.600000X2.680000*%
%ADD14R,2.000000X0.610000*%
%ADD15R,1.700000X1.700000*%
%ADD16O,1.700000X1.700000*%
G04 APERTURE END LIST*
D10*
X82637619Y-64857380D02*
X82637619Y-65571666D01*
X82590000Y-65714523D01*
X82494761Y-65809761D01*
X82351904Y-65857380D01*
X82256666Y-65857380D01*
X83494761Y-65809761D02*
X83399523Y-65857380D01*
X83209047Y-65857380D01*
X83113809Y-65809761D01*
X83066190Y-65714523D01*
X83066190Y-65333571D01*
X83113809Y-65238333D01*
X83209047Y-65190714D01*
X83399523Y-65190714D01*
X83494761Y-65238333D01*
X83542380Y-65333571D01*
X83542380Y-65428809D01*
X83066190Y-65524047D01*
X83970952Y-65857380D02*
X83970952Y-65190714D01*
X83970952Y-65381190D02*
X84018571Y-65285952D01*
X84066190Y-65238333D01*
X84161428Y-65190714D01*
X84256666Y-65190714D01*
X85018571Y-65190714D02*
X85018571Y-66000238D01*
X84970952Y-66095476D01*
X84923333Y-66143095D01*
X84828095Y-66190714D01*
X84685238Y-66190714D01*
X84590000Y-66143095D01*
X85018571Y-65809761D02*
X84923333Y-65857380D01*
X84732857Y-65857380D01*
X84637619Y-65809761D01*
X84590000Y-65762142D01*
X84542380Y-65666904D01*
X84542380Y-65381190D01*
X84590000Y-65285952D01*
X84637619Y-65238333D01*
X84732857Y-65190714D01*
X84923333Y-65190714D01*
X85018571Y-65238333D01*
X85637619Y-65857380D02*
X85542380Y-65809761D01*
X85494761Y-65714523D01*
X85494761Y-64857380D01*
X86018571Y-65857380D02*
X86018571Y-65190714D01*
X86018571Y-64857380D02*
X85970952Y-64905000D01*
X86018571Y-64952619D01*
X86066190Y-64905000D01*
X86018571Y-64857380D01*
X86018571Y-64952619D01*
X86494761Y-65190714D02*
X86494761Y-65857380D01*
X86494761Y-65285952D02*
X86542380Y-65238333D01*
X86637619Y-65190714D01*
X86780476Y-65190714D01*
X86875714Y-65238333D01*
X86923333Y-65333571D01*
X86923333Y-65857380D01*
X87828095Y-65190714D02*
X87828095Y-66000238D01*
X87780476Y-66095476D01*
X87732857Y-66143095D01*
X87637619Y-66190714D01*
X87494761Y-66190714D01*
X87399523Y-66143095D01*
X87828095Y-65809761D02*
X87732857Y-65857380D01*
X87542380Y-65857380D01*
X87447142Y-65809761D01*
X87399523Y-65762142D01*
X87351904Y-65666904D01*
X87351904Y-65381190D01*
X87399523Y-65285952D01*
X87447142Y-65238333D01*
X87542380Y-65190714D01*
X87732857Y-65190714D01*
X87828095Y-65238333D01*
X82193571Y-63317380D02*
X82193571Y-62317380D01*
X82574523Y-62317380D01*
X82669761Y-62365000D01*
X82717380Y-62412619D01*
X82765000Y-62507857D01*
X82765000Y-62650714D01*
X82717380Y-62745952D01*
X82669761Y-62793571D01*
X82574523Y-62841190D01*
X82193571Y-62841190D01*
X83193571Y-63317380D02*
X83193571Y-62650714D01*
X83193571Y-62317380D02*
X83145952Y-62365000D01*
X83193571Y-62412619D01*
X83241190Y-62365000D01*
X83193571Y-62317380D01*
X83193571Y-62412619D01*
X84431666Y-63317380D02*
X84431666Y-62317380D01*
X84765000Y-63031666D01*
X85098333Y-62317380D01*
X85098333Y-63317380D01*
X85574523Y-63317380D02*
X85574523Y-62317380D01*
X86050714Y-63317380D02*
X86050714Y-62317380D01*
X86431666Y-62317380D01*
X86526904Y-62365000D01*
X86574523Y-62412619D01*
X86622142Y-62507857D01*
X86622142Y-62650714D01*
X86574523Y-62745952D01*
X86526904Y-62793571D01*
X86431666Y-62841190D01*
X86050714Y-62841190D01*
X87050714Y-63317380D02*
X87050714Y-62317380D01*
X88241190Y-63269761D02*
X88384047Y-63317380D01*
X88622142Y-63317380D01*
X88717380Y-63269761D01*
X88765000Y-63222142D01*
X88812619Y-63126904D01*
X88812619Y-63031666D01*
X88765000Y-62936428D01*
X88717380Y-62888809D01*
X88622142Y-62841190D01*
X88431666Y-62793571D01*
X88336428Y-62745952D01*
X88288809Y-62698333D01*
X88241190Y-62603095D01*
X88241190Y-62507857D01*
X88288809Y-62412619D01*
X88336428Y-62365000D01*
X88431666Y-62317380D01*
X88669761Y-62317380D01*
X88812619Y-62365000D01*
X89241190Y-62650714D02*
X89241190Y-63650714D01*
X89241190Y-62698333D02*
X89336428Y-62650714D01*
X89526904Y-62650714D01*
X89622142Y-62698333D01*
X89669761Y-62745952D01*
X89717380Y-62841190D01*
X89717380Y-63126904D01*
X89669761Y-63222142D01*
X89622142Y-63269761D01*
X89526904Y-63317380D01*
X89336428Y-63317380D01*
X89241190Y-63269761D01*
X90050714Y-62650714D02*
X90288809Y-63317380D01*
X90526904Y-62650714D02*
X90288809Y-63317380D01*
X90193571Y-63555476D01*
X90145952Y-63603095D01*
X90050714Y-63650714D01*
X91574523Y-62650714D02*
X91812619Y-63317380D01*
X92050714Y-62650714D01*
X92955476Y-63317380D02*
X92384047Y-63317380D01*
X92669761Y-63317380D02*
X92669761Y-62317380D01*
X92574523Y-62460238D01*
X92479285Y-62555476D01*
X92384047Y-62603095D01*
X93384047Y-63222142D02*
X93431666Y-63269761D01*
X93384047Y-63317380D01*
X93336428Y-63269761D01*
X93384047Y-63222142D01*
X93384047Y-63317380D01*
X94050714Y-62317380D02*
X94145952Y-62317380D01*
X94241190Y-62365000D01*
X94288809Y-62412619D01*
X94336428Y-62507857D01*
X94384047Y-62698333D01*
X94384047Y-62936428D01*
X94336428Y-63126904D01*
X94288809Y-63222142D01*
X94241190Y-63269761D01*
X94145952Y-63317380D01*
X94050714Y-63317380D01*
X93955476Y-63269761D01*
X93907857Y-63222142D01*
X93860238Y-63126904D01*
X93812619Y-62936428D01*
X93812619Y-62698333D01*
X93860238Y-62507857D01*
X93907857Y-62412619D01*
X93955476Y-62365000D01*
X94050714Y-62317380D01*
X65682857Y-43648571D02*
X65635238Y-43600952D01*
X65587619Y-43458095D01*
X65587619Y-43362857D01*
X65635238Y-43220000D01*
X65730476Y-43124761D01*
X65825714Y-43077142D01*
X66016190Y-43029523D01*
X66159047Y-43029523D01*
X66349523Y-43077142D01*
X66444761Y-43124761D01*
X66540000Y-43220000D01*
X66587619Y-43362857D01*
X66587619Y-43458095D01*
X66540000Y-43600952D01*
X66492380Y-43648571D01*
X65873333Y-44029523D02*
X65873333Y-44505714D01*
X65587619Y-43934285D02*
X66587619Y-44267619D01*
X65587619Y-44600952D01*
X65587619Y-44934285D02*
X66587619Y-44934285D01*
X65873333Y-45267619D01*
X66587619Y-45600952D01*
X65587619Y-45600952D01*
X66111428Y-46077142D02*
X66111428Y-46410476D01*
X65587619Y-46553333D02*
X65587619Y-46077142D01*
X66587619Y-46077142D01*
X66587619Y-46553333D01*
X65587619Y-47553333D02*
X66063809Y-47220000D01*
X65587619Y-46981904D02*
X66587619Y-46981904D01*
X66587619Y-47362857D01*
X66540000Y-47458095D01*
X66492380Y-47505714D01*
X66397142Y-47553333D01*
X66254285Y-47553333D01*
X66159047Y-47505714D01*
X66111428Y-47458095D01*
X66063809Y-47362857D01*
X66063809Y-46981904D01*
X65873333Y-47934285D02*
X65873333Y-48410476D01*
X65587619Y-47839047D02*
X66587619Y-48172380D01*
X65587619Y-48505714D01*
X83002380Y-55641666D02*
X82002380Y-55641666D01*
X82478571Y-55641666D02*
X82478571Y-55070238D01*
X83002380Y-55070238D02*
X82002380Y-55070238D01*
X82002380Y-54403571D02*
X82002380Y-54213095D01*
X82050000Y-54117857D01*
X82145238Y-54022619D01*
X82335714Y-53975000D01*
X82669047Y-53975000D01*
X82859523Y-54022619D01*
X82954761Y-54117857D01*
X83002380Y-54213095D01*
X83002380Y-54403571D01*
X82954761Y-54498809D01*
X82859523Y-54594047D01*
X82669047Y-54641666D01*
X82335714Y-54641666D01*
X82145238Y-54594047D01*
X82050000Y-54498809D01*
X82002380Y-54403571D01*
X82954761Y-53594047D02*
X83002380Y-53451190D01*
X83002380Y-53213095D01*
X82954761Y-53117857D01*
X82907142Y-53070238D01*
X82811904Y-53022619D01*
X82716666Y-53022619D01*
X82621428Y-53070238D01*
X82573809Y-53117857D01*
X82526190Y-53213095D01*
X82478571Y-53403571D01*
X82430952Y-53498809D01*
X82383333Y-53546428D01*
X82288095Y-53594047D01*
X82192857Y-53594047D01*
X82097619Y-53546428D01*
X82050000Y-53498809D01*
X82002380Y-53403571D01*
X82002380Y-53165476D01*
X82050000Y-53022619D01*
X82002380Y-52736904D02*
X82002380Y-52165476D01*
X83002380Y-52451190D02*
X82002380Y-52451190D01*
X90257380Y-54149047D02*
X90971666Y-54149047D01*
X91114523Y-54196666D01*
X91209761Y-54291904D01*
X91257380Y-54434761D01*
X91257380Y-54530000D01*
X91257380Y-53196666D02*
X91257380Y-53672857D01*
X90257380Y-53672857D01*
X91162142Y-52291904D02*
X91209761Y-52339523D01*
X91257380Y-52482380D01*
X91257380Y-52577619D01*
X91209761Y-52720476D01*
X91114523Y-52815714D01*
X91019285Y-52863333D01*
X90828809Y-52910952D01*
X90685952Y-52910952D01*
X90495476Y-52863333D01*
X90400238Y-52815714D01*
X90305000Y-52720476D01*
X90257380Y-52577619D01*
X90257380Y-52482380D01*
X90305000Y-52339523D01*
X90352619Y-52291904D01*
X90257380Y-51577619D02*
X90971666Y-51577619D01*
X91114523Y-51625238D01*
X91209761Y-51720476D01*
X91257380Y-51863333D01*
X91257380Y-51958571D01*
X91257380Y-50625238D02*
X91257380Y-51101428D01*
X90257380Y-51101428D01*
X91162142Y-49720476D02*
X91209761Y-49768095D01*
X91257380Y-49910952D01*
X91257380Y-50006190D01*
X91209761Y-50149047D01*
X91114523Y-50244285D01*
X91019285Y-50291904D01*
X90828809Y-50339523D01*
X90685952Y-50339523D01*
X90495476Y-50291904D01*
X90400238Y-50244285D01*
X90305000Y-50149047D01*
X90257380Y-50006190D01*
X90257380Y-49910952D01*
X90305000Y-49768095D01*
X90352619Y-49720476D01*
X90257380Y-49006190D02*
X90971666Y-49006190D01*
X91114523Y-49053809D01*
X91209761Y-49149047D01*
X91257380Y-49291904D01*
X91257380Y-49387142D01*
X91257380Y-48053809D02*
X91257380Y-48530000D01*
X90257380Y-48530000D01*
X91162142Y-47149047D02*
X91209761Y-47196666D01*
X91257380Y-47339523D01*
X91257380Y-47434761D01*
X91209761Y-47577619D01*
X91114523Y-47672857D01*
X91019285Y-47720476D01*
X90828809Y-47768095D01*
X90685952Y-47768095D01*
X90495476Y-47720476D01*
X90400238Y-47672857D01*
X90305000Y-47577619D01*
X90257380Y-47434761D01*
X90257380Y-47339523D01*
X90305000Y-47196666D01*
X90352619Y-47149047D01*
X90257380Y-46434761D02*
X90971666Y-46434761D01*
X91114523Y-46482380D01*
X91209761Y-46577619D01*
X91257380Y-46720476D01*
X91257380Y-46815714D01*
X91257380Y-45482380D02*
X91257380Y-45958571D01*
X90257380Y-45958571D01*
X91162142Y-44577619D02*
X91209761Y-44625238D01*
X91257380Y-44768095D01*
X91257380Y-44863333D01*
X91209761Y-45006190D01*
X91114523Y-45101428D01*
X91019285Y-45149047D01*
X90828809Y-45196666D01*
X90685952Y-45196666D01*
X90495476Y-45149047D01*
X90400238Y-45101428D01*
X90305000Y-45006190D01*
X90257380Y-44863333D01*
X90257380Y-44768095D01*
X90305000Y-44625238D01*
X90352619Y-44577619D01*
D11*
G36*
X84155733Y-35929350D02*
G01*
X84214525Y-35948238D01*
X84266663Y-35986381D01*
X84346886Y-36056385D01*
X84439327Y-36144283D01*
X84455032Y-36159916D01*
X84565692Y-36266912D01*
X84683834Y-36375013D01*
X84781890Y-36459152D01*
X84880520Y-36551298D01*
X84926326Y-36626678D01*
X84931250Y-36658270D01*
X84923224Y-36706292D01*
X84892970Y-36742647D01*
X84831225Y-36770909D01*
X84728724Y-36794649D01*
X84576203Y-36817440D01*
X84490835Y-36828091D01*
X84120198Y-36903976D01*
X83756300Y-37040134D01*
X83494205Y-37179304D01*
X83391893Y-37239555D01*
X83311265Y-37284327D01*
X83266987Y-37305543D01*
X83263702Y-37306250D01*
X83218560Y-37327049D01*
X83141078Y-37382375D01*
X83043584Y-37461618D01*
X82938402Y-37554166D01*
X82837861Y-37649412D01*
X82754284Y-37736744D01*
X82728467Y-37766960D01*
X82575047Y-37949798D01*
X82392400Y-38158700D01*
X82196809Y-38375446D01*
X82004560Y-38581819D01*
X81936322Y-38653158D01*
X81794808Y-38807446D01*
X81653027Y-38978505D01*
X81505818Y-39173604D01*
X81348022Y-39400010D01*
X81174477Y-39664992D01*
X80980023Y-39975817D01*
X80875050Y-40147875D01*
X80816781Y-40259627D01*
X80745137Y-40421754D01*
X80663436Y-40624445D01*
X80574998Y-40857894D01*
X80483141Y-41112290D01*
X80391186Y-41377826D01*
X80302451Y-41644693D01*
X80220255Y-41903083D01*
X80147917Y-42143186D01*
X80088756Y-42355195D01*
X80046091Y-42529300D01*
X80023242Y-42655694D01*
X80021769Y-42669500D01*
X79999959Y-42904170D01*
X80171667Y-42885563D01*
X80262210Y-42868632D01*
X80369362Y-42833544D01*
X80503681Y-42775981D01*
X80675726Y-42691622D01*
X80787875Y-42633491D01*
X81026208Y-42506160D01*
X81237819Y-42387003D01*
X81428176Y-42270806D01*
X81602746Y-42152358D01*
X81766997Y-42026444D01*
X81926397Y-41887851D01*
X82086414Y-41731366D01*
X82252516Y-41551775D01*
X82430171Y-41343867D01*
X82624846Y-41102427D01*
X82842009Y-40822242D01*
X83087129Y-40498099D01*
X83234950Y-40300392D01*
X83414390Y-40046310D01*
X83559459Y-39807583D01*
X83684629Y-39558991D01*
X83759821Y-39385875D01*
X83870922Y-39117427D01*
X83963585Y-38894321D01*
X84043468Y-38703149D01*
X84116229Y-38530501D01*
X84187525Y-38362968D01*
X84263014Y-38187142D01*
X84348354Y-37989613D01*
X84371161Y-37936955D01*
X84458295Y-37733447D01*
X84522176Y-37577128D01*
X84566224Y-37457560D01*
X84593860Y-37364305D01*
X84608504Y-37286926D01*
X84613576Y-37214984D01*
X84613750Y-37196680D01*
X84624538Y-37040543D01*
X84657674Y-36941508D01*
X84714311Y-36896816D01*
X84740750Y-36893500D01*
X84803830Y-36914826D01*
X84843757Y-36982024D01*
X84861984Y-37099921D01*
X84859961Y-37273345D01*
X84859122Y-37287311D01*
X84854284Y-37362240D01*
X84848304Y-37426487D01*
X84838425Y-37487913D01*
X84821894Y-37554378D01*
X84795953Y-37633744D01*
X84757850Y-37733873D01*
X84704827Y-37862625D01*
X84634131Y-38027861D01*
X84543006Y-38237443D01*
X84457452Y-38433375D01*
X84382173Y-38606646D01*
X84304270Y-38787464D01*
X84233521Y-38953048D01*
X84184820Y-39068375D01*
X84079859Y-39318460D01*
X83994222Y-39519387D01*
X83923102Y-39680732D01*
X83861693Y-39812074D01*
X83805190Y-39922989D01*
X83748787Y-40023056D01*
X83687677Y-40121853D01*
X83617054Y-40228956D01*
X83560875Y-40311815D01*
X83494041Y-40421521D01*
X83471691Y-40488943D01*
X83494186Y-40512957D01*
X83496186Y-40513000D01*
X83533405Y-40529194D01*
X83608240Y-40571954D01*
X83705527Y-40632543D01*
X83720364Y-40642139D01*
X83827441Y-40716302D01*
X83887329Y-40771462D01*
X83909417Y-40817452D01*
X83909240Y-40839937D01*
X83873800Y-40914630D01*
X83798599Y-40944578D01*
X83688403Y-40930310D01*
X83547975Y-40872358D01*
X83399530Y-40783190D01*
X83280686Y-40702852D01*
X83129655Y-40899904D01*
X82830988Y-41278726D01*
X82555043Y-41605334D01*
X82296995Y-41884727D01*
X82052021Y-42121906D01*
X81815298Y-42321871D01*
X81621257Y-42463413D01*
X81506989Y-42543565D01*
X81415537Y-42612835D01*
X81357907Y-42662565D01*
X81343500Y-42681915D01*
X81358972Y-42726339D01*
X81397358Y-42798761D01*
X81409466Y-42818865D01*
X81449854Y-42897931D01*
X81500466Y-43016396D01*
X81552463Y-43153090D01*
X81570134Y-43203613D01*
X81616517Y-43352657D01*
X81647802Y-43490957D01*
X81668002Y-43642009D01*
X81681128Y-43829314D01*
X81682814Y-43863682D01*
X81689769Y-44026838D01*
X81691272Y-44142126D01*
X81685422Y-44225076D01*
X81670320Y-44291219D01*
X81644064Y-44356087D01*
X81615467Y-44414121D01*
X81569824Y-44506780D01*
X81552241Y-44554709D01*
X81561090Y-44569313D01*
X81594371Y-44562117D01*
X81687808Y-44562514D01*
X81775073Y-44625347D01*
X81856672Y-44751014D01*
X81869695Y-44777962D01*
X81904316Y-44860380D01*
X81926764Y-44940652D01*
X81939573Y-45036052D01*
X81945282Y-45163851D01*
X81946439Y-45300577D01*
X81944544Y-45470384D01*
X81937199Y-45592052D01*
X81922433Y-45680847D01*
X81898274Y-45752035D01*
X81884345Y-45781353D01*
X81771672Y-45941196D01*
X81610438Y-46071651D01*
X81398022Y-46174032D01*
X81131803Y-46249650D01*
X80861151Y-46293877D01*
X80705237Y-46312701D01*
X80549648Y-46331404D01*
X80421462Y-46346733D01*
X80391000Y-46350354D01*
X80216375Y-46371057D01*
X80206933Y-46587618D01*
X80199505Y-46705453D01*
X80183252Y-46783717D01*
X80148178Y-46846331D01*
X80084287Y-46917212D01*
X80058227Y-46943443D01*
X79873129Y-47088904D01*
X79644479Y-47204451D01*
X79387920Y-47283157D01*
X79232125Y-47309240D01*
X79059535Y-47323600D01*
X78853330Y-47331963D01*
X78632155Y-47334417D01*
X78414656Y-47331049D01*
X78219478Y-47321947D01*
X78065266Y-47307197D01*
X78041500Y-47303661D01*
X77859139Y-47269677D01*
X77672632Y-47227142D01*
X77502531Y-47181266D01*
X77369388Y-47137259D01*
X77343000Y-47126612D01*
X77264527Y-47097551D01*
X77144185Y-47058159D01*
X77001413Y-47014651D01*
X76914375Y-46989527D01*
X76657607Y-46911378D01*
X76395429Y-46821326D01*
X76139475Y-46724169D01*
X75901380Y-46624712D01*
X75692776Y-46527753D01*
X75525297Y-46438096D01*
X75433343Y-46378287D01*
X75358684Y-46339398D01*
X75255451Y-46318363D01*
X75131323Y-46311475D01*
X74979576Y-46300802D01*
X74859736Y-46269572D01*
X74760321Y-46209253D01*
X74669848Y-46111313D01*
X74576833Y-45967219D01*
X74513711Y-45852583D01*
X74406052Y-45648910D01*
X74324561Y-45491911D01*
X74265150Y-45372436D01*
X74223731Y-45281331D01*
X74196213Y-45209444D01*
X74178510Y-45147622D01*
X74166532Y-45086713D01*
X74163732Y-45069125D01*
X74145785Y-44965303D01*
X74118804Y-44823960D01*
X74087521Y-44669563D01*
X74074675Y-44608750D01*
X74052694Y-44496615D01*
X74036197Y-44385600D01*
X74024455Y-44264034D01*
X74016742Y-44120247D01*
X74012328Y-43942570D01*
X74010487Y-43719334D01*
X74010305Y-43576875D01*
X74010489Y-43539682D01*
X74489559Y-43539682D01*
X74490618Y-43808371D01*
X74496664Y-44071023D01*
X74507440Y-44315889D01*
X74522690Y-44531221D01*
X74542156Y-44705270D01*
X74562613Y-44815125D01*
X74641070Y-45113759D01*
X74711424Y-45356522D01*
X74776167Y-45550150D01*
X74837792Y-45701382D01*
X74898791Y-45816955D01*
X74961657Y-45903607D01*
X74967897Y-45910668D01*
X75035217Y-45979082D01*
X75072398Y-46003167D01*
X75075259Y-45981340D01*
X75058471Y-45944999D01*
X75036688Y-45887640D01*
X75006302Y-45786371D01*
X74972577Y-45659249D01*
X74958968Y-45603687D01*
X74938124Y-45512121D01*
X74922487Y-45428217D01*
X74911617Y-45341720D01*
X74905075Y-45242377D01*
X74902421Y-45119933D01*
X74903216Y-44964136D01*
X74904190Y-44913045D01*
X75157643Y-44913045D01*
X75157760Y-45054292D01*
X75162074Y-45166540D01*
X75171127Y-45261274D01*
X75185459Y-45349976D01*
X75205614Y-45444130D01*
X75214224Y-45480835D01*
X75255887Y-45640324D01*
X75298238Y-45752930D01*
X75351535Y-45834544D01*
X75426036Y-45901059D01*
X75527016Y-45965454D01*
X75610955Y-46021100D01*
X75649139Y-46068817D01*
X75654426Y-46125103D01*
X75654055Y-46128456D01*
X75655995Y-46178657D01*
X75683837Y-46219530D01*
X75749885Y-46263923D01*
X75819000Y-46300685D01*
X76114361Y-46439110D01*
X76435612Y-46567866D01*
X76754658Y-46676302D01*
X76966197Y-46735558D01*
X77110162Y-46774367D01*
X77249982Y-46816871D01*
X77359319Y-46854973D01*
X77374750Y-46861161D01*
X77654341Y-46954544D01*
X77976596Y-47023820D01*
X78324723Y-47067191D01*
X78681934Y-47082857D01*
X79031440Y-47069023D01*
X79173453Y-47053780D01*
X79349064Y-47016919D01*
X79532598Y-46955022D01*
X79702767Y-46876965D01*
X79838281Y-46791627D01*
X79873297Y-46761950D01*
X79923129Y-46695986D01*
X79944140Y-46607189D01*
X79946500Y-46543362D01*
X79943928Y-46460949D01*
X79928206Y-46407932D01*
X79887320Y-46375833D01*
X79809256Y-46356173D01*
X79682000Y-46340477D01*
X79654956Y-46337629D01*
X79465042Y-46309390D01*
X79288517Y-46267796D01*
X79138269Y-46217105D01*
X79027187Y-46161576D01*
X78972005Y-46111991D01*
X78940783Y-46024964D01*
X78954928Y-45949364D01*
X79002327Y-45898111D01*
X79070865Y-45884126D01*
X79148428Y-45920329D01*
X79150249Y-45921879D01*
X79246362Y-45976920D01*
X79391345Y-46025485D01*
X79570704Y-46065283D01*
X79769949Y-46094027D01*
X79974586Y-46109428D01*
X80170123Y-46109197D01*
X80279875Y-46100266D01*
X80446288Y-46080291D01*
X80633866Y-46057816D01*
X80794121Y-46038649D01*
X80970708Y-46010159D01*
X81152007Y-45968382D01*
X81318771Y-45918726D01*
X81451753Y-45866597D01*
X81501963Y-45839810D01*
X81599098Y-45741933D01*
X81662306Y-45591679D01*
X81690972Y-45390734D01*
X81692750Y-45316618D01*
X81689156Y-45175109D01*
X81674116Y-45068390D01*
X81641241Y-44967952D01*
X81589562Y-44856210D01*
X81486375Y-44647663D01*
X81349463Y-44769209D01*
X81230569Y-44859625D01*
X81106697Y-44928827D01*
X80992628Y-44970655D01*
X80903139Y-44978951D01*
X80871769Y-44968313D01*
X80814969Y-44904794D01*
X80815038Y-44831423D01*
X80870168Y-44762627D01*
X80899944Y-44743492D01*
X81094457Y-44620915D01*
X81238930Y-44491677D01*
X81344685Y-44347266D01*
X81391458Y-44263955D01*
X81419447Y-44195987D01*
X81432323Y-44123394D01*
X81433758Y-44026209D01*
X81427943Y-43894375D01*
X81417802Y-43756203D01*
X81403677Y-43634180D01*
X81388058Y-43548213D01*
X81382291Y-43529250D01*
X81352366Y-43446235D01*
X81317752Y-43342914D01*
X81311332Y-43322875D01*
X81277083Y-43226796D01*
X81231433Y-43114137D01*
X81181261Y-42999963D01*
X81133449Y-42899341D01*
X81094874Y-42827337D01*
X81072417Y-42799017D01*
X81072125Y-42799000D01*
X81038165Y-42812604D01*
X80960118Y-42849460D01*
X80850290Y-42903626D01*
X80744805Y-42956970D01*
X80546667Y-43050513D01*
X80379795Y-43110876D01*
X80225922Y-43144613D01*
X80219419Y-43145553D01*
X80109177Y-43162896D01*
X80026344Y-43179168D01*
X79988526Y-43190902D01*
X79988343Y-43191072D01*
X80002407Y-43213519D01*
X80056949Y-43247227D01*
X80059609Y-43248551D01*
X80138253Y-43317718D01*
X80197891Y-43425867D01*
X80263815Y-43559939D01*
X80345431Y-43646339D01*
X80457836Y-43700894D01*
X80461357Y-43702047D01*
X80547060Y-43748983D01*
X80578609Y-43807854D01*
X80560837Y-43867093D01*
X80498582Y-43915131D01*
X80396679Y-43940402D01*
X80361119Y-43941822D01*
X80233538Y-43932816D01*
X80119544Y-43902167D01*
X80011323Y-43843784D01*
X79901063Y-43751575D01*
X79780949Y-43619451D01*
X79643168Y-43441319D01*
X79546781Y-43307000D01*
X79408842Y-43116276D01*
X79371236Y-43068875D01*
X79724250Y-43068875D01*
X79740125Y-43084750D01*
X79756000Y-43068875D01*
X79740125Y-43053000D01*
X79724250Y-43068875D01*
X79371236Y-43068875D01*
X79292959Y-42970210D01*
X79188987Y-42858730D01*
X79086777Y-42771767D01*
X78976182Y-42699248D01*
X78884566Y-42649767D01*
X78758847Y-42584054D01*
X78638461Y-42517867D01*
X78548807Y-42465183D01*
X78546558Y-42463768D01*
X78456283Y-42409497D01*
X78337149Y-42341377D01*
X78227366Y-42280914D01*
X78013328Y-42165541D01*
X77848623Y-42076048D01*
X77726786Y-42008006D01*
X77641353Y-41956984D01*
X77585857Y-41918552D01*
X77553834Y-41888279D01*
X77538817Y-41861736D01*
X77534343Y-41834493D01*
X77533986Y-41805789D01*
X77556708Y-41741560D01*
X77623411Y-41717565D01*
X77729711Y-41732889D01*
X77871229Y-41786612D01*
X78043582Y-41877819D01*
X78129429Y-41930461D01*
X78220090Y-41986173D01*
X78288904Y-42024733D01*
X78318082Y-42037000D01*
X78353686Y-42052160D01*
X78428836Y-42092341D01*
X78528809Y-42149589D01*
X78553204Y-42164000D01*
X78713454Y-42247353D01*
X78843711Y-42285049D01*
X78956684Y-42278433D01*
X79065080Y-42228844D01*
X79079130Y-42219562D01*
X79184066Y-42148125D01*
X79184248Y-41848320D01*
X79438500Y-41848320D01*
X79441006Y-42010691D01*
X79447843Y-42156884D01*
X79457983Y-42271440D01*
X79470401Y-42338901D01*
X79471201Y-42341128D01*
X79507353Y-42411925D01*
X79563262Y-42497380D01*
X79626041Y-42580510D01*
X79682806Y-42644334D01*
X79720670Y-42671870D01*
X79722264Y-42672000D01*
X79739243Y-42643249D01*
X79760589Y-42567744D01*
X79781776Y-42461604D01*
X79782433Y-42457687D01*
X79801375Y-42374879D01*
X79838215Y-42241207D01*
X79890146Y-42065838D01*
X79954361Y-41857937D01*
X80028055Y-41626670D01*
X80108422Y-41381204D01*
X80151060Y-41253547D01*
X80249190Y-40963933D01*
X80331362Y-40727036D01*
X80400677Y-40534999D01*
X80460238Y-40379967D01*
X80513148Y-40254085D01*
X80562509Y-40149496D01*
X80611424Y-40058346D01*
X80646390Y-39999422D01*
X80830887Y-39701738D01*
X80990192Y-39450945D01*
X81130314Y-39238631D01*
X81257261Y-39056382D01*
X81377045Y-38895783D01*
X81495673Y-38748423D01*
X81619157Y-38605886D01*
X81722336Y-38493044D01*
X81836823Y-38369033D01*
X81976580Y-38215887D01*
X82124842Y-38052065D01*
X82264843Y-37896028D01*
X82280125Y-37878892D01*
X82476435Y-37661350D01*
X82643175Y-37484819D01*
X82790783Y-37341003D01*
X82929702Y-37221603D01*
X83070371Y-37118324D01*
X83223230Y-37022866D01*
X83398720Y-36926934D01*
X83607281Y-36822230D01*
X83613625Y-36819127D01*
X83784755Y-36742673D01*
X83963953Y-36674810D01*
X84134531Y-36620890D01*
X84279801Y-36586265D01*
X84371822Y-36576000D01*
X84391741Y-36564417D01*
X84378096Y-36524831D01*
X84327305Y-36449985D01*
X84277797Y-36385500D01*
X84196239Y-36286240D01*
X84136152Y-36228563D01*
X84083027Y-36201731D01*
X84022354Y-36195003D01*
X84020426Y-36195000D01*
X83916355Y-36212736D01*
X83789930Y-36258318D01*
X83668682Y-36320304D01*
X83597750Y-36370639D01*
X83554024Y-36398396D01*
X83464135Y-36448321D01*
X83338935Y-36514626D01*
X83189275Y-36591522D01*
X83089750Y-36641585D01*
X82689364Y-36853261D01*
X82333856Y-37068877D01*
X82005220Y-37301209D01*
X81685451Y-37563032D01*
X81356543Y-37867121D01*
X81340602Y-37882624D01*
X81159517Y-38062424D01*
X81019009Y-38210092D01*
X80911138Y-38334464D01*
X80827966Y-38444380D01*
X80803750Y-38480262D01*
X80758829Y-38544028D01*
X80690726Y-38635430D01*
X80629125Y-38715461D01*
X80397660Y-39037789D01*
X80171954Y-39402871D01*
X80045810Y-39631836D01*
X79954488Y-39809218D01*
X79879147Y-39966621D01*
X79809183Y-40127735D01*
X79733992Y-40316250D01*
X79701128Y-40401875D01*
X79659500Y-40522384D01*
X79617050Y-40664181D01*
X79576963Y-40813874D01*
X79542422Y-40958072D01*
X79516610Y-41083383D01*
X79502712Y-41176417D01*
X79503911Y-41223783D01*
X79505244Y-41225787D01*
X79532583Y-41294841D01*
X79512820Y-41370945D01*
X79486125Y-41402000D01*
X79465519Y-41432158D01*
X79451535Y-41489015D01*
X79443106Y-41582579D01*
X79439163Y-41722856D01*
X79438500Y-41848320D01*
X79184248Y-41848320D01*
X79184283Y-41790937D01*
X79183709Y-41648452D01*
X79181987Y-41532335D01*
X79179393Y-41455419D01*
X79176562Y-41430330D01*
X79143866Y-41427925D01*
X79058067Y-41423369D01*
X78929508Y-41417163D01*
X78768530Y-41409809D01*
X78613000Y-41402991D01*
X78393891Y-41392295D01*
X78221125Y-41379999D01*
X78077549Y-41363761D01*
X77946009Y-41341237D01*
X77809352Y-41310085D01*
X77676375Y-41275076D01*
X77512175Y-41231667D01*
X77353861Y-41192283D01*
X77220407Y-41161503D01*
X77136625Y-41144839D01*
X76971043Y-41111941D01*
X76803270Y-41069177D01*
X76649104Y-41021485D01*
X76524345Y-40973801D01*
X76444792Y-40931061D01*
X76439762Y-40927108D01*
X76388885Y-40924243D01*
X76310821Y-40972225D01*
X76210244Y-41066974D01*
X76091832Y-41204409D01*
X76029431Y-41285144D01*
X75935290Y-41415679D01*
X75855581Y-41539630D01*
X75784926Y-41668545D01*
X75717946Y-41813968D01*
X75649264Y-41987445D01*
X75573502Y-42200523D01*
X75497984Y-42426065D01*
X75408099Y-42713029D01*
X75336244Y-42977657D01*
X75280181Y-43233993D01*
X75237672Y-43496076D01*
X75206480Y-43777950D01*
X75184366Y-44093656D01*
X75169093Y-44457235D01*
X75167830Y-44497625D01*
X75161180Y-44731317D01*
X75157643Y-44913045D01*
X74904190Y-44913045D01*
X74907020Y-44764730D01*
X74912921Y-44529375D01*
X74927719Y-44122910D01*
X74950917Y-43765198D01*
X74985199Y-43441745D01*
X75033252Y-43138061D01*
X75097761Y-42839656D01*
X75181411Y-42532036D01*
X75286890Y-42200713D01*
X75408972Y-41852969D01*
X75571419Y-41497659D01*
X75794418Y-41159951D01*
X76077178Y-40841037D01*
X76086767Y-40831584D01*
X76201330Y-40703215D01*
X76257725Y-40596537D01*
X76255408Y-40506565D01*
X76193836Y-40428316D01*
X76072466Y-40356805D01*
X76033170Y-40339585D01*
X75910285Y-40299028D01*
X75796522Y-40289124D01*
X75681429Y-40313405D01*
X75554551Y-40375405D01*
X75405437Y-40478657D01*
X75250150Y-40604229D01*
X75133464Y-40720789D01*
X75003727Y-40880216D01*
X74871800Y-41066552D01*
X74748545Y-41263840D01*
X74644825Y-41456120D01*
X74594220Y-41567940D01*
X74549116Y-41683488D01*
X74527508Y-41762097D01*
X74526455Y-41824565D01*
X74543015Y-41891688D01*
X74546791Y-41903307D01*
X74560339Y-41949150D01*
X74569495Y-41997624D01*
X74573991Y-42057463D01*
X74573560Y-42137399D01*
X74567933Y-42246163D01*
X74556845Y-42392488D01*
X74540026Y-42585106D01*
X74518876Y-42814875D01*
X74503431Y-43031185D01*
X74493745Y-43276704D01*
X74489559Y-43539682D01*
X74010489Y-43539682D01*
X74011711Y-43293577D01*
X74016336Y-43061864D01*
X74025072Y-42869862D01*
X74038812Y-42705700D01*
X74058450Y-42557504D01*
X74084878Y-42413401D01*
X74104644Y-42322750D01*
X74131250Y-42198929D01*
X74158324Y-42061921D01*
X74165851Y-42021125D01*
X74240281Y-41736724D01*
X74363958Y-41427795D01*
X74532568Y-41103916D01*
X74699772Y-40836217D01*
X74874093Y-40604952D01*
X75069334Y-40405186D01*
X75303639Y-40219098D01*
X75386055Y-40162065D01*
X75493709Y-40093843D01*
X75577788Y-40056044D01*
X75664742Y-40039981D01*
X75767055Y-40036927D01*
X76002627Y-40058269D01*
X76200010Y-40120081D01*
X76354229Y-40219730D01*
X76460307Y-40354580D01*
X76488476Y-40418718D01*
X76540316Y-40560359D01*
X76580076Y-40653062D01*
X76615025Y-40708369D01*
X76652436Y-40737820D01*
X76698939Y-40752818D01*
X76797651Y-40777701D01*
X76866750Y-40798295D01*
X76923372Y-40815377D01*
X77002614Y-40836158D01*
X77115604Y-40863355D01*
X77273469Y-40899689D01*
X77382687Y-40924380D01*
X77466216Y-40943695D01*
X77594090Y-40973870D01*
X77748944Y-41010785D01*
X77913415Y-41050319D01*
X77914500Y-41050581D01*
X78104945Y-41093685D01*
X78269419Y-41122833D01*
X78432350Y-41141029D01*
X78618161Y-41151274D01*
X78765221Y-41155138D01*
X79219067Y-41163875D01*
X79237409Y-41084500D01*
X79288447Y-40878161D01*
X79347970Y-40660697D01*
X79410801Y-40449356D01*
X79471761Y-40261383D01*
X79525673Y-40114024D01*
X79537123Y-40086299D01*
X79835888Y-39466456D01*
X80189909Y-38876054D01*
X80595864Y-38320028D01*
X81050427Y-37803313D01*
X81128315Y-37723742D01*
X81473461Y-37394003D01*
X81811489Y-37110037D01*
X82159987Y-36859117D01*
X82536541Y-36628517D01*
X82931000Y-36419310D01*
X83105138Y-36331072D01*
X83275700Y-36242333D01*
X83427179Y-36161320D01*
X83544065Y-36096258D01*
X83581144Y-36074438D01*
X83727074Y-36002220D01*
X83883095Y-35951652D01*
X84031788Y-35926205D01*
X84155733Y-35929350D01*
G37*
X84155733Y-35929350D02*
X84214525Y-35948238D01*
X84266663Y-35986381D01*
X84346886Y-36056385D01*
X84439327Y-36144283D01*
X84455032Y-36159916D01*
X84565692Y-36266912D01*
X84683834Y-36375013D01*
X84781890Y-36459152D01*
X84880520Y-36551298D01*
X84926326Y-36626678D01*
X84931250Y-36658270D01*
X84923224Y-36706292D01*
X84892970Y-36742647D01*
X84831225Y-36770909D01*
X84728724Y-36794649D01*
X84576203Y-36817440D01*
X84490835Y-36828091D01*
X84120198Y-36903976D01*
X83756300Y-37040134D01*
X83494205Y-37179304D01*
X83391893Y-37239555D01*
X83311265Y-37284327D01*
X83266987Y-37305543D01*
X83263702Y-37306250D01*
X83218560Y-37327049D01*
X83141078Y-37382375D01*
X83043584Y-37461618D01*
X82938402Y-37554166D01*
X82837861Y-37649412D01*
X82754284Y-37736744D01*
X82728467Y-37766960D01*
X82575047Y-37949798D01*
X82392400Y-38158700D01*
X82196809Y-38375446D01*
X82004560Y-38581819D01*
X81936322Y-38653158D01*
X81794808Y-38807446D01*
X81653027Y-38978505D01*
X81505818Y-39173604D01*
X81348022Y-39400010D01*
X81174477Y-39664992D01*
X80980023Y-39975817D01*
X80875050Y-40147875D01*
X80816781Y-40259627D01*
X80745137Y-40421754D01*
X80663436Y-40624445D01*
X80574998Y-40857894D01*
X80483141Y-41112290D01*
X80391186Y-41377826D01*
X80302451Y-41644693D01*
X80220255Y-41903083D01*
X80147917Y-42143186D01*
X80088756Y-42355195D01*
X80046091Y-42529300D01*
X80023242Y-42655694D01*
X80021769Y-42669500D01*
X79999959Y-42904170D01*
X80171667Y-42885563D01*
X80262210Y-42868632D01*
X80369362Y-42833544D01*
X80503681Y-42775981D01*
X80675726Y-42691622D01*
X80787875Y-42633491D01*
X81026208Y-42506160D01*
X81237819Y-42387003D01*
X81428176Y-42270806D01*
X81602746Y-42152358D01*
X81766997Y-42026444D01*
X81926397Y-41887851D01*
X82086414Y-41731366D01*
X82252516Y-41551775D01*
X82430171Y-41343867D01*
X82624846Y-41102427D01*
X82842009Y-40822242D01*
X83087129Y-40498099D01*
X83234950Y-40300392D01*
X83414390Y-40046310D01*
X83559459Y-39807583D01*
X83684629Y-39558991D01*
X83759821Y-39385875D01*
X83870922Y-39117427D01*
X83963585Y-38894321D01*
X84043468Y-38703149D01*
X84116229Y-38530501D01*
X84187525Y-38362968D01*
X84263014Y-38187142D01*
X84348354Y-37989613D01*
X84371161Y-37936955D01*
X84458295Y-37733447D01*
X84522176Y-37577128D01*
X84566224Y-37457560D01*
X84593860Y-37364305D01*
X84608504Y-37286926D01*
X84613576Y-37214984D01*
X84613750Y-37196680D01*
X84624538Y-37040543D01*
X84657674Y-36941508D01*
X84714311Y-36896816D01*
X84740750Y-36893500D01*
X84803830Y-36914826D01*
X84843757Y-36982024D01*
X84861984Y-37099921D01*
X84859961Y-37273345D01*
X84859122Y-37287311D01*
X84854284Y-37362240D01*
X84848304Y-37426487D01*
X84838425Y-37487913D01*
X84821894Y-37554378D01*
X84795953Y-37633744D01*
X84757850Y-37733873D01*
X84704827Y-37862625D01*
X84634131Y-38027861D01*
X84543006Y-38237443D01*
X84457452Y-38433375D01*
X84382173Y-38606646D01*
X84304270Y-38787464D01*
X84233521Y-38953048D01*
X84184820Y-39068375D01*
X84079859Y-39318460D01*
X83994222Y-39519387D01*
X83923102Y-39680732D01*
X83861693Y-39812074D01*
X83805190Y-39922989D01*
X83748787Y-40023056D01*
X83687677Y-40121853D01*
X83617054Y-40228956D01*
X83560875Y-40311815D01*
X83494041Y-40421521D01*
X83471691Y-40488943D01*
X83494186Y-40512957D01*
X83496186Y-40513000D01*
X83533405Y-40529194D01*
X83608240Y-40571954D01*
X83705527Y-40632543D01*
X83720364Y-40642139D01*
X83827441Y-40716302D01*
X83887329Y-40771462D01*
X83909417Y-40817452D01*
X83909240Y-40839937D01*
X83873800Y-40914630D01*
X83798599Y-40944578D01*
X83688403Y-40930310D01*
X83547975Y-40872358D01*
X83399530Y-40783190D01*
X83280686Y-40702852D01*
X83129655Y-40899904D01*
X82830988Y-41278726D01*
X82555043Y-41605334D01*
X82296995Y-41884727D01*
X82052021Y-42121906D01*
X81815298Y-42321871D01*
X81621257Y-42463413D01*
X81506989Y-42543565D01*
X81415537Y-42612835D01*
X81357907Y-42662565D01*
X81343500Y-42681915D01*
X81358972Y-42726339D01*
X81397358Y-42798761D01*
X81409466Y-42818865D01*
X81449854Y-42897931D01*
X81500466Y-43016396D01*
X81552463Y-43153090D01*
X81570134Y-43203613D01*
X81616517Y-43352657D01*
X81647802Y-43490957D01*
X81668002Y-43642009D01*
X81681128Y-43829314D01*
X81682814Y-43863682D01*
X81689769Y-44026838D01*
X81691272Y-44142126D01*
X81685422Y-44225076D01*
X81670320Y-44291219D01*
X81644064Y-44356087D01*
X81615467Y-44414121D01*
X81569824Y-44506780D01*
X81552241Y-44554709D01*
X81561090Y-44569313D01*
X81594371Y-44562117D01*
X81687808Y-44562514D01*
X81775073Y-44625347D01*
X81856672Y-44751014D01*
X81869695Y-44777962D01*
X81904316Y-44860380D01*
X81926764Y-44940652D01*
X81939573Y-45036052D01*
X81945282Y-45163851D01*
X81946439Y-45300577D01*
X81944544Y-45470384D01*
X81937199Y-45592052D01*
X81922433Y-45680847D01*
X81898274Y-45752035D01*
X81884345Y-45781353D01*
X81771672Y-45941196D01*
X81610438Y-46071651D01*
X81398022Y-46174032D01*
X81131803Y-46249650D01*
X80861151Y-46293877D01*
X80705237Y-46312701D01*
X80549648Y-46331404D01*
X80421462Y-46346733D01*
X80391000Y-46350354D01*
X80216375Y-46371057D01*
X80206933Y-46587618D01*
X80199505Y-46705453D01*
X80183252Y-46783717D01*
X80148178Y-46846331D01*
X80084287Y-46917212D01*
X80058227Y-46943443D01*
X79873129Y-47088904D01*
X79644479Y-47204451D01*
X79387920Y-47283157D01*
X79232125Y-47309240D01*
X79059535Y-47323600D01*
X78853330Y-47331963D01*
X78632155Y-47334417D01*
X78414656Y-47331049D01*
X78219478Y-47321947D01*
X78065266Y-47307197D01*
X78041500Y-47303661D01*
X77859139Y-47269677D01*
X77672632Y-47227142D01*
X77502531Y-47181266D01*
X77369388Y-47137259D01*
X77343000Y-47126612D01*
X77264527Y-47097551D01*
X77144185Y-47058159D01*
X77001413Y-47014651D01*
X76914375Y-46989527D01*
X76657607Y-46911378D01*
X76395429Y-46821326D01*
X76139475Y-46724169D01*
X75901380Y-46624712D01*
X75692776Y-46527753D01*
X75525297Y-46438096D01*
X75433343Y-46378287D01*
X75358684Y-46339398D01*
X75255451Y-46318363D01*
X75131323Y-46311475D01*
X74979576Y-46300802D01*
X74859736Y-46269572D01*
X74760321Y-46209253D01*
X74669848Y-46111313D01*
X74576833Y-45967219D01*
X74513711Y-45852583D01*
X74406052Y-45648910D01*
X74324561Y-45491911D01*
X74265150Y-45372436D01*
X74223731Y-45281331D01*
X74196213Y-45209444D01*
X74178510Y-45147622D01*
X74166532Y-45086713D01*
X74163732Y-45069125D01*
X74145785Y-44965303D01*
X74118804Y-44823960D01*
X74087521Y-44669563D01*
X74074675Y-44608750D01*
X74052694Y-44496615D01*
X74036197Y-44385600D01*
X74024455Y-44264034D01*
X74016742Y-44120247D01*
X74012328Y-43942570D01*
X74010487Y-43719334D01*
X74010305Y-43576875D01*
X74010489Y-43539682D01*
X74489559Y-43539682D01*
X74490618Y-43808371D01*
X74496664Y-44071023D01*
X74507440Y-44315889D01*
X74522690Y-44531221D01*
X74542156Y-44705270D01*
X74562613Y-44815125D01*
X74641070Y-45113759D01*
X74711424Y-45356522D01*
X74776167Y-45550150D01*
X74837792Y-45701382D01*
X74898791Y-45816955D01*
X74961657Y-45903607D01*
X74967897Y-45910668D01*
X75035217Y-45979082D01*
X75072398Y-46003167D01*
X75075259Y-45981340D01*
X75058471Y-45944999D01*
X75036688Y-45887640D01*
X75006302Y-45786371D01*
X74972577Y-45659249D01*
X74958968Y-45603687D01*
X74938124Y-45512121D01*
X74922487Y-45428217D01*
X74911617Y-45341720D01*
X74905075Y-45242377D01*
X74902421Y-45119933D01*
X74903216Y-44964136D01*
X74904190Y-44913045D01*
X75157643Y-44913045D01*
X75157760Y-45054292D01*
X75162074Y-45166540D01*
X75171127Y-45261274D01*
X75185459Y-45349976D01*
X75205614Y-45444130D01*
X75214224Y-45480835D01*
X75255887Y-45640324D01*
X75298238Y-45752930D01*
X75351535Y-45834544D01*
X75426036Y-45901059D01*
X75527016Y-45965454D01*
X75610955Y-46021100D01*
X75649139Y-46068817D01*
X75654426Y-46125103D01*
X75654055Y-46128456D01*
X75655995Y-46178657D01*
X75683837Y-46219530D01*
X75749885Y-46263923D01*
X75819000Y-46300685D01*
X76114361Y-46439110D01*
X76435612Y-46567866D01*
X76754658Y-46676302D01*
X76966197Y-46735558D01*
X77110162Y-46774367D01*
X77249982Y-46816871D01*
X77359319Y-46854973D01*
X77374750Y-46861161D01*
X77654341Y-46954544D01*
X77976596Y-47023820D01*
X78324723Y-47067191D01*
X78681934Y-47082857D01*
X79031440Y-47069023D01*
X79173453Y-47053780D01*
X79349064Y-47016919D01*
X79532598Y-46955022D01*
X79702767Y-46876965D01*
X79838281Y-46791627D01*
X79873297Y-46761950D01*
X79923129Y-46695986D01*
X79944140Y-46607189D01*
X79946500Y-46543362D01*
X79943928Y-46460949D01*
X79928206Y-46407932D01*
X79887320Y-46375833D01*
X79809256Y-46356173D01*
X79682000Y-46340477D01*
X79654956Y-46337629D01*
X79465042Y-46309390D01*
X79288517Y-46267796D01*
X79138269Y-46217105D01*
X79027187Y-46161576D01*
X78972005Y-46111991D01*
X78940783Y-46024964D01*
X78954928Y-45949364D01*
X79002327Y-45898111D01*
X79070865Y-45884126D01*
X79148428Y-45920329D01*
X79150249Y-45921879D01*
X79246362Y-45976920D01*
X79391345Y-46025485D01*
X79570704Y-46065283D01*
X79769949Y-46094027D01*
X79974586Y-46109428D01*
X80170123Y-46109197D01*
X80279875Y-46100266D01*
X80446288Y-46080291D01*
X80633866Y-46057816D01*
X80794121Y-46038649D01*
X80970708Y-46010159D01*
X81152007Y-45968382D01*
X81318771Y-45918726D01*
X81451753Y-45866597D01*
X81501963Y-45839810D01*
X81599098Y-45741933D01*
X81662306Y-45591679D01*
X81690972Y-45390734D01*
X81692750Y-45316618D01*
X81689156Y-45175109D01*
X81674116Y-45068390D01*
X81641241Y-44967952D01*
X81589562Y-44856210D01*
X81486375Y-44647663D01*
X81349463Y-44769209D01*
X81230569Y-44859625D01*
X81106697Y-44928827D01*
X80992628Y-44970655D01*
X80903139Y-44978951D01*
X80871769Y-44968313D01*
X80814969Y-44904794D01*
X80815038Y-44831423D01*
X80870168Y-44762627D01*
X80899944Y-44743492D01*
X81094457Y-44620915D01*
X81238930Y-44491677D01*
X81344685Y-44347266D01*
X81391458Y-44263955D01*
X81419447Y-44195987D01*
X81432323Y-44123394D01*
X81433758Y-44026209D01*
X81427943Y-43894375D01*
X81417802Y-43756203D01*
X81403677Y-43634180D01*
X81388058Y-43548213D01*
X81382291Y-43529250D01*
X81352366Y-43446235D01*
X81317752Y-43342914D01*
X81311332Y-43322875D01*
X81277083Y-43226796D01*
X81231433Y-43114137D01*
X81181261Y-42999963D01*
X81133449Y-42899341D01*
X81094874Y-42827337D01*
X81072417Y-42799017D01*
X81072125Y-42799000D01*
X81038165Y-42812604D01*
X80960118Y-42849460D01*
X80850290Y-42903626D01*
X80744805Y-42956970D01*
X80546667Y-43050513D01*
X80379795Y-43110876D01*
X80225922Y-43144613D01*
X80219419Y-43145553D01*
X80109177Y-43162896D01*
X80026344Y-43179168D01*
X79988526Y-43190902D01*
X79988343Y-43191072D01*
X80002407Y-43213519D01*
X80056949Y-43247227D01*
X80059609Y-43248551D01*
X80138253Y-43317718D01*
X80197891Y-43425867D01*
X80263815Y-43559939D01*
X80345431Y-43646339D01*
X80457836Y-43700894D01*
X80461357Y-43702047D01*
X80547060Y-43748983D01*
X80578609Y-43807854D01*
X80560837Y-43867093D01*
X80498582Y-43915131D01*
X80396679Y-43940402D01*
X80361119Y-43941822D01*
X80233538Y-43932816D01*
X80119544Y-43902167D01*
X80011323Y-43843784D01*
X79901063Y-43751575D01*
X79780949Y-43619451D01*
X79643168Y-43441319D01*
X79546781Y-43307000D01*
X79408842Y-43116276D01*
X79371236Y-43068875D01*
X79724250Y-43068875D01*
X79740125Y-43084750D01*
X79756000Y-43068875D01*
X79740125Y-43053000D01*
X79724250Y-43068875D01*
X79371236Y-43068875D01*
X79292959Y-42970210D01*
X79188987Y-42858730D01*
X79086777Y-42771767D01*
X78976182Y-42699248D01*
X78884566Y-42649767D01*
X78758847Y-42584054D01*
X78638461Y-42517867D01*
X78548807Y-42465183D01*
X78546558Y-42463768D01*
X78456283Y-42409497D01*
X78337149Y-42341377D01*
X78227366Y-42280914D01*
X78013328Y-42165541D01*
X77848623Y-42076048D01*
X77726786Y-42008006D01*
X77641353Y-41956984D01*
X77585857Y-41918552D01*
X77553834Y-41888279D01*
X77538817Y-41861736D01*
X77534343Y-41834493D01*
X77533986Y-41805789D01*
X77556708Y-41741560D01*
X77623411Y-41717565D01*
X77729711Y-41732889D01*
X77871229Y-41786612D01*
X78043582Y-41877819D01*
X78129429Y-41930461D01*
X78220090Y-41986173D01*
X78288904Y-42024733D01*
X78318082Y-42037000D01*
X78353686Y-42052160D01*
X78428836Y-42092341D01*
X78528809Y-42149589D01*
X78553204Y-42164000D01*
X78713454Y-42247353D01*
X78843711Y-42285049D01*
X78956684Y-42278433D01*
X79065080Y-42228844D01*
X79079130Y-42219562D01*
X79184066Y-42148125D01*
X79184248Y-41848320D01*
X79438500Y-41848320D01*
X79441006Y-42010691D01*
X79447843Y-42156884D01*
X79457983Y-42271440D01*
X79470401Y-42338901D01*
X79471201Y-42341128D01*
X79507353Y-42411925D01*
X79563262Y-42497380D01*
X79626041Y-42580510D01*
X79682806Y-42644334D01*
X79720670Y-42671870D01*
X79722264Y-42672000D01*
X79739243Y-42643249D01*
X79760589Y-42567744D01*
X79781776Y-42461604D01*
X79782433Y-42457687D01*
X79801375Y-42374879D01*
X79838215Y-42241207D01*
X79890146Y-42065838D01*
X79954361Y-41857937D01*
X80028055Y-41626670D01*
X80108422Y-41381204D01*
X80151060Y-41253547D01*
X80249190Y-40963933D01*
X80331362Y-40727036D01*
X80400677Y-40534999D01*
X80460238Y-40379967D01*
X80513148Y-40254085D01*
X80562509Y-40149496D01*
X80611424Y-40058346D01*
X80646390Y-39999422D01*
X80830887Y-39701738D01*
X80990192Y-39450945D01*
X81130314Y-39238631D01*
X81257261Y-39056382D01*
X81377045Y-38895783D01*
X81495673Y-38748423D01*
X81619157Y-38605886D01*
X81722336Y-38493044D01*
X81836823Y-38369033D01*
X81976580Y-38215887D01*
X82124842Y-38052065D01*
X82264843Y-37896028D01*
X82280125Y-37878892D01*
X82476435Y-37661350D01*
X82643175Y-37484819D01*
X82790783Y-37341003D01*
X82929702Y-37221603D01*
X83070371Y-37118324D01*
X83223230Y-37022866D01*
X83398720Y-36926934D01*
X83607281Y-36822230D01*
X83613625Y-36819127D01*
X83784755Y-36742673D01*
X83963953Y-36674810D01*
X84134531Y-36620890D01*
X84279801Y-36586265D01*
X84371822Y-36576000D01*
X84391741Y-36564417D01*
X84378096Y-36524831D01*
X84327305Y-36449985D01*
X84277797Y-36385500D01*
X84196239Y-36286240D01*
X84136152Y-36228563D01*
X84083027Y-36201731D01*
X84022354Y-36195003D01*
X84020426Y-36195000D01*
X83916355Y-36212736D01*
X83789930Y-36258318D01*
X83668682Y-36320304D01*
X83597750Y-36370639D01*
X83554024Y-36398396D01*
X83464135Y-36448321D01*
X83338935Y-36514626D01*
X83189275Y-36591522D01*
X83089750Y-36641585D01*
X82689364Y-36853261D01*
X82333856Y-37068877D01*
X82005220Y-37301209D01*
X81685451Y-37563032D01*
X81356543Y-37867121D01*
X81340602Y-37882624D01*
X81159517Y-38062424D01*
X81019009Y-38210092D01*
X80911138Y-38334464D01*
X80827966Y-38444380D01*
X80803750Y-38480262D01*
X80758829Y-38544028D01*
X80690726Y-38635430D01*
X80629125Y-38715461D01*
X80397660Y-39037789D01*
X80171954Y-39402871D01*
X80045810Y-39631836D01*
X79954488Y-39809218D01*
X79879147Y-39966621D01*
X79809183Y-40127735D01*
X79733992Y-40316250D01*
X79701128Y-40401875D01*
X79659500Y-40522384D01*
X79617050Y-40664181D01*
X79576963Y-40813874D01*
X79542422Y-40958072D01*
X79516610Y-41083383D01*
X79502712Y-41176417D01*
X79503911Y-41223783D01*
X79505244Y-41225787D01*
X79532583Y-41294841D01*
X79512820Y-41370945D01*
X79486125Y-41402000D01*
X79465519Y-41432158D01*
X79451535Y-41489015D01*
X79443106Y-41582579D01*
X79439163Y-41722856D01*
X79438500Y-41848320D01*
X79184248Y-41848320D01*
X79184283Y-41790937D01*
X79183709Y-41648452D01*
X79181987Y-41532335D01*
X79179393Y-41455419D01*
X79176562Y-41430330D01*
X79143866Y-41427925D01*
X79058067Y-41423369D01*
X78929508Y-41417163D01*
X78768530Y-41409809D01*
X78613000Y-41402991D01*
X78393891Y-41392295D01*
X78221125Y-41379999D01*
X78077549Y-41363761D01*
X77946009Y-41341237D01*
X77809352Y-41310085D01*
X77676375Y-41275076D01*
X77512175Y-41231667D01*
X77353861Y-41192283D01*
X77220407Y-41161503D01*
X77136625Y-41144839D01*
X76971043Y-41111941D01*
X76803270Y-41069177D01*
X76649104Y-41021485D01*
X76524345Y-40973801D01*
X76444792Y-40931061D01*
X76439762Y-40927108D01*
X76388885Y-40924243D01*
X76310821Y-40972225D01*
X76210244Y-41066974D01*
X76091832Y-41204409D01*
X76029431Y-41285144D01*
X75935290Y-41415679D01*
X75855581Y-41539630D01*
X75784926Y-41668545D01*
X75717946Y-41813968D01*
X75649264Y-41987445D01*
X75573502Y-42200523D01*
X75497984Y-42426065D01*
X75408099Y-42713029D01*
X75336244Y-42977657D01*
X75280181Y-43233993D01*
X75237672Y-43496076D01*
X75206480Y-43777950D01*
X75184366Y-44093656D01*
X75169093Y-44457235D01*
X75167830Y-44497625D01*
X75161180Y-44731317D01*
X75157643Y-44913045D01*
X74904190Y-44913045D01*
X74907020Y-44764730D01*
X74912921Y-44529375D01*
X74927719Y-44122910D01*
X74950917Y-43765198D01*
X74985199Y-43441745D01*
X75033252Y-43138061D01*
X75097761Y-42839656D01*
X75181411Y-42532036D01*
X75286890Y-42200713D01*
X75408972Y-41852969D01*
X75571419Y-41497659D01*
X75794418Y-41159951D01*
X76077178Y-40841037D01*
X76086767Y-40831584D01*
X76201330Y-40703215D01*
X76257725Y-40596537D01*
X76255408Y-40506565D01*
X76193836Y-40428316D01*
X76072466Y-40356805D01*
X76033170Y-40339585D01*
X75910285Y-40299028D01*
X75796522Y-40289124D01*
X75681429Y-40313405D01*
X75554551Y-40375405D01*
X75405437Y-40478657D01*
X75250150Y-40604229D01*
X75133464Y-40720789D01*
X75003727Y-40880216D01*
X74871800Y-41066552D01*
X74748545Y-41263840D01*
X74644825Y-41456120D01*
X74594220Y-41567940D01*
X74549116Y-41683488D01*
X74527508Y-41762097D01*
X74526455Y-41824565D01*
X74543015Y-41891688D01*
X74546791Y-41903307D01*
X74560339Y-41949150D01*
X74569495Y-41997624D01*
X74573991Y-42057463D01*
X74573560Y-42137399D01*
X74567933Y-42246163D01*
X74556845Y-42392488D01*
X74540026Y-42585106D01*
X74518876Y-42814875D01*
X74503431Y-43031185D01*
X74493745Y-43276704D01*
X74489559Y-43539682D01*
X74010489Y-43539682D01*
X74011711Y-43293577D01*
X74016336Y-43061864D01*
X74025072Y-42869862D01*
X74038812Y-42705700D01*
X74058450Y-42557504D01*
X74084878Y-42413401D01*
X74104644Y-42322750D01*
X74131250Y-42198929D01*
X74158324Y-42061921D01*
X74165851Y-42021125D01*
X74240281Y-41736724D01*
X74363958Y-41427795D01*
X74532568Y-41103916D01*
X74699772Y-40836217D01*
X74874093Y-40604952D01*
X75069334Y-40405186D01*
X75303639Y-40219098D01*
X75386055Y-40162065D01*
X75493709Y-40093843D01*
X75577788Y-40056044D01*
X75664742Y-40039981D01*
X75767055Y-40036927D01*
X76002627Y-40058269D01*
X76200010Y-40120081D01*
X76354229Y-40219730D01*
X76460307Y-40354580D01*
X76488476Y-40418718D01*
X76540316Y-40560359D01*
X76580076Y-40653062D01*
X76615025Y-40708369D01*
X76652436Y-40737820D01*
X76698939Y-40752818D01*
X76797651Y-40777701D01*
X76866750Y-40798295D01*
X76923372Y-40815377D01*
X77002614Y-40836158D01*
X77115604Y-40863355D01*
X77273469Y-40899689D01*
X77382687Y-40924380D01*
X77466216Y-40943695D01*
X77594090Y-40973870D01*
X77748944Y-41010785D01*
X77913415Y-41050319D01*
X77914500Y-41050581D01*
X78104945Y-41093685D01*
X78269419Y-41122833D01*
X78432350Y-41141029D01*
X78618161Y-41151274D01*
X78765221Y-41155138D01*
X79219067Y-41163875D01*
X79237409Y-41084500D01*
X79288447Y-40878161D01*
X79347970Y-40660697D01*
X79410801Y-40449356D01*
X79471761Y-40261383D01*
X79525673Y-40114024D01*
X79537123Y-40086299D01*
X79835888Y-39466456D01*
X80189909Y-38876054D01*
X80595864Y-38320028D01*
X81050427Y-37803313D01*
X81128315Y-37723742D01*
X81473461Y-37394003D01*
X81811489Y-37110037D01*
X82159987Y-36859117D01*
X82536541Y-36628517D01*
X82931000Y-36419310D01*
X83105138Y-36331072D01*
X83275700Y-36242333D01*
X83427179Y-36161320D01*
X83544065Y-36096258D01*
X83581144Y-36074438D01*
X83727074Y-36002220D01*
X83883095Y-35951652D01*
X84031788Y-35926205D01*
X84155733Y-35929350D01*
G36*
X88474608Y-44287999D02*
G01*
X88532409Y-44333522D01*
X88597725Y-44392984D01*
X88693000Y-44472927D01*
X88795022Y-44554023D01*
X88929584Y-44661754D01*
X89018086Y-44743812D01*
X89067845Y-44808922D01*
X89086180Y-44865806D01*
X89085113Y-44899819D01*
X89057602Y-44965533D01*
X88998358Y-44985356D01*
X88904730Y-44958704D01*
X88774065Y-44884993D01*
X88660944Y-44806403D01*
X88500397Y-44681575D01*
X88390929Y-44577725D01*
X88326726Y-44487623D01*
X88301975Y-44404040D01*
X88302755Y-44360855D01*
X88333553Y-44288635D01*
X88395196Y-44263831D01*
X88474608Y-44287999D01*
G37*
X88474608Y-44287999D02*
X88532409Y-44333522D01*
X88597725Y-44392984D01*
X88693000Y-44472927D01*
X88795022Y-44554023D01*
X88929584Y-44661754D01*
X89018086Y-44743812D01*
X89067845Y-44808922D01*
X89086180Y-44865806D01*
X89085113Y-44899819D01*
X89057602Y-44965533D01*
X88998358Y-44985356D01*
X88904730Y-44958704D01*
X88774065Y-44884993D01*
X88660944Y-44806403D01*
X88500397Y-44681575D01*
X88390929Y-44577725D01*
X88326726Y-44487623D01*
X88301975Y-44404040D01*
X88302755Y-44360855D01*
X88333553Y-44288635D01*
X88395196Y-44263831D01*
X88474608Y-44287999D01*
G36*
X86674947Y-42663974D02*
G01*
X86771954Y-42737433D01*
X86843570Y-42806937D01*
X86949674Y-42908146D01*
X87064311Y-43005308D01*
X87150673Y-43069065D01*
X87258279Y-43155588D01*
X87305522Y-43233173D01*
X87291689Y-43300159D01*
X87262259Y-43328713D01*
X87196847Y-43362560D01*
X87127388Y-43361488D01*
X87037376Y-43322696D01*
X86963250Y-43277990D01*
X86873133Y-43211692D01*
X86769137Y-43122179D01*
X86664426Y-43022478D01*
X86572164Y-42925613D01*
X86505514Y-42844610D01*
X86479156Y-42799000D01*
X86481771Y-42719664D01*
X86531855Y-42659983D01*
X86601303Y-42640250D01*
X86674947Y-42663974D01*
G37*
X86674947Y-42663974D02*
X86771954Y-42737433D01*
X86843570Y-42806937D01*
X86949674Y-42908146D01*
X87064311Y-43005308D01*
X87150673Y-43069065D01*
X87258279Y-43155588D01*
X87305522Y-43233173D01*
X87291689Y-43300159D01*
X87262259Y-43328713D01*
X87196847Y-43362560D01*
X87127388Y-43361488D01*
X87037376Y-43322696D01*
X86963250Y-43277990D01*
X86873133Y-43211692D01*
X86769137Y-43122179D01*
X86664426Y-43022478D01*
X86572164Y-42925613D01*
X86505514Y-42844610D01*
X86479156Y-42799000D01*
X86481771Y-42719664D01*
X86531855Y-42659983D01*
X86601303Y-42640250D01*
X86674947Y-42663974D01*
G36*
X84836998Y-41459439D02*
G01*
X84962524Y-41508618D01*
X85036918Y-41543272D01*
X85230524Y-41645056D01*
X85362269Y-41734577D01*
X85432511Y-41812253D01*
X85441609Y-41878502D01*
X85389923Y-41933743D01*
X85377837Y-41940632D01*
X85326680Y-41962620D01*
X85275503Y-41966109D01*
X85209150Y-41947619D01*
X85112462Y-41903672D01*
X85026500Y-41859976D01*
X84858656Y-41759978D01*
X84744836Y-41662481D01*
X84688282Y-41570721D01*
X84683472Y-41517622D01*
X84704765Y-41464470D01*
X84753510Y-41444899D01*
X84836998Y-41459439D01*
G37*
X84836998Y-41459439D02*
X84962524Y-41508618D01*
X85036918Y-41543272D01*
X85230524Y-41645056D01*
X85362269Y-41734577D01*
X85432511Y-41812253D01*
X85441609Y-41878502D01*
X85389923Y-41933743D01*
X85377837Y-41940632D01*
X85326680Y-41962620D01*
X85275503Y-41966109D01*
X85209150Y-41947619D01*
X85112462Y-41903672D01*
X85026500Y-41859976D01*
X84858656Y-41759978D01*
X84744836Y-41662481D01*
X84688282Y-41570721D01*
X84683472Y-41517622D01*
X84704765Y-41464470D01*
X84753510Y-41444899D01*
X84836998Y-41459439D01*
G36*
X82139663Y-39375362D02*
G01*
X82192361Y-39401949D01*
X82357606Y-39496099D01*
X82477435Y-39575209D01*
X82564478Y-39649986D01*
X82631364Y-39731132D01*
X82685598Y-39819963D01*
X82739031Y-39923049D01*
X82762813Y-39991390D01*
X82761384Y-40043809D01*
X82747404Y-40081900D01*
X82694464Y-40150001D01*
X82627137Y-40157332D01*
X82547826Y-40104365D01*
X82485771Y-40030705D01*
X82416430Y-39946771D01*
X82354711Y-39906319D01*
X82287260Y-39895768D01*
X82211779Y-39883942D01*
X82170221Y-39839221D01*
X82152345Y-39792851D01*
X82102826Y-39700144D01*
X82033157Y-39623859D01*
X81967230Y-39545901D01*
X81948540Y-39463469D01*
X81978663Y-39393656D01*
X82009798Y-39370241D01*
X82067515Y-39355380D01*
X82139663Y-39375362D01*
G37*
X82139663Y-39375362D02*
X82192361Y-39401949D01*
X82357606Y-39496099D01*
X82477435Y-39575209D01*
X82564478Y-39649986D01*
X82631364Y-39731132D01*
X82685598Y-39819963D01*
X82739031Y-39923049D01*
X82762813Y-39991390D01*
X82761384Y-40043809D01*
X82747404Y-40081900D01*
X82694464Y-40150001D01*
X82627137Y-40157332D01*
X82547826Y-40104365D01*
X82485771Y-40030705D01*
X82416430Y-39946771D01*
X82354711Y-39906319D01*
X82287260Y-39895768D01*
X82211779Y-39883942D01*
X82170221Y-39839221D01*
X82152345Y-39792851D01*
X82102826Y-39700144D01*
X82033157Y-39623859D01*
X81967230Y-39545901D01*
X81948540Y-39463469D01*
X81978663Y-39393656D01*
X82009798Y-39370241D01*
X82067515Y-39355380D01*
X82139663Y-39375362D01*
G36*
X77623893Y-33122282D02*
G01*
X77827414Y-33151168D01*
X78023405Y-33212829D01*
X78238056Y-33313219D01*
X78240004Y-33314239D01*
X78383488Y-33405975D01*
X78524115Y-33524031D01*
X78641457Y-33649731D01*
X78700438Y-33735163D01*
X78720331Y-33761410D01*
X78750059Y-33773721D01*
X78799384Y-33770170D01*
X78878065Y-33748832D01*
X78995862Y-33707780D01*
X79162536Y-33645087D01*
X79168625Y-33642764D01*
X79268010Y-33617233D01*
X79400009Y-33599152D01*
X79518442Y-33592893D01*
X79647383Y-33598476D01*
X79756897Y-33621726D01*
X79860869Y-33669707D01*
X79973184Y-33749482D01*
X80107729Y-33868114D01*
X80163676Y-33921114D01*
X80378744Y-34145487D01*
X80540446Y-34360412D01*
X80654639Y-34579346D01*
X80727183Y-34815747D01*
X80763934Y-35083074D01*
X80771530Y-35317534D01*
X80753693Y-35663404D01*
X80702084Y-35970429D01*
X80632406Y-36195000D01*
X80598252Y-36281175D01*
X80550811Y-36400591D01*
X80500310Y-36527503D01*
X80499963Y-36528375D01*
X80364367Y-36823031D01*
X80184168Y-37141851D01*
X79966601Y-37472321D01*
X79903608Y-37560250D01*
X79801271Y-37692158D01*
X79677086Y-37839080D01*
X79540174Y-37991565D01*
X79399659Y-38140160D01*
X79264665Y-38275416D01*
X79144316Y-38387879D01*
X79047733Y-38468099D01*
X78994000Y-38502572D01*
X78850884Y-38558681D01*
X78658760Y-38617185D01*
X78431839Y-38674523D01*
X78184333Y-38727133D01*
X77930452Y-38771454D01*
X77906562Y-38775098D01*
X77660500Y-38812125D01*
X77660500Y-38929716D01*
X77654168Y-39036625D01*
X77627002Y-39110951D01*
X77566742Y-39170068D01*
X77461132Y-39231350D01*
X77440124Y-39242053D01*
X77278279Y-39303131D01*
X77070577Y-39350998D01*
X76833470Y-39384667D01*
X76583414Y-39403156D01*
X76336862Y-39405478D01*
X76110268Y-39390649D01*
X75920086Y-39357684D01*
X75851968Y-39337104D01*
X75745019Y-39302605D01*
X75653713Y-39279960D01*
X75613098Y-39274750D01*
X75559941Y-39251750D01*
X75473857Y-39187192D01*
X75363235Y-39087738D01*
X75302317Y-39027985D01*
X75167877Y-38883013D01*
X75084959Y-38768919D01*
X75051926Y-38681848D01*
X75067142Y-38617946D01*
X75112562Y-38581118D01*
X75179247Y-38566423D01*
X75255937Y-38593057D01*
X75351366Y-38665558D01*
X75438000Y-38750177D01*
X75529409Y-38836674D01*
X75619887Y-38908935D01*
X75676125Y-38943946D01*
X75768553Y-38992701D01*
X75869494Y-39052136D01*
X75881719Y-39059846D01*
X75949717Y-39095435D01*
X76030728Y-39118852D01*
X76141594Y-39133439D01*
X76298300Y-39142505D01*
X76519054Y-39143653D01*
X76740763Y-39131074D01*
X76948224Y-39106667D01*
X77126235Y-39072334D01*
X77259593Y-39029973D01*
X77281696Y-39019629D01*
X77401198Y-38958664D01*
X77355382Y-38762270D01*
X77283995Y-38531461D01*
X77187819Y-38353379D01*
X77062093Y-38220488D01*
X76976461Y-38162691D01*
X76870613Y-38110741D01*
X76771872Y-38076439D01*
X76720735Y-38068250D01*
X76645054Y-38062324D01*
X76530843Y-38046726D01*
X76401739Y-38024720D01*
X76391225Y-38022732D01*
X76229513Y-37993462D01*
X76050256Y-37963323D01*
X75917075Y-37942582D01*
X75676016Y-37890849D01*
X77112257Y-37890849D01*
X77121158Y-37913276D01*
X77138124Y-37924446D01*
X77259355Y-38012254D01*
X77369078Y-38123512D01*
X77448067Y-38237455D01*
X77466879Y-38279491D01*
X77512051Y-38407855D01*
X77545086Y-38488028D01*
X77579150Y-38530058D01*
X77627412Y-38543994D01*
X77703038Y-38539883D01*
X77795207Y-38530045D01*
X77916325Y-38514928D01*
X78017317Y-38496617D01*
X78076977Y-38478984D01*
X78078123Y-38478391D01*
X78155323Y-38453051D01*
X78190225Y-38449460D01*
X78286604Y-38437122D01*
X78421644Y-38403827D01*
X78576682Y-38355935D01*
X78733053Y-38299802D01*
X78872094Y-38241787D01*
X78975141Y-38188247D01*
X78994000Y-38175653D01*
X79140332Y-38051363D01*
X79305053Y-37880332D01*
X79480144Y-37673566D01*
X79657584Y-37442071D01*
X79829352Y-37196854D01*
X79987430Y-36948921D01*
X80123796Y-36709279D01*
X80230431Y-36488933D01*
X80240614Y-36464875D01*
X80331313Y-36241903D01*
X80398350Y-36061862D01*
X80445212Y-35910278D01*
X80475387Y-35772678D01*
X80492363Y-35634590D01*
X80499626Y-35481541D01*
X80500746Y-35385375D01*
X80493814Y-35125007D01*
X80467834Y-34911672D01*
X80418162Y-34730557D01*
X80340156Y-34566849D01*
X80229173Y-34405737D01*
X80171601Y-34335272D01*
X80058105Y-34212632D01*
X79929125Y-34090121D01*
X79808924Y-33990484D01*
X79786153Y-33973952D01*
X79682964Y-33903884D01*
X79609314Y-33864609D01*
X79543667Y-33849192D01*
X79464487Y-33850695D01*
X79417432Y-33855175D01*
X79313606Y-33870292D01*
X79233903Y-33889819D01*
X79206119Y-33902470D01*
X79155786Y-33930233D01*
X79069836Y-33967902D01*
X79017812Y-33988226D01*
X78931864Y-34024577D01*
X78877251Y-34055763D01*
X78867000Y-34068071D01*
X78876768Y-34109942D01*
X78901395Y-34188079D01*
X78914625Y-34226500D01*
X78950532Y-34391476D01*
X78961726Y-34603011D01*
X78949358Y-34849672D01*
X78914580Y-35120025D01*
X78858543Y-35402635D01*
X78782399Y-35686070D01*
X78760695Y-35754679D01*
X78650174Y-36049734D01*
X78510640Y-36354226D01*
X78351284Y-36651394D01*
X78181295Y-36924474D01*
X78009864Y-37156704D01*
X77959674Y-37215735D01*
X77860739Y-37317320D01*
X77731914Y-37435154D01*
X77588399Y-37556757D01*
X77445396Y-37669649D01*
X77318106Y-37761350D01*
X77228663Y-37815901D01*
X77145444Y-37861565D01*
X77112257Y-37890849D01*
X75676016Y-37890849D01*
X75665280Y-37888545D01*
X75459699Y-37803165D01*
X75289951Y-37678624D01*
X75145653Y-37507104D01*
X75016424Y-37280785D01*
X75003983Y-37254951D01*
X74940902Y-37119003D01*
X74900818Y-37017488D01*
X74878529Y-36927944D01*
X74868834Y-36827908D01*
X74867117Y-36728747D01*
X75123392Y-36728747D01*
X75159506Y-36920993D01*
X75236278Y-37112946D01*
X75333649Y-37284658D01*
X75444273Y-37430799D01*
X75575004Y-37542861D01*
X75733788Y-37623765D01*
X75928571Y-37676433D01*
X76167297Y-37703785D01*
X76457911Y-37708742D01*
X76485750Y-37708213D01*
X76657480Y-37703319D01*
X76781124Y-37695543D01*
X76872095Y-37682356D01*
X76945808Y-37661226D01*
X77017674Y-37629621D01*
X77043254Y-37616646D01*
X77334184Y-37432495D01*
X77609587Y-37190895D01*
X77865172Y-36896891D01*
X78096651Y-36555532D01*
X78299732Y-36171864D01*
X78332475Y-36099750D01*
X78470906Y-35765226D01*
X78572512Y-35464836D01*
X78640875Y-35183730D01*
X78679574Y-34907054D01*
X78692189Y-34619957D01*
X78692201Y-34607500D01*
X78690067Y-34457992D01*
X78680759Y-34348760D01*
X78659619Y-34256629D01*
X78621985Y-34158423D01*
X78585995Y-34079335D01*
X78440929Y-33840317D01*
X78253323Y-33645812D01*
X78029607Y-33499909D01*
X77776211Y-33406694D01*
X77499564Y-33370254D01*
X77470000Y-33369889D01*
X77285117Y-33380134D01*
X77121477Y-33415249D01*
X76969705Y-33480975D01*
X76820428Y-33583056D01*
X76664270Y-33727235D01*
X76491860Y-33919253D01*
X76408638Y-34020125D01*
X76321250Y-34127910D01*
X76243562Y-34223409D01*
X76188303Y-34290984D01*
X76176011Y-34305875D01*
X76011872Y-34524389D01*
X75841075Y-34789055D01*
X75671998Y-35084331D01*
X75513018Y-35394675D01*
X75372516Y-35704544D01*
X75258869Y-35998397D01*
X75250590Y-36022506D01*
X75169775Y-36292280D01*
X75127096Y-36523435D01*
X75123392Y-36728747D01*
X74867117Y-36728747D01*
X74866531Y-36694919D01*
X74866499Y-36661277D01*
X74876475Y-36453336D01*
X74908806Y-36245757D01*
X74967095Y-36023384D01*
X75054947Y-35771062D01*
X75113301Y-35623500D01*
X75199753Y-35426198D01*
X75305447Y-35207441D01*
X75421538Y-34983792D01*
X75539184Y-34771816D01*
X75649539Y-34588077D01*
X75731216Y-34466178D01*
X75808384Y-34361942D01*
X75906131Y-34233342D01*
X76015509Y-34091768D01*
X76127568Y-33948610D01*
X76233360Y-33815257D01*
X76323934Y-33703101D01*
X76390343Y-33623531D01*
X76414367Y-33596689D01*
X76459513Y-33544473D01*
X76520047Y-33468763D01*
X76534138Y-33450446D01*
X76618185Y-33371307D01*
X76747855Y-33287775D01*
X76843220Y-33239010D01*
X76961906Y-33186759D01*
X77062402Y-33153533D01*
X77168069Y-33134226D01*
X77302273Y-33123730D01*
X77386652Y-33120216D01*
X77623893Y-33122282D01*
G37*
X77623893Y-33122282D02*
X77827414Y-33151168D01*
X78023405Y-33212829D01*
X78238056Y-33313219D01*
X78240004Y-33314239D01*
X78383488Y-33405975D01*
X78524115Y-33524031D01*
X78641457Y-33649731D01*
X78700438Y-33735163D01*
X78720331Y-33761410D01*
X78750059Y-33773721D01*
X78799384Y-33770170D01*
X78878065Y-33748832D01*
X78995862Y-33707780D01*
X79162536Y-33645087D01*
X79168625Y-33642764D01*
X79268010Y-33617233D01*
X79400009Y-33599152D01*
X79518442Y-33592893D01*
X79647383Y-33598476D01*
X79756897Y-33621726D01*
X79860869Y-33669707D01*
X79973184Y-33749482D01*
X80107729Y-33868114D01*
X80163676Y-33921114D01*
X80378744Y-34145487D01*
X80540446Y-34360412D01*
X80654639Y-34579346D01*
X80727183Y-34815747D01*
X80763934Y-35083074D01*
X80771530Y-35317534D01*
X80753693Y-35663404D01*
X80702084Y-35970429D01*
X80632406Y-36195000D01*
X80598252Y-36281175D01*
X80550811Y-36400591D01*
X80500310Y-36527503D01*
X80499963Y-36528375D01*
X80364367Y-36823031D01*
X80184168Y-37141851D01*
X79966601Y-37472321D01*
X79903608Y-37560250D01*
X79801271Y-37692158D01*
X79677086Y-37839080D01*
X79540174Y-37991565D01*
X79399659Y-38140160D01*
X79264665Y-38275416D01*
X79144316Y-38387879D01*
X79047733Y-38468099D01*
X78994000Y-38502572D01*
X78850884Y-38558681D01*
X78658760Y-38617185D01*
X78431839Y-38674523D01*
X78184333Y-38727133D01*
X77930452Y-38771454D01*
X77906562Y-38775098D01*
X77660500Y-38812125D01*
X77660500Y-38929716D01*
X77654168Y-39036625D01*
X77627002Y-39110951D01*
X77566742Y-39170068D01*
X77461132Y-39231350D01*
X77440124Y-39242053D01*
X77278279Y-39303131D01*
X77070577Y-39350998D01*
X76833470Y-39384667D01*
X76583414Y-39403156D01*
X76336862Y-39405478D01*
X76110268Y-39390649D01*
X75920086Y-39357684D01*
X75851968Y-39337104D01*
X75745019Y-39302605D01*
X75653713Y-39279960D01*
X75613098Y-39274750D01*
X75559941Y-39251750D01*
X75473857Y-39187192D01*
X75363235Y-39087738D01*
X75302317Y-39027985D01*
X75167877Y-38883013D01*
X75084959Y-38768919D01*
X75051926Y-38681848D01*
X75067142Y-38617946D01*
X75112562Y-38581118D01*
X75179247Y-38566423D01*
X75255937Y-38593057D01*
X75351366Y-38665558D01*
X75438000Y-38750177D01*
X75529409Y-38836674D01*
X75619887Y-38908935D01*
X75676125Y-38943946D01*
X75768553Y-38992701D01*
X75869494Y-39052136D01*
X75881719Y-39059846D01*
X75949717Y-39095435D01*
X76030728Y-39118852D01*
X76141594Y-39133439D01*
X76298300Y-39142505D01*
X76519054Y-39143653D01*
X76740763Y-39131074D01*
X76948224Y-39106667D01*
X77126235Y-39072334D01*
X77259593Y-39029973D01*
X77281696Y-39019629D01*
X77401198Y-38958664D01*
X77355382Y-38762270D01*
X77283995Y-38531461D01*
X77187819Y-38353379D01*
X77062093Y-38220488D01*
X76976461Y-38162691D01*
X76870613Y-38110741D01*
X76771872Y-38076439D01*
X76720735Y-38068250D01*
X76645054Y-38062324D01*
X76530843Y-38046726D01*
X76401739Y-38024720D01*
X76391225Y-38022732D01*
X76229513Y-37993462D01*
X76050256Y-37963323D01*
X75917075Y-37942582D01*
X75676016Y-37890849D01*
X77112257Y-37890849D01*
X77121158Y-37913276D01*
X77138124Y-37924446D01*
X77259355Y-38012254D01*
X77369078Y-38123512D01*
X77448067Y-38237455D01*
X77466879Y-38279491D01*
X77512051Y-38407855D01*
X77545086Y-38488028D01*
X77579150Y-38530058D01*
X77627412Y-38543994D01*
X77703038Y-38539883D01*
X77795207Y-38530045D01*
X77916325Y-38514928D01*
X78017317Y-38496617D01*
X78076977Y-38478984D01*
X78078123Y-38478391D01*
X78155323Y-38453051D01*
X78190225Y-38449460D01*
X78286604Y-38437122D01*
X78421644Y-38403827D01*
X78576682Y-38355935D01*
X78733053Y-38299802D01*
X78872094Y-38241787D01*
X78975141Y-38188247D01*
X78994000Y-38175653D01*
X79140332Y-38051363D01*
X79305053Y-37880332D01*
X79480144Y-37673566D01*
X79657584Y-37442071D01*
X79829352Y-37196854D01*
X79987430Y-36948921D01*
X80123796Y-36709279D01*
X80230431Y-36488933D01*
X80240614Y-36464875D01*
X80331313Y-36241903D01*
X80398350Y-36061862D01*
X80445212Y-35910278D01*
X80475387Y-35772678D01*
X80492363Y-35634590D01*
X80499626Y-35481541D01*
X80500746Y-35385375D01*
X80493814Y-35125007D01*
X80467834Y-34911672D01*
X80418162Y-34730557D01*
X80340156Y-34566849D01*
X80229173Y-34405737D01*
X80171601Y-34335272D01*
X80058105Y-34212632D01*
X79929125Y-34090121D01*
X79808924Y-33990484D01*
X79786153Y-33973952D01*
X79682964Y-33903884D01*
X79609314Y-33864609D01*
X79543667Y-33849192D01*
X79464487Y-33850695D01*
X79417432Y-33855175D01*
X79313606Y-33870292D01*
X79233903Y-33889819D01*
X79206119Y-33902470D01*
X79155786Y-33930233D01*
X79069836Y-33967902D01*
X79017812Y-33988226D01*
X78931864Y-34024577D01*
X78877251Y-34055763D01*
X78867000Y-34068071D01*
X78876768Y-34109942D01*
X78901395Y-34188079D01*
X78914625Y-34226500D01*
X78950532Y-34391476D01*
X78961726Y-34603011D01*
X78949358Y-34849672D01*
X78914580Y-35120025D01*
X78858543Y-35402635D01*
X78782399Y-35686070D01*
X78760695Y-35754679D01*
X78650174Y-36049734D01*
X78510640Y-36354226D01*
X78351284Y-36651394D01*
X78181295Y-36924474D01*
X78009864Y-37156704D01*
X77959674Y-37215735D01*
X77860739Y-37317320D01*
X77731914Y-37435154D01*
X77588399Y-37556757D01*
X77445396Y-37669649D01*
X77318106Y-37761350D01*
X77228663Y-37815901D01*
X77145444Y-37861565D01*
X77112257Y-37890849D01*
X75676016Y-37890849D01*
X75665280Y-37888545D01*
X75459699Y-37803165D01*
X75289951Y-37678624D01*
X75145653Y-37507104D01*
X75016424Y-37280785D01*
X75003983Y-37254951D01*
X74940902Y-37119003D01*
X74900818Y-37017488D01*
X74878529Y-36927944D01*
X74868834Y-36827908D01*
X74867117Y-36728747D01*
X75123392Y-36728747D01*
X75159506Y-36920993D01*
X75236278Y-37112946D01*
X75333649Y-37284658D01*
X75444273Y-37430799D01*
X75575004Y-37542861D01*
X75733788Y-37623765D01*
X75928571Y-37676433D01*
X76167297Y-37703785D01*
X76457911Y-37708742D01*
X76485750Y-37708213D01*
X76657480Y-37703319D01*
X76781124Y-37695543D01*
X76872095Y-37682356D01*
X76945808Y-37661226D01*
X77017674Y-37629621D01*
X77043254Y-37616646D01*
X77334184Y-37432495D01*
X77609587Y-37190895D01*
X77865172Y-36896891D01*
X78096651Y-36555532D01*
X78299732Y-36171864D01*
X78332475Y-36099750D01*
X78470906Y-35765226D01*
X78572512Y-35464836D01*
X78640875Y-35183730D01*
X78679574Y-34907054D01*
X78692189Y-34619957D01*
X78692201Y-34607500D01*
X78690067Y-34457992D01*
X78680759Y-34348760D01*
X78659619Y-34256629D01*
X78621985Y-34158423D01*
X78585995Y-34079335D01*
X78440929Y-33840317D01*
X78253323Y-33645812D01*
X78029607Y-33499909D01*
X77776211Y-33406694D01*
X77499564Y-33370254D01*
X77470000Y-33369889D01*
X77285117Y-33380134D01*
X77121477Y-33415249D01*
X76969705Y-33480975D01*
X76820428Y-33583056D01*
X76664270Y-33727235D01*
X76491860Y-33919253D01*
X76408638Y-34020125D01*
X76321250Y-34127910D01*
X76243562Y-34223409D01*
X76188303Y-34290984D01*
X76176011Y-34305875D01*
X76011872Y-34524389D01*
X75841075Y-34789055D01*
X75671998Y-35084331D01*
X75513018Y-35394675D01*
X75372516Y-35704544D01*
X75258869Y-35998397D01*
X75250590Y-36022506D01*
X75169775Y-36292280D01*
X75127096Y-36523435D01*
X75123392Y-36728747D01*
X74867117Y-36728747D01*
X74866531Y-36694919D01*
X74866499Y-36661277D01*
X74876475Y-36453336D01*
X74908806Y-36245757D01*
X74967095Y-36023384D01*
X75054947Y-35771062D01*
X75113301Y-35623500D01*
X75199753Y-35426198D01*
X75305447Y-35207441D01*
X75421538Y-34983792D01*
X75539184Y-34771816D01*
X75649539Y-34588077D01*
X75731216Y-34466178D01*
X75808384Y-34361942D01*
X75906131Y-34233342D01*
X76015509Y-34091768D01*
X76127568Y-33948610D01*
X76233360Y-33815257D01*
X76323934Y-33703101D01*
X76390343Y-33623531D01*
X76414367Y-33596689D01*
X76459513Y-33544473D01*
X76520047Y-33468763D01*
X76534138Y-33450446D01*
X76618185Y-33371307D01*
X76747855Y-33287775D01*
X76843220Y-33239010D01*
X76961906Y-33186759D01*
X77062402Y-33153533D01*
X77168069Y-33134226D01*
X77302273Y-33123730D01*
X77386652Y-33120216D01*
X77623893Y-33122282D01*
G36*
X83622522Y-37627269D02*
G01*
X83663230Y-37726552D01*
X83683580Y-37817810D01*
X83698869Y-37931685D01*
X83711518Y-38087662D01*
X83720127Y-38264352D01*
X83723267Y-38424262D01*
X83722133Y-38607033D01*
X83716007Y-38742011D01*
X83703143Y-38844818D01*
X83681791Y-38931077D01*
X83659607Y-38993168D01*
X83585229Y-39160272D01*
X83514573Y-39268908D01*
X83442450Y-39323477D01*
X83363672Y-39328382D01*
X83296125Y-39301587D01*
X83239574Y-39265440D01*
X83202042Y-39222194D01*
X83180489Y-39159580D01*
X83171872Y-39065329D01*
X83173149Y-38927173D01*
X83177230Y-38821994D01*
X83182571Y-38648041D01*
X83179682Y-38515835D01*
X83166635Y-38403939D01*
X83141503Y-38290913D01*
X83123721Y-38227000D01*
X83083456Y-38097746D01*
X83044190Y-37986229D01*
X83409756Y-37986229D01*
X83415594Y-38027409D01*
X83426432Y-38027901D01*
X83434011Y-37985407D01*
X83428938Y-37967046D01*
X83414840Y-37955020D01*
X83409756Y-37986229D01*
X83044190Y-37986229D01*
X83042052Y-37980159D01*
X83007927Y-37898003D01*
X83005506Y-37893172D01*
X82970905Y-37789535D01*
X82973921Y-37703279D01*
X83007352Y-37645273D01*
X83063998Y-37626389D01*
X83136659Y-37657499D01*
X83152727Y-37670902D01*
X83191077Y-37699259D01*
X83231092Y-37702862D01*
X83292452Y-37679180D01*
X83360140Y-37644215D01*
X83479920Y-37590901D01*
X83564399Y-37583652D01*
X83622522Y-37627269D01*
G37*
X83622522Y-37627269D02*
X83663230Y-37726552D01*
X83683580Y-37817810D01*
X83698869Y-37931685D01*
X83711518Y-38087662D01*
X83720127Y-38264352D01*
X83723267Y-38424262D01*
X83722133Y-38607033D01*
X83716007Y-38742011D01*
X83703143Y-38844818D01*
X83681791Y-38931077D01*
X83659607Y-38993168D01*
X83585229Y-39160272D01*
X83514573Y-39268908D01*
X83442450Y-39323477D01*
X83363672Y-39328382D01*
X83296125Y-39301587D01*
X83239574Y-39265440D01*
X83202042Y-39222194D01*
X83180489Y-39159580D01*
X83171872Y-39065329D01*
X83173149Y-38927173D01*
X83177230Y-38821994D01*
X83182571Y-38648041D01*
X83179682Y-38515835D01*
X83166635Y-38403939D01*
X83141503Y-38290913D01*
X83123721Y-38227000D01*
X83083456Y-38097746D01*
X83044190Y-37986229D01*
X83409756Y-37986229D01*
X83415594Y-38027409D01*
X83426432Y-38027901D01*
X83434011Y-37985407D01*
X83428938Y-37967046D01*
X83414840Y-37955020D01*
X83409756Y-37986229D01*
X83044190Y-37986229D01*
X83042052Y-37980159D01*
X83007927Y-37898003D01*
X83005506Y-37893172D01*
X82970905Y-37789535D01*
X82973921Y-37703279D01*
X83007352Y-37645273D01*
X83063998Y-37626389D01*
X83136659Y-37657499D01*
X83152727Y-37670902D01*
X83191077Y-37699259D01*
X83231092Y-37702862D01*
X83292452Y-37679180D01*
X83360140Y-37644215D01*
X83479920Y-37590901D01*
X83564399Y-37583652D01*
X83622522Y-37627269D01*
G36*
X80224784Y-37613437D02*
G01*
X80304978Y-37662831D01*
X80402996Y-37735286D01*
X80505503Y-37819678D01*
X80599163Y-37904884D01*
X80670643Y-37979781D01*
X80706608Y-38033245D01*
X80708500Y-38042612D01*
X80681148Y-38100653D01*
X80616097Y-38146380D01*
X80543899Y-38161677D01*
X80498191Y-38142593D01*
X80420778Y-38094703D01*
X80340330Y-38037191D01*
X80233520Y-37940245D01*
X80156269Y-37838749D01*
X80112490Y-37743139D01*
X80106094Y-37663849D01*
X80140994Y-37611314D01*
X80175748Y-37598225D01*
X80224784Y-37613437D01*
G37*
X80224784Y-37613437D02*
X80304978Y-37662831D01*
X80402996Y-37735286D01*
X80505503Y-37819678D01*
X80599163Y-37904884D01*
X80670643Y-37979781D01*
X80706608Y-38033245D01*
X80708500Y-38042612D01*
X80681148Y-38100653D01*
X80616097Y-38146380D01*
X80543899Y-38161677D01*
X80498191Y-38142593D01*
X80420778Y-38094703D01*
X80340330Y-38037191D01*
X80233520Y-37940245D01*
X80156269Y-37838749D01*
X80112490Y-37743139D01*
X80106094Y-37663849D01*
X80140994Y-37611314D01*
X80175748Y-37598225D01*
X80224784Y-37613437D01*
G36*
X76098438Y-44809649D02*
G01*
X76212912Y-44857529D01*
X76252949Y-44880066D01*
X76369458Y-44978365D01*
X76448640Y-45106011D01*
X76486340Y-45247344D01*
X76478400Y-45386702D01*
X76420665Y-45508424D01*
X76419945Y-45509343D01*
X76366172Y-45562871D01*
X76300294Y-45586526D01*
X76205633Y-45590410D01*
X76091069Y-45579326D01*
X75985536Y-45554790D01*
X75960039Y-45545183D01*
X75873157Y-45494998D01*
X75774470Y-45420168D01*
X75677694Y-45333612D01*
X75596541Y-45248250D01*
X75548071Y-45181599D01*
X75899095Y-45181599D01*
X75936094Y-45219492D01*
X76013425Y-45273357D01*
X76020901Y-45277954D01*
X76099932Y-45316575D01*
X76173832Y-45338011D01*
X76222707Y-45337754D01*
X76231750Y-45325721D01*
X76204622Y-45252438D01*
X76138140Y-45213661D01*
X76119295Y-45212000D01*
X76031691Y-45200396D01*
X75962127Y-45180345D01*
X75906438Y-45166332D01*
X75899095Y-45181599D01*
X75548071Y-45181599D01*
X75544727Y-45177002D01*
X75533250Y-45143115D01*
X75558806Y-45071600D01*
X75621991Y-44993367D01*
X75702580Y-44927871D01*
X75780348Y-44894568D01*
X75792745Y-44893490D01*
X75877980Y-44873395D01*
X75928255Y-44845865D01*
X76008409Y-44806273D01*
X76098438Y-44809649D01*
G37*
X76098438Y-44809649D02*
X76212912Y-44857529D01*
X76252949Y-44880066D01*
X76369458Y-44978365D01*
X76448640Y-45106011D01*
X76486340Y-45247344D01*
X76478400Y-45386702D01*
X76420665Y-45508424D01*
X76419945Y-45509343D01*
X76366172Y-45562871D01*
X76300294Y-45586526D01*
X76205633Y-45590410D01*
X76091069Y-45579326D01*
X75985536Y-45554790D01*
X75960039Y-45545183D01*
X75873157Y-45494998D01*
X75774470Y-45420168D01*
X75677694Y-45333612D01*
X75596541Y-45248250D01*
X75548071Y-45181599D01*
X75899095Y-45181599D01*
X75936094Y-45219492D01*
X76013425Y-45273357D01*
X76020901Y-45277954D01*
X76099932Y-45316575D01*
X76173832Y-45338011D01*
X76222707Y-45337754D01*
X76231750Y-45325721D01*
X76204622Y-45252438D01*
X76138140Y-45213661D01*
X76119295Y-45212000D01*
X76031691Y-45200396D01*
X75962127Y-45180345D01*
X75906438Y-45166332D01*
X75899095Y-45181599D01*
X75548071Y-45181599D01*
X75544727Y-45177002D01*
X75533250Y-45143115D01*
X75558806Y-45071600D01*
X75621991Y-44993367D01*
X75702580Y-44927871D01*
X75780348Y-44894568D01*
X75792745Y-44893490D01*
X75877980Y-44873395D01*
X75928255Y-44845865D01*
X76008409Y-44806273D01*
X76098438Y-44809649D01*
G36*
X76750492Y-42980099D02*
G01*
X76846845Y-43030343D01*
X76898605Y-43060937D01*
X77025759Y-43152645D01*
X77138321Y-43261719D01*
X77224651Y-43374194D01*
X77273108Y-43476105D01*
X77279500Y-43517930D01*
X77268617Y-43618468D01*
X77228702Y-43680076D01*
X77148849Y-43711065D01*
X77018154Y-43719746D01*
X77014723Y-43719750D01*
X76887158Y-43714013D01*
X76792174Y-43691325D01*
X76699453Y-43643473D01*
X76674528Y-43627566D01*
X76552021Y-43539800D01*
X76441911Y-43446984D01*
X76355570Y-43360110D01*
X76348322Y-43350209D01*
X76752162Y-43350209D01*
X76781810Y-43384807D01*
X76803250Y-43402250D01*
X76873595Y-43449997D01*
X76912486Y-43462700D01*
X76912031Y-43440356D01*
X76882625Y-43402250D01*
X76821678Y-43354533D01*
X76774516Y-43339455D01*
X76752162Y-43350209D01*
X76348322Y-43350209D01*
X76304370Y-43290170D01*
X76295250Y-43260993D01*
X76319976Y-43197034D01*
X76377946Y-43131729D01*
X76444846Y-43089618D01*
X76469875Y-43084750D01*
X76526214Y-43063732D01*
X76581000Y-43021250D01*
X76633162Y-42977501D01*
X76684462Y-42963135D01*
X76750492Y-42980099D01*
G37*
X76750492Y-42980099D02*
X76846845Y-43030343D01*
X76898605Y-43060937D01*
X77025759Y-43152645D01*
X77138321Y-43261719D01*
X77224651Y-43374194D01*
X77273108Y-43476105D01*
X77279500Y-43517930D01*
X77268617Y-43618468D01*
X77228702Y-43680076D01*
X77148849Y-43711065D01*
X77018154Y-43719746D01*
X77014723Y-43719750D01*
X76887158Y-43714013D01*
X76792174Y-43691325D01*
X76699453Y-43643473D01*
X76674528Y-43627566D01*
X76552021Y-43539800D01*
X76441911Y-43446984D01*
X76355570Y-43360110D01*
X76348322Y-43350209D01*
X76752162Y-43350209D01*
X76781810Y-43384807D01*
X76803250Y-43402250D01*
X76873595Y-43449997D01*
X76912486Y-43462700D01*
X76912031Y-43440356D01*
X76882625Y-43402250D01*
X76821678Y-43354533D01*
X76774516Y-43339455D01*
X76752162Y-43350209D01*
X76348322Y-43350209D01*
X76304370Y-43290170D01*
X76295250Y-43260993D01*
X76319976Y-43197034D01*
X76377946Y-43131729D01*
X76444846Y-43089618D01*
X76469875Y-43084750D01*
X76526214Y-43063732D01*
X76581000Y-43021250D01*
X76633162Y-42977501D01*
X76684462Y-42963135D01*
X76750492Y-42980099D01*
G36*
X79720542Y-35620228D02*
G01*
X79768955Y-35671125D01*
X79820783Y-35728235D01*
X79867856Y-35750500D01*
X79922837Y-35771501D01*
X79981934Y-35817684D01*
X80019678Y-35864350D01*
X80036029Y-35919070D01*
X80034887Y-36003147D01*
X80028153Y-36070172D01*
X79999147Y-36229436D01*
X79948858Y-36413876D01*
X79885402Y-36598751D01*
X79816891Y-36759321D01*
X79778982Y-36830000D01*
X79637151Y-37037970D01*
X79494706Y-37187563D01*
X79344971Y-37283614D01*
X79181271Y-37330955D01*
X79077462Y-37338000D01*
X78971357Y-37333764D01*
X78903688Y-37314720D01*
X78849615Y-37271361D01*
X78822197Y-37240313D01*
X78774295Y-37172373D01*
X78749325Y-37098822D01*
X78740518Y-36995351D01*
X78740000Y-36945212D01*
X78744285Y-36838841D01*
X78761202Y-36745632D01*
X78790355Y-36662944D01*
X79412025Y-36662944D01*
X79433819Y-36743968D01*
X79439164Y-36751425D01*
X79470264Y-36776675D01*
X79500576Y-36759112D01*
X79538482Y-36702850D01*
X79578654Y-36623799D01*
X79627835Y-36508813D01*
X79675563Y-36382397D01*
X79676765Y-36378966D01*
X79727344Y-36217382D01*
X79752313Y-36097638D01*
X79750938Y-36025081D01*
X79728111Y-36004500D01*
X79696237Y-36027895D01*
X79638806Y-36089405D01*
X79567913Y-36176012D01*
X79563859Y-36181251D01*
X79485101Y-36291997D01*
X79440257Y-36383666D01*
X79418230Y-36481973D01*
X79413195Y-36530453D01*
X79412025Y-36662944D01*
X78790355Y-36662944D01*
X78796841Y-36644548D01*
X78857296Y-36514549D01*
X78874937Y-36479171D01*
X78982712Y-36284088D01*
X79103481Y-36098136D01*
X79230153Y-35929525D01*
X79355637Y-35786468D01*
X79472839Y-35677177D01*
X79574669Y-35609864D01*
X79641314Y-35591750D01*
X79720542Y-35620228D01*
G37*
X79720542Y-35620228D02*
X79768955Y-35671125D01*
X79820783Y-35728235D01*
X79867856Y-35750500D01*
X79922837Y-35771501D01*
X79981934Y-35817684D01*
X80019678Y-35864350D01*
X80036029Y-35919070D01*
X80034887Y-36003147D01*
X80028153Y-36070172D01*
X79999147Y-36229436D01*
X79948858Y-36413876D01*
X79885402Y-36598751D01*
X79816891Y-36759321D01*
X79778982Y-36830000D01*
X79637151Y-37037970D01*
X79494706Y-37187563D01*
X79344971Y-37283614D01*
X79181271Y-37330955D01*
X79077462Y-37338000D01*
X78971357Y-37333764D01*
X78903688Y-37314720D01*
X78849615Y-37271361D01*
X78822197Y-37240313D01*
X78774295Y-37172373D01*
X78749325Y-37098822D01*
X78740518Y-36995351D01*
X78740000Y-36945212D01*
X78744285Y-36838841D01*
X78761202Y-36745632D01*
X78790355Y-36662944D01*
X79412025Y-36662944D01*
X79433819Y-36743968D01*
X79439164Y-36751425D01*
X79470264Y-36776675D01*
X79500576Y-36759112D01*
X79538482Y-36702850D01*
X79578654Y-36623799D01*
X79627835Y-36508813D01*
X79675563Y-36382397D01*
X79676765Y-36378966D01*
X79727344Y-36217382D01*
X79752313Y-36097638D01*
X79750938Y-36025081D01*
X79728111Y-36004500D01*
X79696237Y-36027895D01*
X79638806Y-36089405D01*
X79567913Y-36176012D01*
X79563859Y-36181251D01*
X79485101Y-36291997D01*
X79440257Y-36383666D01*
X79418230Y-36481973D01*
X79413195Y-36530453D01*
X79412025Y-36662944D01*
X78790355Y-36662944D01*
X78796841Y-36644548D01*
X78857296Y-36514549D01*
X78874937Y-36479171D01*
X78982712Y-36284088D01*
X79103481Y-36098136D01*
X79230153Y-35929525D01*
X79355637Y-35786468D01*
X79472839Y-35677177D01*
X79574669Y-35609864D01*
X79641314Y-35591750D01*
X79720542Y-35620228D01*
G36*
X77761209Y-34851205D02*
G01*
X77918768Y-34880137D01*
X78023058Y-34932955D01*
X78082196Y-35017299D01*
X78104300Y-35140807D01*
X78105000Y-35174728D01*
X78078072Y-35387928D01*
X78002090Y-35618396D01*
X77884258Y-35853947D01*
X77731779Y-36082398D01*
X77551854Y-36291563D01*
X77351688Y-36469258D01*
X77330298Y-36485221D01*
X77260082Y-36531910D01*
X77193917Y-36559206D01*
X77110865Y-36572182D01*
X76989989Y-36575915D01*
X76955793Y-36576000D01*
X76825574Y-36573893D01*
X76741037Y-36564768D01*
X76684424Y-36544411D01*
X76637977Y-36508613D01*
X76627181Y-36498068D01*
X76567528Y-36395868D01*
X76548366Y-36257452D01*
X76570356Y-36096058D01*
X76599850Y-36004500D01*
X77089000Y-36004500D01*
X77100616Y-36030633D01*
X77110166Y-36025666D01*
X77113966Y-35987986D01*
X77110166Y-35983333D01*
X77091291Y-35987691D01*
X77089000Y-36004500D01*
X76599850Y-36004500D01*
X76602200Y-35997205D01*
X76671756Y-35852454D01*
X76685907Y-35828954D01*
X77384931Y-35828954D01*
X77405574Y-35926980D01*
X77452112Y-35970686D01*
X77468766Y-35972750D01*
X77495357Y-35947890D01*
X77545702Y-35881896D01*
X77610160Y-35787641D01*
X77628240Y-35759785D01*
X77720598Y-35595099D01*
X77793264Y-35424829D01*
X77838778Y-35268726D01*
X77850623Y-35171062D01*
X77830351Y-35122049D01*
X77776628Y-35114157D01*
X77701525Y-35144239D01*
X77617114Y-35209145D01*
X77587439Y-35239690D01*
X77500478Y-35341553D01*
X77446909Y-35426090D01*
X77415595Y-35518267D01*
X77395397Y-35643047D01*
X77391051Y-35679876D01*
X77384931Y-35828954D01*
X76685907Y-35828954D01*
X76773627Y-35683285D01*
X76897878Y-35502574D01*
X77034576Y-35323196D01*
X77173788Y-35158024D01*
X77305580Y-35019933D01*
X77420020Y-34921800D01*
X77444960Y-34904888D01*
X77520289Y-34863394D01*
X77591280Y-34844632D01*
X77683527Y-34844257D01*
X77761209Y-34851205D01*
G37*
X77761209Y-34851205D02*
X77918768Y-34880137D01*
X78023058Y-34932955D01*
X78082196Y-35017299D01*
X78104300Y-35140807D01*
X78105000Y-35174728D01*
X78078072Y-35387928D01*
X78002090Y-35618396D01*
X77884258Y-35853947D01*
X77731779Y-36082398D01*
X77551854Y-36291563D01*
X77351688Y-36469258D01*
X77330298Y-36485221D01*
X77260082Y-36531910D01*
X77193917Y-36559206D01*
X77110865Y-36572182D01*
X76989989Y-36575915D01*
X76955793Y-36576000D01*
X76825574Y-36573893D01*
X76741037Y-36564768D01*
X76684424Y-36544411D01*
X76637977Y-36508613D01*
X76627181Y-36498068D01*
X76567528Y-36395868D01*
X76548366Y-36257452D01*
X76570356Y-36096058D01*
X76599850Y-36004500D01*
X77089000Y-36004500D01*
X77100616Y-36030633D01*
X77110166Y-36025666D01*
X77113966Y-35987986D01*
X77110166Y-35983333D01*
X77091291Y-35987691D01*
X77089000Y-36004500D01*
X76599850Y-36004500D01*
X76602200Y-35997205D01*
X76671756Y-35852454D01*
X76685907Y-35828954D01*
X77384931Y-35828954D01*
X77405574Y-35926980D01*
X77452112Y-35970686D01*
X77468766Y-35972750D01*
X77495357Y-35947890D01*
X77545702Y-35881896D01*
X77610160Y-35787641D01*
X77628240Y-35759785D01*
X77720598Y-35595099D01*
X77793264Y-35424829D01*
X77838778Y-35268726D01*
X77850623Y-35171062D01*
X77830351Y-35122049D01*
X77776628Y-35114157D01*
X77701525Y-35144239D01*
X77617114Y-35209145D01*
X77587439Y-35239690D01*
X77500478Y-35341553D01*
X77446909Y-35426090D01*
X77415595Y-35518267D01*
X77395397Y-35643047D01*
X77391051Y-35679876D01*
X77384931Y-35828954D01*
X76685907Y-35828954D01*
X76773627Y-35683285D01*
X76897878Y-35502574D01*
X77034576Y-35323196D01*
X77173788Y-35158024D01*
X77305580Y-35019933D01*
X77420020Y-34921800D01*
X77444960Y-34904888D01*
X77520289Y-34863394D01*
X77591280Y-34844632D01*
X77683527Y-34844257D01*
X77761209Y-34851205D01*
D12*
X60600000Y-56610001D02*
X60600000Y-57435001D01*
X60600000Y-41480001D02*
X62400000Y-41480001D01*
X60600000Y-40655001D02*
X60600000Y-41480001D01*
X56090000Y-38500001D02*
X56630000Y-38500001D01*
X56090000Y-37475001D02*
X56090000Y-38500001D01*
X54980000Y-37475001D02*
X56090000Y-37475001D01*
X54980000Y-60615001D02*
X54980000Y-37475001D01*
X56090000Y-60615001D02*
X54980000Y-60615001D01*
X56090000Y-59590001D02*
X56090000Y-60615001D01*
X56630000Y-59590001D02*
X56090000Y-59590001D01*
D11*
G36*
X62173886Y-66719505D02*
G01*
X62248539Y-66756727D01*
X62314431Y-66825261D01*
X62332577Y-66850648D01*
X62352345Y-66883866D01*
X62365172Y-66919945D01*
X62372510Y-66968098D01*
X62375813Y-67037536D01*
X62376538Y-67129206D01*
X62373263Y-67254830D01*
X62361877Y-67349154D01*
X62340041Y-67419523D01*
X62305419Y-67473286D01*
X62255670Y-67517788D01*
X62252014Y-67520423D01*
X62202985Y-67547377D01*
X62143945Y-67560712D01*
X62068859Y-67564000D01*
X61946795Y-67564000D01*
X61946744Y-67682497D01*
X61945608Y-67748492D01*
X61938686Y-67787202D01*
X61920598Y-67810419D01*
X61885962Y-67829933D01*
X61877645Y-67833920D01*
X61838720Y-67852603D01*
X61808583Y-67864403D01*
X61786174Y-67865422D01*
X61770433Y-67851761D01*
X61760302Y-67819522D01*
X61754723Y-67764804D01*
X61752635Y-67683711D01*
X61752981Y-67572344D01*
X61754700Y-67426802D01*
X61755237Y-67383269D01*
X61757172Y-67233205D01*
X61758904Y-67135042D01*
X61946692Y-67135042D01*
X61947748Y-67218364D01*
X61952438Y-67272880D01*
X61963051Y-67308837D01*
X61981872Y-67336482D01*
X61994650Y-67349965D01*
X62046890Y-67389417D01*
X62093142Y-67392628D01*
X62140867Y-67360049D01*
X62142077Y-67358846D01*
X62161494Y-67333668D01*
X62173307Y-67299447D01*
X62179265Y-67246748D01*
X62181120Y-67166131D01*
X62181154Y-67148271D01*
X62176670Y-67037175D01*
X62162074Y-66960161D01*
X62135650Y-66913147D01*
X62095683Y-66892050D01*
X62072584Y-66889923D01*
X62017762Y-66899900D01*
X61980158Y-66932752D01*
X61957523Y-66992857D01*
X61947606Y-67084598D01*
X61946692Y-67135042D01*
X61758904Y-67135042D01*
X61759222Y-67117060D01*
X61761873Y-67029679D01*
X61765606Y-66965905D01*
X61770907Y-66920582D01*
X61778258Y-66888555D01*
X61788143Y-66864668D01*
X61801046Y-66843764D01*
X61806579Y-66835898D01*
X61879969Y-66761595D01*
X61972760Y-66719467D01*
X62080096Y-66707722D01*
X62173886Y-66719505D01*
G37*
X62173886Y-66719505D02*
X62248539Y-66756727D01*
X62314431Y-66825261D01*
X62332577Y-66850648D01*
X62352345Y-66883866D01*
X62365172Y-66919945D01*
X62372510Y-66968098D01*
X62375813Y-67037536D01*
X62376538Y-67129206D01*
X62373263Y-67254830D01*
X62361877Y-67349154D01*
X62340041Y-67419523D01*
X62305419Y-67473286D01*
X62255670Y-67517788D01*
X62252014Y-67520423D01*
X62202985Y-67547377D01*
X62143945Y-67560712D01*
X62068859Y-67564000D01*
X61946795Y-67564000D01*
X61946744Y-67682497D01*
X61945608Y-67748492D01*
X61938686Y-67787202D01*
X61920598Y-67810419D01*
X61885962Y-67829933D01*
X61877645Y-67833920D01*
X61838720Y-67852603D01*
X61808583Y-67864403D01*
X61786174Y-67865422D01*
X61770433Y-67851761D01*
X61760302Y-67819522D01*
X61754723Y-67764804D01*
X61752635Y-67683711D01*
X61752981Y-67572344D01*
X61754700Y-67426802D01*
X61755237Y-67383269D01*
X61757172Y-67233205D01*
X61758904Y-67135042D01*
X61946692Y-67135042D01*
X61947748Y-67218364D01*
X61952438Y-67272880D01*
X61963051Y-67308837D01*
X61981872Y-67336482D01*
X61994650Y-67349965D01*
X62046890Y-67389417D01*
X62093142Y-67392628D01*
X62140867Y-67360049D01*
X62142077Y-67358846D01*
X62161494Y-67333668D01*
X62173307Y-67299447D01*
X62179265Y-67246748D01*
X62181120Y-67166131D01*
X62181154Y-67148271D01*
X62176670Y-67037175D01*
X62162074Y-66960161D01*
X62135650Y-66913147D01*
X62095683Y-66892050D01*
X62072584Y-66889923D01*
X62017762Y-66899900D01*
X61980158Y-66932752D01*
X61957523Y-66992857D01*
X61947606Y-67084598D01*
X61946692Y-67135042D01*
X61758904Y-67135042D01*
X61759222Y-67117060D01*
X61761873Y-67029679D01*
X61765606Y-66965905D01*
X61770907Y-66920582D01*
X61778258Y-66888555D01*
X61788143Y-66864668D01*
X61801046Y-66843764D01*
X61806579Y-66835898D01*
X61879969Y-66761595D01*
X61972760Y-66719467D01*
X62080096Y-66707722D01*
X62173886Y-66719505D01*
G36*
X63676664Y-66730089D02*
G01*
X63739367Y-66766358D01*
X63782961Y-66802358D01*
X63814845Y-66840075D01*
X63836810Y-66886199D01*
X63850649Y-66947421D01*
X63858153Y-67030431D01*
X63861117Y-67141919D01*
X63861461Y-67222062D01*
X63861461Y-67517065D01*
X63695385Y-67591515D01*
X63685615Y-67268402D01*
X63681579Y-67147729D01*
X63677344Y-67060141D01*
X63672097Y-66999650D01*
X63665025Y-66960268D01*
X63655311Y-66936007D01*
X63642144Y-66920880D01*
X63637919Y-66917606D01*
X63573909Y-66892034D01*
X63509208Y-66902153D01*
X63470692Y-66929000D01*
X63455025Y-66948024D01*
X63444180Y-66972988D01*
X63437288Y-67010834D01*
X63433479Y-67068502D01*
X63431883Y-67152935D01*
X63431615Y-67240928D01*
X63431563Y-67351323D01*
X63429672Y-67429463D01*
X63423345Y-67482165D01*
X63409983Y-67516242D01*
X63386985Y-67538511D01*
X63351754Y-67555787D01*
X63304697Y-67573738D01*
X63253303Y-67593278D01*
X63259421Y-67246485D01*
X63261884Y-67121468D01*
X63264767Y-67029082D01*
X63268898Y-66962881D01*
X63275107Y-66916420D01*
X63284226Y-66883256D01*
X63297083Y-66856944D01*
X63312584Y-66833729D01*
X63387371Y-66759569D01*
X63478628Y-66716684D01*
X63577883Y-66706412D01*
X63676664Y-66730089D01*
G37*
X63676664Y-66730089D02*
X63739367Y-66766358D01*
X63782961Y-66802358D01*
X63814845Y-66840075D01*
X63836810Y-66886199D01*
X63850649Y-66947421D01*
X63858153Y-67030431D01*
X63861117Y-67141919D01*
X63861461Y-67222062D01*
X63861461Y-67517065D01*
X63695385Y-67591515D01*
X63685615Y-67268402D01*
X63681579Y-67147729D01*
X63677344Y-67060141D01*
X63672097Y-66999650D01*
X63665025Y-66960268D01*
X63655311Y-66936007D01*
X63642144Y-66920880D01*
X63637919Y-66917606D01*
X63573909Y-66892034D01*
X63509208Y-66902153D01*
X63470692Y-66929000D01*
X63455025Y-66948024D01*
X63444180Y-66972988D01*
X63437288Y-67010834D01*
X63433479Y-67068502D01*
X63431883Y-67152935D01*
X63431615Y-67240928D01*
X63431563Y-67351323D01*
X63429672Y-67429463D01*
X63423345Y-67482165D01*
X63409983Y-67516242D01*
X63386985Y-67538511D01*
X63351754Y-67555787D01*
X63304697Y-67573738D01*
X63253303Y-67593278D01*
X63259421Y-67246485D01*
X63261884Y-67121468D01*
X63264767Y-67029082D01*
X63268898Y-66962881D01*
X63275107Y-66916420D01*
X63284226Y-66883256D01*
X63297083Y-66856944D01*
X63312584Y-66833729D01*
X63387371Y-66759569D01*
X63478628Y-66716684D01*
X63577883Y-66706412D01*
X63676664Y-66730089D01*
G36*
X61421886Y-66722256D02*
G01*
X61513464Y-66770409D01*
X61581049Y-66847905D01*
X61605057Y-66897727D01*
X61623738Y-66972533D01*
X61633301Y-67067052D01*
X61634208Y-67170210D01*
X61626921Y-67270935D01*
X61611903Y-67358153D01*
X61589615Y-67420791D01*
X61582765Y-67431579D01*
X61501632Y-67512105D01*
X61405266Y-67560336D01*
X61300701Y-67574450D01*
X61194968Y-67552629D01*
X61165543Y-67539547D01*
X61108241Y-67499231D01*
X61057950Y-67445775D01*
X61053197Y-67438995D01*
X61033878Y-67406321D01*
X61021108Y-67371394D01*
X61013564Y-67325414D01*
X61009924Y-67259584D01*
X61008865Y-67165105D01*
X61008846Y-67143923D01*
X61008894Y-67137182D01*
X61204231Y-67137182D01*
X61205368Y-67226349D01*
X61209841Y-67285520D01*
X61219246Y-67323741D01*
X61235176Y-67350053D01*
X61243308Y-67358846D01*
X61290058Y-67392261D01*
X61335447Y-67390737D01*
X61381340Y-67361752D01*
X61408712Y-67330809D01*
X61424923Y-67285643D01*
X61434026Y-67214420D01*
X61434651Y-67206114D01*
X61436204Y-67077037D01*
X61419965Y-66981172D01*
X61386152Y-66919107D01*
X61334984Y-66891432D01*
X61316720Y-66889923D01*
X61268760Y-66897513D01*
X61235953Y-66923808D01*
X61215895Y-66974095D01*
X61206178Y-67053664D01*
X61204231Y-67137182D01*
X61008894Y-67137182D01*
X61009574Y-67043249D01*
X61012629Y-66972906D01*
X61019322Y-66924163D01*
X61030960Y-66888288D01*
X61048853Y-66856548D01*
X61052808Y-66850648D01*
X61119267Y-66771104D01*
X61191685Y-66724929D01*
X61279849Y-66706599D01*
X61309787Y-66705703D01*
X61421886Y-66722256D01*
G37*
X61421886Y-66722256D02*
X61513464Y-66770409D01*
X61581049Y-66847905D01*
X61605057Y-66897727D01*
X61623738Y-66972533D01*
X61633301Y-67067052D01*
X61634208Y-67170210D01*
X61626921Y-67270935D01*
X61611903Y-67358153D01*
X61589615Y-67420791D01*
X61582765Y-67431579D01*
X61501632Y-67512105D01*
X61405266Y-67560336D01*
X61300701Y-67574450D01*
X61194968Y-67552629D01*
X61165543Y-67539547D01*
X61108241Y-67499231D01*
X61057950Y-67445775D01*
X61053197Y-67438995D01*
X61033878Y-67406321D01*
X61021108Y-67371394D01*
X61013564Y-67325414D01*
X61009924Y-67259584D01*
X61008865Y-67165105D01*
X61008846Y-67143923D01*
X61008894Y-67137182D01*
X61204231Y-67137182D01*
X61205368Y-67226349D01*
X61209841Y-67285520D01*
X61219246Y-67323741D01*
X61235176Y-67350053D01*
X61243308Y-67358846D01*
X61290058Y-67392261D01*
X61335447Y-67390737D01*
X61381340Y-67361752D01*
X61408712Y-67330809D01*
X61424923Y-67285643D01*
X61434026Y-67214420D01*
X61434651Y-67206114D01*
X61436204Y-67077037D01*
X61419965Y-66981172D01*
X61386152Y-66919107D01*
X61334984Y-66891432D01*
X61316720Y-66889923D01*
X61268760Y-66897513D01*
X61235953Y-66923808D01*
X61215895Y-66974095D01*
X61206178Y-67053664D01*
X61204231Y-67137182D01*
X61008894Y-67137182D01*
X61009574Y-67043249D01*
X61012629Y-66972906D01*
X61019322Y-66924163D01*
X61030960Y-66888288D01*
X61048853Y-66856548D01*
X61052808Y-66850648D01*
X61119267Y-66771104D01*
X61191685Y-66724929D01*
X61279849Y-66706599D01*
X61309787Y-66705703D01*
X61421886Y-66722256D01*
G36*
X62939254Y-66734745D02*
G01*
X63016286Y-66786567D01*
X63075816Y-66861412D01*
X63111378Y-66956654D01*
X63118571Y-67026756D01*
X63117754Y-67056009D01*
X63110914Y-67078407D01*
X63092112Y-67098474D01*
X63055408Y-67120733D01*
X62994862Y-67149709D01*
X62904534Y-67189927D01*
X62904077Y-67190129D01*
X62820933Y-67228210D01*
X62752753Y-67262025D01*
X62706505Y-67287933D01*
X62689158Y-67302295D01*
X62689154Y-67302411D01*
X62704443Y-67333685D01*
X62740196Y-67368157D01*
X62781242Y-67392990D01*
X62802037Y-67397923D01*
X62858770Y-67380862D01*
X62907627Y-67338133D01*
X62931465Y-67291155D01*
X62954397Y-67256522D01*
X62999318Y-67217081D01*
X63052123Y-67183009D01*
X63098710Y-67164480D01*
X63108452Y-67163462D01*
X63119418Y-67180215D01*
X63120079Y-67223039D01*
X63112020Y-67280781D01*
X63096827Y-67342289D01*
X63076086Y-67396409D01*
X63075038Y-67398510D01*
X63012621Y-67485660D01*
X62931726Y-67544939D01*
X62839856Y-67574034D01*
X62744513Y-67570634D01*
X62653198Y-67532428D01*
X62649138Y-67529741D01*
X62577306Y-67464642D01*
X62530073Y-67379705D01*
X62503934Y-67268021D01*
X62500426Y-67236643D01*
X62494213Y-67088536D01*
X62501661Y-67019468D01*
X62689154Y-67019468D01*
X62691590Y-67062552D01*
X62704914Y-67075126D01*
X62738132Y-67065719D01*
X62790494Y-67043483D01*
X62849024Y-67015610D01*
X62850479Y-67014872D01*
X62900089Y-66988777D01*
X62920000Y-66971363D01*
X62915090Y-66953107D01*
X62894416Y-66929120D01*
X62841819Y-66894406D01*
X62785177Y-66891856D01*
X62734369Y-66917119D01*
X62699276Y-66965847D01*
X62689154Y-67019468D01*
X62501661Y-67019468D01*
X62506992Y-66970036D01*
X62539778Y-66876055D01*
X62585421Y-66810215D01*
X62667802Y-66743681D01*
X62758546Y-66710676D01*
X62851185Y-66708573D01*
X62939254Y-66734745D01*
G37*
X62939254Y-66734745D02*
X63016286Y-66786567D01*
X63075816Y-66861412D01*
X63111378Y-66956654D01*
X63118571Y-67026756D01*
X63117754Y-67056009D01*
X63110914Y-67078407D01*
X63092112Y-67098474D01*
X63055408Y-67120733D01*
X62994862Y-67149709D01*
X62904534Y-67189927D01*
X62904077Y-67190129D01*
X62820933Y-67228210D01*
X62752753Y-67262025D01*
X62706505Y-67287933D01*
X62689158Y-67302295D01*
X62689154Y-67302411D01*
X62704443Y-67333685D01*
X62740196Y-67368157D01*
X62781242Y-67392990D01*
X62802037Y-67397923D01*
X62858770Y-67380862D01*
X62907627Y-67338133D01*
X62931465Y-67291155D01*
X62954397Y-67256522D01*
X62999318Y-67217081D01*
X63052123Y-67183009D01*
X63098710Y-67164480D01*
X63108452Y-67163462D01*
X63119418Y-67180215D01*
X63120079Y-67223039D01*
X63112020Y-67280781D01*
X63096827Y-67342289D01*
X63076086Y-67396409D01*
X63075038Y-67398510D01*
X63012621Y-67485660D01*
X62931726Y-67544939D01*
X62839856Y-67574034D01*
X62744513Y-67570634D01*
X62653198Y-67532428D01*
X62649138Y-67529741D01*
X62577306Y-67464642D01*
X62530073Y-67379705D01*
X62503934Y-67268021D01*
X62500426Y-67236643D01*
X62494213Y-67088536D01*
X62501661Y-67019468D01*
X62689154Y-67019468D01*
X62691590Y-67062552D01*
X62704914Y-67075126D01*
X62738132Y-67065719D01*
X62790494Y-67043483D01*
X62849024Y-67015610D01*
X62850479Y-67014872D01*
X62900089Y-66988777D01*
X62920000Y-66971363D01*
X62915090Y-66953107D01*
X62894416Y-66929120D01*
X62841819Y-66894406D01*
X62785177Y-66891856D01*
X62734369Y-66917119D01*
X62699276Y-66965847D01*
X62689154Y-67019468D01*
X62501661Y-67019468D01*
X62506992Y-66970036D01*
X62539778Y-66876055D01*
X62585421Y-66810215D01*
X62667802Y-66743681D01*
X62758546Y-66710676D01*
X62851185Y-66708573D01*
X62939254Y-66734745D01*
G36*
X64564846Y-66627120D02*
G01*
X64570572Y-66706980D01*
X64577149Y-66754039D01*
X64586262Y-66774566D01*
X64599598Y-66774829D01*
X64603923Y-66772378D01*
X64661444Y-66754636D01*
X64736268Y-66755672D01*
X64812339Y-66773910D01*
X64859918Y-66797505D01*
X64908702Y-66835198D01*
X64944364Y-66877855D01*
X64968845Y-66932057D01*
X64984087Y-67004384D01*
X64992030Y-67101419D01*
X64994616Y-67229742D01*
X64994662Y-67254358D01*
X64994692Y-67530870D01*
X64933161Y-67552320D01*
X64889459Y-67566912D01*
X64865482Y-67573706D01*
X64864777Y-67573769D01*
X64862415Y-67555345D01*
X64860406Y-67504526D01*
X64858901Y-67427993D01*
X64858053Y-67332430D01*
X64857923Y-67274329D01*
X64857651Y-67159771D01*
X64856252Y-67077667D01*
X64852849Y-67021393D01*
X64846567Y-66984326D01*
X64836529Y-66959844D01*
X64821861Y-66941325D01*
X64812702Y-66932406D01*
X64749789Y-66896466D01*
X64681136Y-66893775D01*
X64618848Y-66924170D01*
X64607329Y-66935144D01*
X64590433Y-66955779D01*
X64578714Y-66980256D01*
X64571233Y-67015647D01*
X64567054Y-67069026D01*
X64565237Y-67147466D01*
X64564846Y-67255617D01*
X64564846Y-67530870D01*
X64503315Y-67552320D01*
X64459613Y-67566912D01*
X64435636Y-67573706D01*
X64434930Y-67573769D01*
X64433126Y-67555069D01*
X64431500Y-67502322D01*
X64430117Y-67420557D01*
X64429042Y-67314805D01*
X64428340Y-67190094D01*
X64428077Y-67051455D01*
X64428077Y-66516806D01*
X64555077Y-66463236D01*
X64564846Y-66627120D01*
G37*
X64564846Y-66627120D02*
X64570572Y-66706980D01*
X64577149Y-66754039D01*
X64586262Y-66774566D01*
X64599598Y-66774829D01*
X64603923Y-66772378D01*
X64661444Y-66754636D01*
X64736268Y-66755672D01*
X64812339Y-66773910D01*
X64859918Y-66797505D01*
X64908702Y-66835198D01*
X64944364Y-66877855D01*
X64968845Y-66932057D01*
X64984087Y-67004384D01*
X64992030Y-67101419D01*
X64994616Y-67229742D01*
X64994662Y-67254358D01*
X64994692Y-67530870D01*
X64933161Y-67552320D01*
X64889459Y-67566912D01*
X64865482Y-67573706D01*
X64864777Y-67573769D01*
X64862415Y-67555345D01*
X64860406Y-67504526D01*
X64858901Y-67427993D01*
X64858053Y-67332430D01*
X64857923Y-67274329D01*
X64857651Y-67159771D01*
X64856252Y-67077667D01*
X64852849Y-67021393D01*
X64846567Y-66984326D01*
X64836529Y-66959844D01*
X64821861Y-66941325D01*
X64812702Y-66932406D01*
X64749789Y-66896466D01*
X64681136Y-66893775D01*
X64618848Y-66924170D01*
X64607329Y-66935144D01*
X64590433Y-66955779D01*
X64578714Y-66980256D01*
X64571233Y-67015647D01*
X64567054Y-67069026D01*
X64565237Y-67147466D01*
X64564846Y-67255617D01*
X64564846Y-67530870D01*
X64503315Y-67552320D01*
X64459613Y-67566912D01*
X64435636Y-67573706D01*
X64434930Y-67573769D01*
X64433126Y-67555069D01*
X64431500Y-67502322D01*
X64430117Y-67420557D01*
X64429042Y-67314805D01*
X64428340Y-67190094D01*
X64428077Y-67051455D01*
X64428077Y-66516806D01*
X64555077Y-66463236D01*
X64564846Y-66627120D01*
G36*
X65458501Y-66761303D02*
G01*
X65535060Y-66789733D01*
X65535936Y-66790279D01*
X65583285Y-66825127D01*
X65618241Y-66865852D01*
X65642825Y-66918925D01*
X65659062Y-66990814D01*
X65668975Y-67087992D01*
X65674586Y-67216928D01*
X65675077Y-67235298D01*
X65682141Y-67512287D01*
X65622695Y-67543028D01*
X65579681Y-67563802D01*
X65553710Y-67573646D01*
X65552509Y-67573769D01*
X65548014Y-67555606D01*
X65544444Y-67506612D01*
X65542248Y-67435031D01*
X65541769Y-67377068D01*
X65541758Y-67283170D01*
X65537466Y-67224203D01*
X65522503Y-67196079D01*
X65490482Y-67194706D01*
X65435014Y-67215998D01*
X65351269Y-67255136D01*
X65289689Y-67287643D01*
X65258017Y-67315845D01*
X65248706Y-67346582D01*
X65248692Y-67348104D01*
X65264057Y-67401054D01*
X65309547Y-67429660D01*
X65379166Y-67433803D01*
X65429313Y-67433084D01*
X65455754Y-67447527D01*
X65472243Y-67482218D01*
X65481733Y-67526416D01*
X65468057Y-67551493D01*
X65462907Y-67555082D01*
X65414425Y-67569496D01*
X65346531Y-67571537D01*
X65276612Y-67561983D01*
X65227068Y-67544522D01*
X65158570Y-67486364D01*
X65119634Y-67405408D01*
X65111923Y-67342160D01*
X65117807Y-67285111D01*
X65139101Y-67238542D01*
X65181265Y-67197181D01*
X65249759Y-67155755D01*
X65350044Y-67108993D01*
X65356154Y-67106350D01*
X65446490Y-67064617D01*
X65502235Y-67030391D01*
X65526129Y-66999635D01*
X65520913Y-66968311D01*
X65489328Y-66932383D01*
X65479883Y-66924116D01*
X65416617Y-66892058D01*
X65351064Y-66893407D01*
X65293972Y-66924838D01*
X65256093Y-66983024D01*
X65252574Y-66994446D01*
X65218300Y-67049837D01*
X65174809Y-67076518D01*
X65111923Y-67102960D01*
X65111923Y-67034548D01*
X65131052Y-66935110D01*
X65187831Y-66843902D01*
X65217378Y-66813389D01*
X65284542Y-66774228D01*
X65369956Y-66756500D01*
X65458501Y-66761303D01*
G37*
X65458501Y-66761303D02*
X65535060Y-66789733D01*
X65535936Y-66790279D01*
X65583285Y-66825127D01*
X65618241Y-66865852D01*
X65642825Y-66918925D01*
X65659062Y-66990814D01*
X65668975Y-67087992D01*
X65674586Y-67216928D01*
X65675077Y-67235298D01*
X65682141Y-67512287D01*
X65622695Y-67543028D01*
X65579681Y-67563802D01*
X65553710Y-67573646D01*
X65552509Y-67573769D01*
X65548014Y-67555606D01*
X65544444Y-67506612D01*
X65542248Y-67435031D01*
X65541769Y-67377068D01*
X65541758Y-67283170D01*
X65537466Y-67224203D01*
X65522503Y-67196079D01*
X65490482Y-67194706D01*
X65435014Y-67215998D01*
X65351269Y-67255136D01*
X65289689Y-67287643D01*
X65258017Y-67315845D01*
X65248706Y-67346582D01*
X65248692Y-67348104D01*
X65264057Y-67401054D01*
X65309547Y-67429660D01*
X65379166Y-67433803D01*
X65429313Y-67433084D01*
X65455754Y-67447527D01*
X65472243Y-67482218D01*
X65481733Y-67526416D01*
X65468057Y-67551493D01*
X65462907Y-67555082D01*
X65414425Y-67569496D01*
X65346531Y-67571537D01*
X65276612Y-67561983D01*
X65227068Y-67544522D01*
X65158570Y-67486364D01*
X65119634Y-67405408D01*
X65111923Y-67342160D01*
X65117807Y-67285111D01*
X65139101Y-67238542D01*
X65181265Y-67197181D01*
X65249759Y-67155755D01*
X65350044Y-67108993D01*
X65356154Y-67106350D01*
X65446490Y-67064617D01*
X65502235Y-67030391D01*
X65526129Y-66999635D01*
X65520913Y-66968311D01*
X65489328Y-66932383D01*
X65479883Y-66924116D01*
X65416617Y-66892058D01*
X65351064Y-66893407D01*
X65293972Y-66924838D01*
X65256093Y-66983024D01*
X65252574Y-66994446D01*
X65218300Y-67049837D01*
X65174809Y-67076518D01*
X65111923Y-67102960D01*
X65111923Y-67034548D01*
X65131052Y-66935110D01*
X65187831Y-66843902D01*
X65217378Y-66813389D01*
X65284542Y-66774228D01*
X65369956Y-66756500D01*
X65458501Y-66761303D01*
G36*
X66118362Y-66759670D02*
G01*
X66207117Y-66792421D01*
X66279022Y-66850350D01*
X66307144Y-66891128D01*
X66337802Y-66965954D01*
X66337165Y-67020058D01*
X66304987Y-67056446D01*
X66293081Y-67062633D01*
X66241675Y-67081925D01*
X66215422Y-67076982D01*
X66206530Y-67044587D01*
X66206077Y-67026692D01*
X66189797Y-66960859D01*
X66147365Y-66914807D01*
X66088388Y-66892564D01*
X66022475Y-66898161D01*
X65968895Y-66927229D01*
X65950798Y-66943810D01*
X65937971Y-66963925D01*
X65929306Y-66994332D01*
X65923696Y-67041788D01*
X65920035Y-67113050D01*
X65917215Y-67214875D01*
X65916484Y-67247115D01*
X65913820Y-67357410D01*
X65910792Y-67435036D01*
X65906250Y-67486396D01*
X65899046Y-67517890D01*
X65888033Y-67535920D01*
X65872060Y-67546888D01*
X65861834Y-67551733D01*
X65818406Y-67568301D01*
X65792842Y-67573769D01*
X65784395Y-67555507D01*
X65779239Y-67500296D01*
X65777346Y-67407499D01*
X65778689Y-67276478D01*
X65779107Y-67256269D01*
X65782058Y-67136733D01*
X65785548Y-67049449D01*
X65790514Y-66987591D01*
X65797893Y-66944336D01*
X65808624Y-66912860D01*
X65823645Y-66886339D01*
X65831502Y-66874975D01*
X65876553Y-66824692D01*
X65926940Y-66785581D01*
X65933108Y-66782167D01*
X66023458Y-66755212D01*
X66118362Y-66759670D01*
G37*
X66118362Y-66759670D02*
X66207117Y-66792421D01*
X66279022Y-66850350D01*
X66307144Y-66891128D01*
X66337802Y-66965954D01*
X66337165Y-67020058D01*
X66304987Y-67056446D01*
X66293081Y-67062633D01*
X66241675Y-67081925D01*
X66215422Y-67076982D01*
X66206530Y-67044587D01*
X66206077Y-67026692D01*
X66189797Y-66960859D01*
X66147365Y-66914807D01*
X66088388Y-66892564D01*
X66022475Y-66898161D01*
X65968895Y-66927229D01*
X65950798Y-66943810D01*
X65937971Y-66963925D01*
X65929306Y-66994332D01*
X65923696Y-67041788D01*
X65920035Y-67113050D01*
X65917215Y-67214875D01*
X65916484Y-67247115D01*
X65913820Y-67357410D01*
X65910792Y-67435036D01*
X65906250Y-67486396D01*
X65899046Y-67517890D01*
X65888033Y-67535920D01*
X65872060Y-67546888D01*
X65861834Y-67551733D01*
X65818406Y-67568301D01*
X65792842Y-67573769D01*
X65784395Y-67555507D01*
X65779239Y-67500296D01*
X65777346Y-67407499D01*
X65778689Y-67276478D01*
X65779107Y-67256269D01*
X65782058Y-67136733D01*
X65785548Y-67049449D01*
X65790514Y-66987591D01*
X65797893Y-66944336D01*
X65808624Y-66912860D01*
X65823645Y-66886339D01*
X65831502Y-66874975D01*
X65876553Y-66824692D01*
X65926940Y-66785581D01*
X65933108Y-66782167D01*
X66023458Y-66755212D01*
X66118362Y-66759670D01*
G36*
X67007081Y-66915289D02*
G01*
X67006833Y-67061320D01*
X67005872Y-67173655D01*
X67003794Y-67257678D01*
X67000193Y-67318769D01*
X66994665Y-67362309D01*
X66986804Y-67393679D01*
X66976207Y-67418262D01*
X66968182Y-67432294D01*
X66901728Y-67508388D01*
X66817470Y-67556084D01*
X66724249Y-67573199D01*
X66630900Y-67557546D01*
X66575312Y-67529418D01*
X66516957Y-67480760D01*
X66477186Y-67421333D01*
X66453190Y-67343507D01*
X66442161Y-67239652D01*
X66440599Y-67163462D01*
X66440809Y-67157986D01*
X66577308Y-67157986D01*
X66578141Y-67245355D01*
X66581961Y-67303192D01*
X66590746Y-67341029D01*
X66606474Y-67368398D01*
X66625266Y-67389042D01*
X66688375Y-67428890D01*
X66756137Y-67432295D01*
X66820179Y-67399025D01*
X66825164Y-67394517D01*
X66846439Y-67371067D01*
X66859779Y-67343166D01*
X66867001Y-67301641D01*
X66869923Y-67237316D01*
X66870385Y-67166200D01*
X66869383Y-67076858D01*
X66865238Y-67017258D01*
X66856236Y-66978089D01*
X66840667Y-66950040D01*
X66827902Y-66935144D01*
X66768600Y-66897575D01*
X66700301Y-66893057D01*
X66635110Y-66921753D01*
X66622528Y-66932406D01*
X66601111Y-66956063D01*
X66587744Y-66984251D01*
X66580566Y-67026245D01*
X66577719Y-67091319D01*
X66577308Y-67157986D01*
X66440809Y-67157986D01*
X66445322Y-67040765D01*
X66461362Y-66948577D01*
X66491528Y-66879269D01*
X66538629Y-66825211D01*
X66575312Y-66797505D01*
X66641990Y-66767572D01*
X66719272Y-66753678D01*
X66791110Y-66757397D01*
X66831308Y-66772400D01*
X66847082Y-66776670D01*
X66857550Y-66760750D01*
X66864856Y-66718089D01*
X66870385Y-66653106D01*
X66876437Y-66580732D01*
X66884844Y-66537187D01*
X66900141Y-66512287D01*
X66926864Y-66495845D01*
X66943654Y-66488564D01*
X67007154Y-66461963D01*
X67007081Y-66915289D01*
G37*
X67007081Y-66915289D02*
X67006833Y-67061320D01*
X67005872Y-67173655D01*
X67003794Y-67257678D01*
X67000193Y-67318769D01*
X66994665Y-67362309D01*
X66986804Y-67393679D01*
X66976207Y-67418262D01*
X66968182Y-67432294D01*
X66901728Y-67508388D01*
X66817470Y-67556084D01*
X66724249Y-67573199D01*
X66630900Y-67557546D01*
X66575312Y-67529418D01*
X66516957Y-67480760D01*
X66477186Y-67421333D01*
X66453190Y-67343507D01*
X66442161Y-67239652D01*
X66440599Y-67163462D01*
X66440809Y-67157986D01*
X66577308Y-67157986D01*
X66578141Y-67245355D01*
X66581961Y-67303192D01*
X66590746Y-67341029D01*
X66606474Y-67368398D01*
X66625266Y-67389042D01*
X66688375Y-67428890D01*
X66756137Y-67432295D01*
X66820179Y-67399025D01*
X66825164Y-67394517D01*
X66846439Y-67371067D01*
X66859779Y-67343166D01*
X66867001Y-67301641D01*
X66869923Y-67237316D01*
X66870385Y-67166200D01*
X66869383Y-67076858D01*
X66865238Y-67017258D01*
X66856236Y-66978089D01*
X66840667Y-66950040D01*
X66827902Y-66935144D01*
X66768600Y-66897575D01*
X66700301Y-66893057D01*
X66635110Y-66921753D01*
X66622528Y-66932406D01*
X66601111Y-66956063D01*
X66587744Y-66984251D01*
X66580566Y-67026245D01*
X66577719Y-67091319D01*
X66577308Y-67157986D01*
X66440809Y-67157986D01*
X66445322Y-67040765D01*
X66461362Y-66948577D01*
X66491528Y-66879269D01*
X66538629Y-66825211D01*
X66575312Y-66797505D01*
X66641990Y-66767572D01*
X66719272Y-66753678D01*
X66791110Y-66757397D01*
X66831308Y-66772400D01*
X66847082Y-66776670D01*
X66857550Y-66760750D01*
X66864856Y-66718089D01*
X66870385Y-66653106D01*
X66876437Y-66580732D01*
X66884844Y-66537187D01*
X66900141Y-66512287D01*
X66926864Y-66495845D01*
X66943654Y-66488564D01*
X67007154Y-66461963D01*
X67007081Y-66915289D01*
G36*
X67800929Y-66771662D02*
G01*
X67803911Y-66823068D01*
X67806247Y-66901192D01*
X67807749Y-66999857D01*
X67808231Y-67103343D01*
X67808231Y-67453533D01*
X67746401Y-67515363D01*
X67703793Y-67553462D01*
X67666390Y-67568895D01*
X67615270Y-67567918D01*
X67594978Y-67565433D01*
X67531554Y-67558200D01*
X67479095Y-67554055D01*
X67466308Y-67553672D01*
X67423199Y-67556176D01*
X67361544Y-67562462D01*
X67337638Y-67565433D01*
X67278922Y-67570028D01*
X67239464Y-67560046D01*
X67200338Y-67529228D01*
X67186215Y-67515363D01*
X67124385Y-67453533D01*
X67124385Y-66798503D01*
X67174150Y-66775829D01*
X67217002Y-66759034D01*
X67242073Y-66753154D01*
X67248501Y-66771736D01*
X67254509Y-66823655D01*
X67259697Y-66903172D01*
X67263664Y-67004546D01*
X67265577Y-67090192D01*
X67270923Y-67427231D01*
X67317560Y-67433825D01*
X67359976Y-67429214D01*
X67380760Y-67414287D01*
X67386570Y-67386377D01*
X67391530Y-67326925D01*
X67395246Y-67243466D01*
X67397324Y-67143532D01*
X67397624Y-67092104D01*
X67397923Y-66796054D01*
X67459454Y-66774604D01*
X67503004Y-66760020D01*
X67526694Y-66753219D01*
X67527377Y-66753154D01*
X67529754Y-66771642D01*
X67532366Y-66822906D01*
X67534995Y-66900649D01*
X67537421Y-66998574D01*
X67539115Y-67090192D01*
X67544461Y-67427231D01*
X67661692Y-67427231D01*
X67667072Y-67119746D01*
X67672451Y-66812261D01*
X67729601Y-66782707D01*
X67771797Y-66762413D01*
X67796770Y-66753204D01*
X67797491Y-66753154D01*
X67800929Y-66771662D01*
G37*
X67800929Y-66771662D02*
X67803911Y-66823068D01*
X67806247Y-66901192D01*
X67807749Y-66999857D01*
X67808231Y-67103343D01*
X67808231Y-67453533D01*
X67746401Y-67515363D01*
X67703793Y-67553462D01*
X67666390Y-67568895D01*
X67615270Y-67567918D01*
X67594978Y-67565433D01*
X67531554Y-67558200D01*
X67479095Y-67554055D01*
X67466308Y-67553672D01*
X67423199Y-67556176D01*
X67361544Y-67562462D01*
X67337638Y-67565433D01*
X67278922Y-67570028D01*
X67239464Y-67560046D01*
X67200338Y-67529228D01*
X67186215Y-67515363D01*
X67124385Y-67453533D01*
X67124385Y-66798503D01*
X67174150Y-66775829D01*
X67217002Y-66759034D01*
X67242073Y-66753154D01*
X67248501Y-66771736D01*
X67254509Y-66823655D01*
X67259697Y-66903172D01*
X67263664Y-67004546D01*
X67265577Y-67090192D01*
X67270923Y-67427231D01*
X67317560Y-67433825D01*
X67359976Y-67429214D01*
X67380760Y-67414287D01*
X67386570Y-67386377D01*
X67391530Y-67326925D01*
X67395246Y-67243466D01*
X67397324Y-67143532D01*
X67397624Y-67092104D01*
X67397923Y-66796054D01*
X67459454Y-66774604D01*
X67503004Y-66760020D01*
X67526694Y-66753219D01*
X67527377Y-66753154D01*
X67529754Y-66771642D01*
X67532366Y-66822906D01*
X67534995Y-66900649D01*
X67537421Y-66998574D01*
X67539115Y-67090192D01*
X67544461Y-67427231D01*
X67661692Y-67427231D01*
X67667072Y-67119746D01*
X67672451Y-66812261D01*
X67729601Y-66782707D01*
X67771797Y-66762413D01*
X67796770Y-66753204D01*
X67797491Y-66753154D01*
X67800929Y-66771662D01*
G36*
X68292333Y-66768528D02*
G01*
X68348590Y-66794117D01*
X68392747Y-66825124D01*
X68425101Y-66859795D01*
X68447438Y-66904520D01*
X68461546Y-66965692D01*
X68469211Y-67049701D01*
X68472220Y-67162940D01*
X68472538Y-67237509D01*
X68472538Y-67528420D01*
X68422773Y-67551095D01*
X68383576Y-67567667D01*
X68364157Y-67573769D01*
X68360442Y-67555610D01*
X68357495Y-67506648D01*
X68355691Y-67435153D01*
X68355308Y-67378385D01*
X68353661Y-67296371D01*
X68349222Y-67231309D01*
X68342740Y-67191467D01*
X68337590Y-67183000D01*
X68302977Y-67191646D01*
X68248640Y-67213823D01*
X68185722Y-67243886D01*
X68125368Y-67276192D01*
X68078721Y-67305098D01*
X68056926Y-67324961D01*
X68056839Y-67325175D01*
X68058714Y-67361935D01*
X68075525Y-67397026D01*
X68105039Y-67425528D01*
X68148116Y-67435061D01*
X68184932Y-67433950D01*
X68237074Y-67433133D01*
X68264444Y-67445349D01*
X68280882Y-67477624D01*
X68282955Y-67483710D01*
X68290081Y-67529739D01*
X68271024Y-67557687D01*
X68221353Y-67571007D01*
X68167697Y-67573470D01*
X68071142Y-67555210D01*
X68021159Y-67529131D01*
X67959429Y-67467868D01*
X67926690Y-67392670D01*
X67923753Y-67313211D01*
X67951424Y-67239167D01*
X67993047Y-67192769D01*
X68034604Y-67166793D01*
X68099922Y-67133907D01*
X68176038Y-67100557D01*
X68188726Y-67095461D01*
X68272333Y-67058565D01*
X68320530Y-67026046D01*
X68336030Y-66993718D01*
X68321550Y-66957394D01*
X68296692Y-66929000D01*
X68237939Y-66894039D01*
X68173293Y-66891417D01*
X68114008Y-66918358D01*
X68071339Y-66972088D01*
X68065739Y-66985950D01*
X68033133Y-67036936D01*
X67985530Y-67074787D01*
X67925461Y-67105850D01*
X67925461Y-67017768D01*
X67928997Y-66963951D01*
X67944156Y-66921534D01*
X67977768Y-66876279D01*
X68010035Y-66841420D01*
X68060209Y-66792062D01*
X68099193Y-66765547D01*
X68141064Y-66754911D01*
X68188460Y-66753154D01*
X68292333Y-66768528D01*
G37*
X68292333Y-66768528D02*
X68348590Y-66794117D01*
X68392747Y-66825124D01*
X68425101Y-66859795D01*
X68447438Y-66904520D01*
X68461546Y-66965692D01*
X68469211Y-67049701D01*
X68472220Y-67162940D01*
X68472538Y-67237509D01*
X68472538Y-67528420D01*
X68422773Y-67551095D01*
X68383576Y-67567667D01*
X68364157Y-67573769D01*
X68360442Y-67555610D01*
X68357495Y-67506648D01*
X68355691Y-67435153D01*
X68355308Y-67378385D01*
X68353661Y-67296371D01*
X68349222Y-67231309D01*
X68342740Y-67191467D01*
X68337590Y-67183000D01*
X68302977Y-67191646D01*
X68248640Y-67213823D01*
X68185722Y-67243886D01*
X68125368Y-67276192D01*
X68078721Y-67305098D01*
X68056926Y-67324961D01*
X68056839Y-67325175D01*
X68058714Y-67361935D01*
X68075525Y-67397026D01*
X68105039Y-67425528D01*
X68148116Y-67435061D01*
X68184932Y-67433950D01*
X68237074Y-67433133D01*
X68264444Y-67445349D01*
X68280882Y-67477624D01*
X68282955Y-67483710D01*
X68290081Y-67529739D01*
X68271024Y-67557687D01*
X68221353Y-67571007D01*
X68167697Y-67573470D01*
X68071142Y-67555210D01*
X68021159Y-67529131D01*
X67959429Y-67467868D01*
X67926690Y-67392670D01*
X67923753Y-67313211D01*
X67951424Y-67239167D01*
X67993047Y-67192769D01*
X68034604Y-67166793D01*
X68099922Y-67133907D01*
X68176038Y-67100557D01*
X68188726Y-67095461D01*
X68272333Y-67058565D01*
X68320530Y-67026046D01*
X68336030Y-66993718D01*
X68321550Y-66957394D01*
X68296692Y-66929000D01*
X68237939Y-66894039D01*
X68173293Y-66891417D01*
X68114008Y-66918358D01*
X68071339Y-66972088D01*
X68065739Y-66985950D01*
X68033133Y-67036936D01*
X67985530Y-67074787D01*
X67925461Y-67105850D01*
X67925461Y-67017768D01*
X67928997Y-66963951D01*
X67944156Y-66921534D01*
X67977768Y-66876279D01*
X68010035Y-66841420D01*
X68060209Y-66792062D01*
X68099193Y-66765547D01*
X68141064Y-66754911D01*
X68188460Y-66753154D01*
X68292333Y-66768528D01*
G36*
X68975807Y-66771782D02*
G01*
X68999161Y-66781988D01*
X69054902Y-66826134D01*
X69102569Y-66889967D01*
X69132048Y-66958087D01*
X69136846Y-66991670D01*
X69120760Y-67038556D01*
X69085475Y-67063365D01*
X69047644Y-67078387D01*
X69030321Y-67081155D01*
X69021886Y-67061066D01*
X69005230Y-67017351D01*
X68997923Y-66997598D01*
X68956948Y-66929271D01*
X68897622Y-66895191D01*
X68821552Y-66896239D01*
X68815918Y-66897581D01*
X68775305Y-66916836D01*
X68745448Y-66954375D01*
X68725055Y-67014809D01*
X68712836Y-67102751D01*
X68707500Y-67222813D01*
X68707000Y-67286698D01*
X68706752Y-67387403D01*
X68705126Y-67456054D01*
X68700801Y-67499673D01*
X68692454Y-67525282D01*
X68678765Y-67539903D01*
X68658411Y-67550558D01*
X68657234Y-67551095D01*
X68618038Y-67567667D01*
X68598619Y-67573769D01*
X68595635Y-67555319D01*
X68593081Y-67504323D01*
X68591140Y-67427308D01*
X68589997Y-67330805D01*
X68589769Y-67260184D01*
X68590932Y-67123525D01*
X68595479Y-67019851D01*
X68604999Y-66943108D01*
X68621081Y-66887246D01*
X68645313Y-66846212D01*
X68679286Y-66813954D01*
X68712833Y-66791440D01*
X68793499Y-66761476D01*
X68887381Y-66754718D01*
X68975807Y-66771782D01*
G37*
X68975807Y-66771782D02*
X68999161Y-66781988D01*
X69054902Y-66826134D01*
X69102569Y-66889967D01*
X69132048Y-66958087D01*
X69136846Y-66991670D01*
X69120760Y-67038556D01*
X69085475Y-67063365D01*
X69047644Y-67078387D01*
X69030321Y-67081155D01*
X69021886Y-67061066D01*
X69005230Y-67017351D01*
X68997923Y-66997598D01*
X68956948Y-66929271D01*
X68897622Y-66895191D01*
X68821552Y-66896239D01*
X68815918Y-66897581D01*
X68775305Y-66916836D01*
X68745448Y-66954375D01*
X68725055Y-67014809D01*
X68712836Y-67102751D01*
X68707500Y-67222813D01*
X68707000Y-67286698D01*
X68706752Y-67387403D01*
X68705126Y-67456054D01*
X68700801Y-67499673D01*
X68692454Y-67525282D01*
X68678765Y-67539903D01*
X68658411Y-67550558D01*
X68657234Y-67551095D01*
X68618038Y-67567667D01*
X68598619Y-67573769D01*
X68595635Y-67555319D01*
X68593081Y-67504323D01*
X68591140Y-67427308D01*
X68589997Y-67330805D01*
X68589769Y-67260184D01*
X68590932Y-67123525D01*
X68595479Y-67019851D01*
X68604999Y-66943108D01*
X68621081Y-66887246D01*
X68645313Y-66846212D01*
X68679286Y-66813954D01*
X68712833Y-66791440D01*
X68793499Y-66761476D01*
X68887381Y-66754718D01*
X68975807Y-66771782D01*
G36*
X69650224Y-66782838D02*
G01*
X69727528Y-66833361D01*
X69764814Y-66878590D01*
X69794353Y-66960663D01*
X69796699Y-67025607D01*
X69791385Y-67112445D01*
X69591115Y-67200103D01*
X69493739Y-67244887D01*
X69430113Y-67280913D01*
X69397029Y-67312117D01*
X69391280Y-67342436D01*
X69409658Y-67375805D01*
X69429923Y-67397923D01*
X69488889Y-67433393D01*
X69553024Y-67435879D01*
X69611926Y-67408235D01*
X69655197Y-67353320D01*
X69662936Y-67333928D01*
X69700006Y-67273364D01*
X69742654Y-67247552D01*
X69801154Y-67225471D01*
X69801154Y-67309184D01*
X69795982Y-67366150D01*
X69775723Y-67414189D01*
X69733262Y-67469346D01*
X69726951Y-67476514D01*
X69679720Y-67525585D01*
X69639121Y-67551920D01*
X69588328Y-67564035D01*
X69546220Y-67568003D01*
X69470902Y-67568991D01*
X69417286Y-67556466D01*
X69383838Y-67537869D01*
X69331268Y-67496975D01*
X69294879Y-67452748D01*
X69271850Y-67397126D01*
X69259359Y-67322047D01*
X69254587Y-67219449D01*
X69254206Y-67167376D01*
X69255501Y-67104948D01*
X69373471Y-67104948D01*
X69374839Y-67138438D01*
X69378249Y-67143923D01*
X69400753Y-67136472D01*
X69449182Y-67116753D01*
X69513908Y-67088718D01*
X69527443Y-67082692D01*
X69609244Y-67041096D01*
X69654312Y-67004538D01*
X69664217Y-66970296D01*
X69640526Y-66935648D01*
X69620960Y-66920339D01*
X69550360Y-66889721D01*
X69484280Y-66894780D01*
X69428959Y-66932151D01*
X69390636Y-66998473D01*
X69378349Y-67051116D01*
X69373471Y-67104948D01*
X69255501Y-67104948D01*
X69256730Y-67045720D01*
X69266032Y-66955710D01*
X69284460Y-66890167D01*
X69314360Y-66841912D01*
X69358080Y-66803767D01*
X69377141Y-66791440D01*
X69463726Y-66759336D01*
X69558522Y-66757316D01*
X69650224Y-66782838D01*
G37*
X69650224Y-66782838D02*
X69727528Y-66833361D01*
X69764814Y-66878590D01*
X69794353Y-66960663D01*
X69796699Y-67025607D01*
X69791385Y-67112445D01*
X69591115Y-67200103D01*
X69493739Y-67244887D01*
X69430113Y-67280913D01*
X69397029Y-67312117D01*
X69391280Y-67342436D01*
X69409658Y-67375805D01*
X69429923Y-67397923D01*
X69488889Y-67433393D01*
X69553024Y-67435879D01*
X69611926Y-67408235D01*
X69655197Y-67353320D01*
X69662936Y-67333928D01*
X69700006Y-67273364D01*
X69742654Y-67247552D01*
X69801154Y-67225471D01*
X69801154Y-67309184D01*
X69795982Y-67366150D01*
X69775723Y-67414189D01*
X69733262Y-67469346D01*
X69726951Y-67476514D01*
X69679720Y-67525585D01*
X69639121Y-67551920D01*
X69588328Y-67564035D01*
X69546220Y-67568003D01*
X69470902Y-67568991D01*
X69417286Y-67556466D01*
X69383838Y-67537869D01*
X69331268Y-67496975D01*
X69294879Y-67452748D01*
X69271850Y-67397126D01*
X69259359Y-67322047D01*
X69254587Y-67219449D01*
X69254206Y-67167376D01*
X69255501Y-67104948D01*
X69373471Y-67104948D01*
X69374839Y-67138438D01*
X69378249Y-67143923D01*
X69400753Y-67136472D01*
X69449182Y-67116753D01*
X69513908Y-67088718D01*
X69527443Y-67082692D01*
X69609244Y-67041096D01*
X69654312Y-67004538D01*
X69664217Y-66970296D01*
X69640526Y-66935648D01*
X69620960Y-66920339D01*
X69550360Y-66889721D01*
X69484280Y-66894780D01*
X69428959Y-66932151D01*
X69390636Y-66998473D01*
X69378349Y-67051116D01*
X69373471Y-67104948D01*
X69255501Y-67104948D01*
X69256730Y-67045720D01*
X69266032Y-66955710D01*
X69284460Y-66890167D01*
X69314360Y-66841912D01*
X69358080Y-66803767D01*
X69377141Y-66791440D01*
X69463726Y-66759336D01*
X69558522Y-66757316D01*
X69650224Y-66782838D01*
G36*
X65544878Y-60422776D02*
G01*
X65650612Y-60423355D01*
X65727132Y-60424922D01*
X65779372Y-60427972D01*
X65812263Y-60432996D01*
X65830737Y-60440489D01*
X65839727Y-60450944D01*
X65844163Y-60464853D01*
X65844594Y-60466654D01*
X65851333Y-60499145D01*
X65863808Y-60563252D01*
X65880719Y-60652151D01*
X65900771Y-60759019D01*
X65922664Y-60877033D01*
X65923429Y-60881178D01*
X65945359Y-60996831D01*
X65965877Y-61099014D01*
X65983659Y-61181598D01*
X65997381Y-61238456D01*
X66005718Y-61263458D01*
X66006116Y-61263901D01*
X66030677Y-61276110D01*
X66081315Y-61296456D01*
X66147095Y-61320545D01*
X66147461Y-61320674D01*
X66230317Y-61351818D01*
X66328000Y-61391491D01*
X66420077Y-61431381D01*
X66424434Y-61433353D01*
X66574407Y-61501420D01*
X66906498Y-61274639D01*
X67008374Y-61205504D01*
X67100657Y-61143697D01*
X67178003Y-61092733D01*
X67235064Y-61056127D01*
X67266495Y-61037394D01*
X67269479Y-61036004D01*
X67292321Y-61042190D01*
X67334982Y-61072035D01*
X67399128Y-61126947D01*
X67486421Y-61208334D01*
X67575535Y-61294922D01*
X67661441Y-61380247D01*
X67738327Y-61458108D01*
X67801564Y-61523697D01*
X67846523Y-61572205D01*
X67868576Y-61598825D01*
X67869396Y-61600195D01*
X67871834Y-61618463D01*
X67862650Y-61648295D01*
X67839574Y-61693721D01*
X67800337Y-61758770D01*
X67742670Y-61847470D01*
X67665795Y-61961657D01*
X67597570Y-62062162D01*
X67536582Y-62152303D01*
X67486356Y-62226849D01*
X67450416Y-62280565D01*
X67432287Y-62308218D01*
X67431146Y-62310095D01*
X67433359Y-62336590D01*
X67450138Y-62388086D01*
X67478142Y-62454851D01*
X67488122Y-62476172D01*
X67531672Y-62571159D01*
X67578134Y-62678937D01*
X67615877Y-62772192D01*
X67643073Y-62841406D01*
X67664675Y-62894006D01*
X67677158Y-62921497D01*
X67678709Y-62923616D01*
X67701668Y-62927124D01*
X67755786Y-62936738D01*
X67833868Y-62951089D01*
X67928719Y-62968807D01*
X68033143Y-62988525D01*
X68139944Y-63008874D01*
X68241926Y-63028486D01*
X68331894Y-63045991D01*
X68402653Y-63060022D01*
X68447006Y-63069209D01*
X68457885Y-63071807D01*
X68469122Y-63078218D01*
X68477605Y-63092697D01*
X68483714Y-63120133D01*
X68487832Y-63165411D01*
X68490341Y-63233420D01*
X68491621Y-63329047D01*
X68492054Y-63457180D01*
X68492077Y-63509701D01*
X68492077Y-63936845D01*
X68389500Y-63957091D01*
X68332431Y-63968070D01*
X68247269Y-63984095D01*
X68144372Y-64003233D01*
X68034096Y-64023551D01*
X68003615Y-64029132D01*
X67901855Y-64048917D01*
X67813205Y-64068373D01*
X67745108Y-64085697D01*
X67705004Y-64099088D01*
X67698323Y-64103079D01*
X67681919Y-64131342D01*
X67658399Y-64186109D01*
X67632316Y-64256588D01*
X67627142Y-64271769D01*
X67592956Y-64365896D01*
X67550523Y-64472101D01*
X67508997Y-64567473D01*
X67508792Y-64567916D01*
X67439640Y-64717525D01*
X67894512Y-65386617D01*
X67602500Y-65679116D01*
X67514180Y-65766170D01*
X67433625Y-65842909D01*
X67365360Y-65905237D01*
X67313908Y-65949056D01*
X67283794Y-65970270D01*
X67279474Y-65971616D01*
X67254111Y-65961016D01*
X67202358Y-65931547D01*
X67129868Y-65886705D01*
X67042294Y-65829984D01*
X66947612Y-65766462D01*
X66851516Y-65701668D01*
X66765837Y-65645287D01*
X66696016Y-65600788D01*
X66647494Y-65571639D01*
X66625782Y-65561308D01*
X66599293Y-65570050D01*
X66549062Y-65593087D01*
X66485451Y-65625631D01*
X66478708Y-65629249D01*
X66393046Y-65672210D01*
X66334306Y-65693279D01*
X66297772Y-65693503D01*
X66278731Y-65673928D01*
X66278620Y-65673654D01*
X66269102Y-65650472D01*
X66246403Y-65595441D01*
X66212282Y-65512822D01*
X66168500Y-65406872D01*
X66116816Y-65281852D01*
X66058992Y-65142020D01*
X66002991Y-65006637D01*
X65941447Y-64857234D01*
X65884939Y-64718832D01*
X65835161Y-64595673D01*
X65793806Y-64492002D01*
X65762568Y-64412059D01*
X65743141Y-64360088D01*
X65737154Y-64340692D01*
X65752168Y-64318443D01*
X65791439Y-64282982D01*
X65843807Y-64243887D01*
X65992941Y-64120245D01*
X66109511Y-63978522D01*
X66192118Y-63821704D01*
X66239366Y-63652775D01*
X66249857Y-63474722D01*
X66242231Y-63392539D01*
X66200682Y-63222031D01*
X66129123Y-63071459D01*
X66031995Y-62942309D01*
X65913734Y-62836064D01*
X65778780Y-62754210D01*
X65631571Y-62698232D01*
X65476544Y-62669615D01*
X65318139Y-62669844D01*
X65160794Y-62700405D01*
X65008946Y-62762782D01*
X64867035Y-62858460D01*
X64807803Y-62912572D01*
X64694203Y-63051520D01*
X64615106Y-63203361D01*
X64569986Y-63363667D01*
X64558316Y-63528012D01*
X64579569Y-63691971D01*
X64633220Y-63851118D01*
X64718740Y-64001025D01*
X64835605Y-64137267D01*
X64966193Y-64243887D01*
X65020588Y-64284642D01*
X65059014Y-64319718D01*
X65072846Y-64340726D01*
X65065603Y-64363635D01*
X65045005Y-64418365D01*
X65012746Y-64500672D01*
X64970521Y-64606315D01*
X64920023Y-64731050D01*
X64862948Y-64870636D01*
X64806854Y-65006670D01*
X64744967Y-65156201D01*
X64687644Y-65294767D01*
X64636644Y-65418107D01*
X64593727Y-65521964D01*
X64560653Y-65602080D01*
X64539181Y-65654195D01*
X64531225Y-65673654D01*
X64512429Y-65693423D01*
X64476074Y-65693365D01*
X64417479Y-65672441D01*
X64331968Y-65629613D01*
X64331292Y-65629249D01*
X64266907Y-65596012D01*
X64214861Y-65571802D01*
X64185512Y-65561404D01*
X64184217Y-65561308D01*
X64162124Y-65571855D01*
X64113348Y-65601184D01*
X64043331Y-65645827D01*
X63957514Y-65702314D01*
X63862388Y-65766462D01*
X63765540Y-65831411D01*
X63678253Y-65887896D01*
X63606181Y-65932421D01*
X63554977Y-65961490D01*
X63530526Y-65971616D01*
X63508010Y-65958307D01*
X63462742Y-65921112D01*
X63399244Y-65864128D01*
X63322039Y-65791449D01*
X63235651Y-65707171D01*
X63207399Y-65679016D01*
X62915287Y-65386416D01*
X63137631Y-65060104D01*
X63205202Y-64959897D01*
X63264507Y-64869963D01*
X63312217Y-64795510D01*
X63345007Y-64741751D01*
X63359548Y-64713894D01*
X63359974Y-64711912D01*
X63352308Y-64685655D01*
X63331689Y-64632837D01*
X63301685Y-64562310D01*
X63280625Y-64515093D01*
X63241248Y-64424694D01*
X63204165Y-64333366D01*
X63175415Y-64256200D01*
X63167605Y-64232692D01*
X63145417Y-64169916D01*
X63123727Y-64121411D01*
X63111813Y-64103079D01*
X63085523Y-64091859D01*
X63028142Y-64075954D01*
X62947118Y-64057167D01*
X62849895Y-64037299D01*
X62806385Y-64029132D01*
X62695896Y-64008829D01*
X62589916Y-63989170D01*
X62498801Y-63972088D01*
X62432908Y-63959518D01*
X62420500Y-63957091D01*
X62317923Y-63936845D01*
X62317923Y-63509701D01*
X62318153Y-63369246D01*
X62319099Y-63262979D01*
X62321141Y-63186013D01*
X62324662Y-63133460D01*
X62330043Y-63100433D01*
X62337666Y-63082045D01*
X62347912Y-63073408D01*
X62352115Y-63071807D01*
X62377470Y-63066127D01*
X62433484Y-63054795D01*
X62512964Y-63039179D01*
X62608712Y-63020647D01*
X62713533Y-63000569D01*
X62820232Y-62980312D01*
X62921613Y-62961246D01*
X63010479Y-62944739D01*
X63079637Y-62932159D01*
X63121889Y-62924875D01*
X63131290Y-62923616D01*
X63139807Y-62906763D01*
X63158660Y-62861870D01*
X63184324Y-62797430D01*
X63194123Y-62772192D01*
X63233648Y-62674686D01*
X63280192Y-62566959D01*
X63321877Y-62476172D01*
X63352550Y-62406753D01*
X63372956Y-62349710D01*
X63379768Y-62314777D01*
X63378682Y-62310095D01*
X63364285Y-62287991D01*
X63331412Y-62238831D01*
X63283590Y-62167848D01*
X63224348Y-62080278D01*
X63157215Y-61981357D01*
X63143941Y-61961830D01*
X63066046Y-61846140D01*
X63008787Y-61758044D01*
X62969881Y-61693486D01*
X62947044Y-61648411D01*
X62937994Y-61618763D01*
X62940448Y-61600485D01*
X62940511Y-61600369D01*
X62959827Y-61576361D01*
X63002551Y-61529947D01*
X63064051Y-61465937D01*
X63139698Y-61389145D01*
X63224861Y-61304382D01*
X63234465Y-61294922D01*
X63341790Y-61190989D01*
X63424615Y-61114675D01*
X63484605Y-61064571D01*
X63523423Y-61039270D01*
X63540520Y-61036004D01*
X63565473Y-61050250D01*
X63617255Y-61083156D01*
X63690520Y-61131208D01*
X63779920Y-61190890D01*
X63880111Y-61258688D01*
X63903501Y-61274639D01*
X64235593Y-61501420D01*
X64385565Y-61433353D01*
X64476770Y-61393685D01*
X64574669Y-61353791D01*
X64658831Y-61321983D01*
X64662538Y-61320674D01*
X64728369Y-61296576D01*
X64779116Y-61276200D01*
X64803842Y-61263936D01*
X64803884Y-61263901D01*
X64811729Y-61241734D01*
X64825066Y-61187217D01*
X64842570Y-61106480D01*
X64862917Y-61005650D01*
X64884782Y-60890856D01*
X64886571Y-60881178D01*
X64908504Y-60762904D01*
X64928640Y-60655542D01*
X64945680Y-60565917D01*
X64958328Y-60500851D01*
X64965284Y-60467168D01*
X64965406Y-60466654D01*
X64969639Y-60452325D01*
X64977871Y-60441507D01*
X64995033Y-60433706D01*
X65026058Y-60428429D01*
X65075878Y-60425182D01*
X65149424Y-60423472D01*
X65251629Y-60422807D01*
X65387425Y-60422693D01*
X65405000Y-60422692D01*
X65544878Y-60422776D01*
G37*
X65544878Y-60422776D02*
X65650612Y-60423355D01*
X65727132Y-60424922D01*
X65779372Y-60427972D01*
X65812263Y-60432996D01*
X65830737Y-60440489D01*
X65839727Y-60450944D01*
X65844163Y-60464853D01*
X65844594Y-60466654D01*
X65851333Y-60499145D01*
X65863808Y-60563252D01*
X65880719Y-60652151D01*
X65900771Y-60759019D01*
X65922664Y-60877033D01*
X65923429Y-60881178D01*
X65945359Y-60996831D01*
X65965877Y-61099014D01*
X65983659Y-61181598D01*
X65997381Y-61238456D01*
X66005718Y-61263458D01*
X66006116Y-61263901D01*
X66030677Y-61276110D01*
X66081315Y-61296456D01*
X66147095Y-61320545D01*
X66147461Y-61320674D01*
X66230317Y-61351818D01*
X66328000Y-61391491D01*
X66420077Y-61431381D01*
X66424434Y-61433353D01*
X66574407Y-61501420D01*
X66906498Y-61274639D01*
X67008374Y-61205504D01*
X67100657Y-61143697D01*
X67178003Y-61092733D01*
X67235064Y-61056127D01*
X67266495Y-61037394D01*
X67269479Y-61036004D01*
X67292321Y-61042190D01*
X67334982Y-61072035D01*
X67399128Y-61126947D01*
X67486421Y-61208334D01*
X67575535Y-61294922D01*
X67661441Y-61380247D01*
X67738327Y-61458108D01*
X67801564Y-61523697D01*
X67846523Y-61572205D01*
X67868576Y-61598825D01*
X67869396Y-61600195D01*
X67871834Y-61618463D01*
X67862650Y-61648295D01*
X67839574Y-61693721D01*
X67800337Y-61758770D01*
X67742670Y-61847470D01*
X67665795Y-61961657D01*
X67597570Y-62062162D01*
X67536582Y-62152303D01*
X67486356Y-62226849D01*
X67450416Y-62280565D01*
X67432287Y-62308218D01*
X67431146Y-62310095D01*
X67433359Y-62336590D01*
X67450138Y-62388086D01*
X67478142Y-62454851D01*
X67488122Y-62476172D01*
X67531672Y-62571159D01*
X67578134Y-62678937D01*
X67615877Y-62772192D01*
X67643073Y-62841406D01*
X67664675Y-62894006D01*
X67677158Y-62921497D01*
X67678709Y-62923616D01*
X67701668Y-62927124D01*
X67755786Y-62936738D01*
X67833868Y-62951089D01*
X67928719Y-62968807D01*
X68033143Y-62988525D01*
X68139944Y-63008874D01*
X68241926Y-63028486D01*
X68331894Y-63045991D01*
X68402653Y-63060022D01*
X68447006Y-63069209D01*
X68457885Y-63071807D01*
X68469122Y-63078218D01*
X68477605Y-63092697D01*
X68483714Y-63120133D01*
X68487832Y-63165411D01*
X68490341Y-63233420D01*
X68491621Y-63329047D01*
X68492054Y-63457180D01*
X68492077Y-63509701D01*
X68492077Y-63936845D01*
X68389500Y-63957091D01*
X68332431Y-63968070D01*
X68247269Y-63984095D01*
X68144372Y-64003233D01*
X68034096Y-64023551D01*
X68003615Y-64029132D01*
X67901855Y-64048917D01*
X67813205Y-64068373D01*
X67745108Y-64085697D01*
X67705004Y-64099088D01*
X67698323Y-64103079D01*
X67681919Y-64131342D01*
X67658399Y-64186109D01*
X67632316Y-64256588D01*
X67627142Y-64271769D01*
X67592956Y-64365896D01*
X67550523Y-64472101D01*
X67508997Y-64567473D01*
X67508792Y-64567916D01*
X67439640Y-64717525D01*
X67894512Y-65386617D01*
X67602500Y-65679116D01*
X67514180Y-65766170D01*
X67433625Y-65842909D01*
X67365360Y-65905237D01*
X67313908Y-65949056D01*
X67283794Y-65970270D01*
X67279474Y-65971616D01*
X67254111Y-65961016D01*
X67202358Y-65931547D01*
X67129868Y-65886705D01*
X67042294Y-65829984D01*
X66947612Y-65766462D01*
X66851516Y-65701668D01*
X66765837Y-65645287D01*
X66696016Y-65600788D01*
X66647494Y-65571639D01*
X66625782Y-65561308D01*
X66599293Y-65570050D01*
X66549062Y-65593087D01*
X66485451Y-65625631D01*
X66478708Y-65629249D01*
X66393046Y-65672210D01*
X66334306Y-65693279D01*
X66297772Y-65693503D01*
X66278731Y-65673928D01*
X66278620Y-65673654D01*
X66269102Y-65650472D01*
X66246403Y-65595441D01*
X66212282Y-65512822D01*
X66168500Y-65406872D01*
X66116816Y-65281852D01*
X66058992Y-65142020D01*
X66002991Y-65006637D01*
X65941447Y-64857234D01*
X65884939Y-64718832D01*
X65835161Y-64595673D01*
X65793806Y-64492002D01*
X65762568Y-64412059D01*
X65743141Y-64360088D01*
X65737154Y-64340692D01*
X65752168Y-64318443D01*
X65791439Y-64282982D01*
X65843807Y-64243887D01*
X65992941Y-64120245D01*
X66109511Y-63978522D01*
X66192118Y-63821704D01*
X66239366Y-63652775D01*
X66249857Y-63474722D01*
X66242231Y-63392539D01*
X66200682Y-63222031D01*
X66129123Y-63071459D01*
X66031995Y-62942309D01*
X65913734Y-62836064D01*
X65778780Y-62754210D01*
X65631571Y-62698232D01*
X65476544Y-62669615D01*
X65318139Y-62669844D01*
X65160794Y-62700405D01*
X65008946Y-62762782D01*
X64867035Y-62858460D01*
X64807803Y-62912572D01*
X64694203Y-63051520D01*
X64615106Y-63203361D01*
X64569986Y-63363667D01*
X64558316Y-63528012D01*
X64579569Y-63691971D01*
X64633220Y-63851118D01*
X64718740Y-64001025D01*
X64835605Y-64137267D01*
X64966193Y-64243887D01*
X65020588Y-64284642D01*
X65059014Y-64319718D01*
X65072846Y-64340726D01*
X65065603Y-64363635D01*
X65045005Y-64418365D01*
X65012746Y-64500672D01*
X64970521Y-64606315D01*
X64920023Y-64731050D01*
X64862948Y-64870636D01*
X64806854Y-65006670D01*
X64744967Y-65156201D01*
X64687644Y-65294767D01*
X64636644Y-65418107D01*
X64593727Y-65521964D01*
X64560653Y-65602080D01*
X64539181Y-65654195D01*
X64531225Y-65673654D01*
X64512429Y-65693423D01*
X64476074Y-65693365D01*
X64417479Y-65672441D01*
X64331968Y-65629613D01*
X64331292Y-65629249D01*
X64266907Y-65596012D01*
X64214861Y-65571802D01*
X64185512Y-65561404D01*
X64184217Y-65561308D01*
X64162124Y-65571855D01*
X64113348Y-65601184D01*
X64043331Y-65645827D01*
X63957514Y-65702314D01*
X63862388Y-65766462D01*
X63765540Y-65831411D01*
X63678253Y-65887896D01*
X63606181Y-65932421D01*
X63554977Y-65961490D01*
X63530526Y-65971616D01*
X63508010Y-65958307D01*
X63462742Y-65921112D01*
X63399244Y-65864128D01*
X63322039Y-65791449D01*
X63235651Y-65707171D01*
X63207399Y-65679016D01*
X62915287Y-65386416D01*
X63137631Y-65060104D01*
X63205202Y-64959897D01*
X63264507Y-64869963D01*
X63312217Y-64795510D01*
X63345007Y-64741751D01*
X63359548Y-64713894D01*
X63359974Y-64711912D01*
X63352308Y-64685655D01*
X63331689Y-64632837D01*
X63301685Y-64562310D01*
X63280625Y-64515093D01*
X63241248Y-64424694D01*
X63204165Y-64333366D01*
X63175415Y-64256200D01*
X63167605Y-64232692D01*
X63145417Y-64169916D01*
X63123727Y-64121411D01*
X63111813Y-64103079D01*
X63085523Y-64091859D01*
X63028142Y-64075954D01*
X62947118Y-64057167D01*
X62849895Y-64037299D01*
X62806385Y-64029132D01*
X62695896Y-64008829D01*
X62589916Y-63989170D01*
X62498801Y-63972088D01*
X62432908Y-63959518D01*
X62420500Y-63957091D01*
X62317923Y-63936845D01*
X62317923Y-63509701D01*
X62318153Y-63369246D01*
X62319099Y-63262979D01*
X62321141Y-63186013D01*
X62324662Y-63133460D01*
X62330043Y-63100433D01*
X62337666Y-63082045D01*
X62347912Y-63073408D01*
X62352115Y-63071807D01*
X62377470Y-63066127D01*
X62433484Y-63054795D01*
X62512964Y-63039179D01*
X62608712Y-63020647D01*
X62713533Y-63000569D01*
X62820232Y-62980312D01*
X62921613Y-62961246D01*
X63010479Y-62944739D01*
X63079637Y-62932159D01*
X63121889Y-62924875D01*
X63131290Y-62923616D01*
X63139807Y-62906763D01*
X63158660Y-62861870D01*
X63184324Y-62797430D01*
X63194123Y-62772192D01*
X63233648Y-62674686D01*
X63280192Y-62566959D01*
X63321877Y-62476172D01*
X63352550Y-62406753D01*
X63372956Y-62349710D01*
X63379768Y-62314777D01*
X63378682Y-62310095D01*
X63364285Y-62287991D01*
X63331412Y-62238831D01*
X63283590Y-62167848D01*
X63224348Y-62080278D01*
X63157215Y-61981357D01*
X63143941Y-61961830D01*
X63066046Y-61846140D01*
X63008787Y-61758044D01*
X62969881Y-61693486D01*
X62947044Y-61648411D01*
X62937994Y-61618763D01*
X62940448Y-61600485D01*
X62940511Y-61600369D01*
X62959827Y-61576361D01*
X63002551Y-61529947D01*
X63064051Y-61465937D01*
X63139698Y-61389145D01*
X63224861Y-61304382D01*
X63234465Y-61294922D01*
X63341790Y-61190989D01*
X63424615Y-61114675D01*
X63484605Y-61064571D01*
X63523423Y-61039270D01*
X63540520Y-61036004D01*
X63565473Y-61050250D01*
X63617255Y-61083156D01*
X63690520Y-61131208D01*
X63779920Y-61190890D01*
X63880111Y-61258688D01*
X63903501Y-61274639D01*
X64235593Y-61501420D01*
X64385565Y-61433353D01*
X64476770Y-61393685D01*
X64574669Y-61353791D01*
X64658831Y-61321983D01*
X64662538Y-61320674D01*
X64728369Y-61296576D01*
X64779116Y-61276200D01*
X64803842Y-61263936D01*
X64803884Y-61263901D01*
X64811729Y-61241734D01*
X64825066Y-61187217D01*
X64842570Y-61106480D01*
X64862917Y-61005650D01*
X64884782Y-60890856D01*
X64886571Y-60881178D01*
X64908504Y-60762904D01*
X64928640Y-60655542D01*
X64945680Y-60565917D01*
X64958328Y-60500851D01*
X64965284Y-60467168D01*
X64965406Y-60466654D01*
X64969639Y-60452325D01*
X64977871Y-60441507D01*
X64995033Y-60433706D01*
X65026058Y-60428429D01*
X65075878Y-60425182D01*
X65149424Y-60423472D01*
X65251629Y-60422807D01*
X65387425Y-60422693D01*
X65405000Y-60422692D01*
X65544878Y-60422776D01*
D12*
X91325000Y-38500001D02*
X91865000Y-38500001D01*
X91865000Y-38500001D02*
X91865000Y-37475001D01*
X91865000Y-37475001D02*
X92975000Y-37475001D01*
X92975000Y-37475001D02*
X92975000Y-60615001D01*
X92975000Y-60615001D02*
X91865000Y-60615001D01*
X91865000Y-60615001D02*
X91865000Y-59590001D01*
X91865000Y-59590001D02*
X91325000Y-59590001D01*
X87355000Y-57435001D02*
X87355000Y-56610001D01*
X87355000Y-56610001D02*
X85555000Y-56610001D01*
X87355000Y-41480001D02*
X87355000Y-40655001D01*
X72330000Y-68005000D02*
X74990000Y-68005000D01*
X72330000Y-32385000D02*
X72330000Y-68005000D01*
X74990000Y-32385000D02*
X74990000Y-68005000D01*
X72330000Y-32385000D02*
X74990000Y-32385000D01*
X72330000Y-31115000D02*
X72330000Y-29785000D01*
X72330000Y-29785000D02*
X73660000Y-29785000D01*
D10*
X63142380Y-49378334D02*
X63856666Y-49378334D01*
X63999523Y-49425953D01*
X64094761Y-49521191D01*
X64142380Y-49664048D01*
X64142380Y-49759286D01*
X64142380Y-48378334D02*
X64142380Y-48949762D01*
X64142380Y-48664048D02*
X63142380Y-48664048D01*
X63285238Y-48759286D01*
X63380476Y-48854524D01*
X63428095Y-48949762D01*
X83717380Y-49378334D02*
X84431666Y-49378334D01*
X84574523Y-49425953D01*
X84669761Y-49521191D01*
X84717380Y-49664048D01*
X84717380Y-49759286D01*
X83812619Y-48949762D02*
X83765000Y-48902143D01*
X83717380Y-48806905D01*
X83717380Y-48568810D01*
X83765000Y-48473572D01*
X83812619Y-48425953D01*
X83907857Y-48378334D01*
X84003095Y-48378334D01*
X84145952Y-48425953D01*
X84717380Y-48997381D01*
X84717380Y-48378334D01*
X73326666Y-28237380D02*
X73326666Y-28951666D01*
X73279047Y-29094523D01*
X73183809Y-29189761D01*
X73040952Y-29237380D01*
X72945714Y-29237380D01*
X73707619Y-28237380D02*
X74326666Y-28237380D01*
X73993333Y-28618333D01*
X74136190Y-28618333D01*
X74231428Y-28665952D01*
X74279047Y-28713571D01*
X74326666Y-28808809D01*
X74326666Y-29046904D01*
X74279047Y-29142142D01*
X74231428Y-29189761D01*
X74136190Y-29237380D01*
X73850476Y-29237380D01*
X73755238Y-29189761D01*
X73707619Y-29142142D01*
%LPC*%
D13*
X58690000Y-59035001D03*
X58690000Y-39055001D03*
D14*
X61490000Y-56045001D03*
X61490000Y-55045001D03*
X61490000Y-54045001D03*
X61490000Y-53045001D03*
X61490000Y-52045001D03*
X61490000Y-51045001D03*
X61490000Y-50045001D03*
X61490000Y-49045001D03*
X61490000Y-48045001D03*
X61490000Y-47045001D03*
X61490000Y-46045001D03*
X61490000Y-45045001D03*
X61490000Y-44045001D03*
X61490000Y-43045001D03*
X61490000Y-42045001D03*
X86465000Y-56045001D03*
X86465000Y-55045001D03*
X86465000Y-54045001D03*
X86465000Y-53045001D03*
X86465000Y-52045001D03*
X86465000Y-51045001D03*
X86465000Y-50045001D03*
X86465000Y-49045001D03*
X86465000Y-48045001D03*
X86465000Y-47045001D03*
X86465000Y-46045001D03*
X86465000Y-45045001D03*
X86465000Y-44045001D03*
X86465000Y-43045001D03*
X86465000Y-42045001D03*
D13*
X89265000Y-59035001D03*
X89265000Y-39055001D03*
D15*
X73660000Y-31115000D03*
D16*
X73660000Y-33655000D03*
X73660000Y-36195000D03*
X73660000Y-38735000D03*
X73660000Y-41275000D03*
X73660000Y-43815000D03*
X73660000Y-46355000D03*
X73660000Y-48895000D03*
X73660000Y-51435000D03*
X73660000Y-53975000D03*
X73660000Y-56515000D03*
X73660000Y-59055000D03*
X73660000Y-61595000D03*
X73660000Y-64135000D03*
X73660000Y-66675000D03*
M02*
